<svg version="1.2" xmlns="http://www.w3.org/2000/svg" viewBox="0 0 712 626" width="712" height="626">
	<title>pczinhogui-ai</title>
	<defs>
		<linearGradient id="g1" x1="611.1" y1="17.9" x2="299.1" y2="17.9" gradientUnits="userSpaceOnUse">
			<stop offset="0" stop-color="#b0bbe0"/>
			<stop offset="1" stop-color="#e3e8f4"/>
		</linearGradient>
		<linearGradient id="g2" x1="611.3" y1="178.2" x2="557.7" y2="178.2" gradientUnits="userSpaceOnUse">
			<stop offset="0" stop-color="#3761b4"/>
			<stop offset="1" stop-color="#abbadf"/>
		</linearGradient>
		<linearGradient id="g3" x1="569.5" y1="249.1" x2="127.9" y2="249.1" gradientUnits="userSpaceOnUse">
			<stop offset="0" stop-color="#3761b4"/>
			<stop offset="1" stop-color="#abbadf"/>
		</linearGradient>
		<linearGradient id="g4" x1="764.1" y1="231.2" x2="115.9" y2="231.2" gradientUnits="userSpaceOnUse">
			<stop offset="0" stop-color="#b0bbe0"/>
			<stop offset="1" stop-color="#e3e8f4"/>
		</linearGradient>
		<clipPath clipPathUnits="userSpaceOnUse" id="cp1">
			<path d="m569.6 388.6l-271.73-156.82 34.16-203.12 271.91 156.92z"/>
		</clipPath>
		<linearGradient id="g5" x1="739.3" y1="151.9" x2="297.7" y2="151.9" gradientUnits="userSpaceOnUse">
			<stop offset="0" stop-color="#3761b4"/>
			<stop offset="1" stop-color="#abbadf"/>
		</linearGradient>
		<linearGradient id="g6" x1="590.7" y1="134.1" x2="150.5" y2="134.1" gradientUnits="userSpaceOnUse">
			<stop offset="0" stop-color="#b0bbe0"/>
			<stop offset="1" stop-color="#e3e8f4"/>
		</linearGradient>
		<linearGradient id="g7" x1="486.8" y1="202.3" x2="580" y2="242.2" gradientUnits="userSpaceOnUse">
			<stop offset="0" stop-color="#5ecfcd"/>
			<stop offset="1" stop-color="#141d45"/>
		</linearGradient>
	</defs>
	<style>
		.s0 { fill: #42e8e0 } 
		.s1 { fill: url(#g1) } 
		.s2 { fill: url(#g2) } 
		.s3 { fill: #24126a } 
		.s4 { fill: #453c9e } 
		.s5 { fill: url(#g3) } 
		.s6 { fill: url(#g4) } 
		.s7 { fill: #ffffff } 
		.s8 { fill: url(#g5) } 
		.s9 { fill: url(#g6) } 
		.s10 { opacity: .5;fill: url(#g7) } 
	</style>
	<g id="gui">
		<g id="&lt;Group&gt;">
			<g id="&lt;Group&gt;">
				<path id="&lt;Compound Path&gt;" fill-rule="evenodd" class="s0" d="m402.9 529.5c-2.2 0-4.4-0.5-6.1-1.6l-267.9-154.6c-1.9-1.1-2.9-2.6-2.9-4.1 0-1.3 0.8-2.5 2.2-3.3l159.8-92.3c2.9-1.6 7.7-1.5 10.9 0.4l267.9 154.7c1.8 1 2.9 2.5 2.9 4 0 1.4-0.8 2.5-2.2 3.4l-159.9 92.2c-1.3 0.8-3 1.2-4.7 1.2zm-273.1-157.9l267.9 154.7c2.7 1.5 6.8 1.7 9 0.4l159.9-92.3c0.5-0.3 1.2-0.9 1.2-1.7 0-0.8-0.7-1.7-2-2.4l-267.8-154.6c-2.7-1.5-6.8-1.7-9-0.4l-159.9 92.2c-0.5 0.4-1.2 0.9-1.2 1.7 0 0.8 0.7 1.7 1.9 2.4z"/>
				<g id="&lt;Group&gt;">
					<g id="&lt;Group&gt;">
						<g id="&lt;Group&gt;">
							<g id="&lt;Group&gt;">
								<g id="&lt;Group&gt;">
									<path id="&lt;Path&gt;" class="s1" d="m298.8 226.6l33.9-200.9-2.8-1.1 4.1-2.4c0.8-0.5 1.9-0.5 3.2 0.3l270.6 156.2c2.2 1.3 3.9 4.6 3.5 6.9l-34.1 202.5c-0.2 1-0.7 1.7-1.4 2.1l-4 2.3-0.7-3.8 0.2 0.1-269-155.3c-2.2-1.3-3.9-4.6-3.5-6.9z"/>
									<path id="&lt;Path&gt;" class="s2" d="m606.3 184.2l4.5-2c0.5 1.2 0.7 2.4 0.5 3.4l-34.1 202.5c-0.2 1-0.7 1.7-1.4 2.1l-4 2.3-0.7-3.8 0.2 0.1-13.6-7.9z"/>
									<path id="&lt;Path&gt;" class="s3" d="m294.6 229.1l34.1-202.6c0.4-2.1 2.1-2.8 4.2-1.6l270.7 156.2c2.2 1.3 3.9 4.6 3.5 6.9l-34.1 202.5c-0.4 2.2-2.2 2.9-4.3 1.7l-270.6-156.3c-2.2-1.3-3.9-4.5-3.5-6.8z"/>
									<g id="&lt;Group&gt;" style="opacity: .5">
										<path id="&lt;Path&gt;" class="s4" d="m332 28.7l271.9 156.9-34.3 203-271.7-156.8z"/>
									</g>
								</g>
								<g id="&lt;Group&gt;">
									<path id="&lt;Path&gt;" class="s5" d="m127.9 331.8l14.8 7.7 148.1-85.5c2.5-1.4 6.8-1.2 9.7 0.4l255.4 147.5c2.5-1.4 13.6-6.7 13.6-6.7l-5.4 8.7q0 0 0 0c-0.2 0.7-0.7 1.2-1.5 1.7l-156 90.1c-2.5 1.4-6.8 1.2-9.7-0.4l-261.4-151c-1.1-0.6-1.9-1.5-2.2-2.3z"/>
									<path id="&lt;Path&gt;" class="s6" d="m129.5 328.5l159.9-92.3c2.5-1.5 7-1.3 9.9 0.4l267.9 154.7c2.9 1.7 3.2 4.2 0.7 5.7l-159.9 92.3c-2.5 1.5-6.9 1.3-9.9-0.4l-267.9-154.7c-2.9-1.7-3.2-4.2-0.7-5.7z"/>
									<path id="&lt;Path&gt;" class="s7" d="m130.2 333l267.9 154.7c3 1.7 7.4 1.9 9.9 0.4l159.9-92.3c0.9-0.5 1.4-1.2 1.6-1.9 0.3 1.2-0.2 2.3-1.6 3.1l-159.9 92.3c-2.5 1.5-6.9 1.3-9.9-0.4l-267.9-154.7c-1.9-1.1-2.7-2.5-2.3-3.8 0.2 0.9 1 1.9 2.3 2.6z"/>
								</g>
							</g>
							<g id="&lt;Clip Group&gt;" clip-path="url(#cp1)" style="opacity: .1">
								<g id="&lt;Group&gt;">
									<g id="&lt;Group&gt;">
										<path id="&lt;Path&gt;" class="s8" d="m297.7 234.6l14.8 7.7 148.1-85.5c2.5-1.4 6.8-1.2 9.7 0.4l255.4 147.5c2.5-1.4 13.6-6.7 13.6-6.7l-5.4 8.8q0 0 0-0.1c-0.2 0.7-0.7 1.3-1.5 1.7l-156 90.1c-2.5 1.4-6.8 1.2-9.7-0.4l-261.4-150.9c-1.1-0.7-1.9-1.5-2.2-2.4z"/>
										<path id="&lt;Path&gt;" class="s9" d="m299.3 231.3l159.9-92.3c2.5-1.4 6.9-1.2 9.9 0.4l267.9 154.7c2.9 1.7 3.2 4.3 0.7 5.7l-159.9 92.3c-2.5 1.5-7 1.3-9.9-0.4l-267.9-154.6c-2.9-1.7-3.2-4.3-0.7-5.8z"/>
										<path id="&lt;Path&gt;" class="s7" d="m737.7 299.8l-159.9 92.3c-1.4 0.8-3.3 1.1-5.2 1 1.2-0.1 2.3-0.4 3.3-1l159.8-92.3c2.5-1.4 2.2-4-0.7-5.7l-267.9-154.7c-1.3-0.7-3-1.2-4.6-1.3 2.2-0.2 4.7 0.3 6.6 1.3l267.9 154.7c2.9 1.7 3.2 4.3 0.7 5.7z"/>
									</g>
									<g id="&lt;Group&gt;" style="opacity: .5">
										<path id="&lt;Path&gt;" class="s3" d="m440.2 211.9l-9.5 5.6c-0.8 0.5-1.9 0.5-2.6 0.1l-8.6-5c-0.7-0.4-0.6-1 0.1-1.5l9.6-5.6c0.7-0.4 1.9-0.4 2.6 0l8.5 4.9c0.7 0.4 0.7 1.1-0.1 1.5z"/>
										<path id="&lt;Path&gt;" class="s3" d="m453.5 219.6l-9.5 5.6c-0.8 0.4-2 0.4-2.6 0l-8.6-4.9c-0.7-0.4-0.7-1.1 0.1-1.5l9.5-5.6c0.8-0.4 1.9-0.5 2.6-0.1l8.6 5c0.7 0.4 0.6 1.1-0.1 1.5z"/>
										<path id="&lt;Path&gt;" class="s3" d="m466.8 227.3l-9.6 5.5c-0.7 0.5-1.9 0.5-2.6 0.1l-8.6-5c-0.7-0.4-0.6-1 0.1-1.5l9.6-5.5c0.7-0.5 1.9-0.5 2.6-0.1l8.6 4.9c0.7 0.4 0.6 1.1-0.1 1.6z"/>
										<path id="&lt;Path&gt;" class="s3" d="m456.7 237.4l-8 4.7c-0.8 0.5-2 0.5-2.7 0.1l-8.5-5c-0.7-0.4-0.7-1 0.1-1.5l8-4.7c0.7-0.4 1.9-0.4 2.6 0l8.6 4.9c0.7 0.4 0.6 1.1-0.1 1.5z"/>
										<path id="&lt;Path&gt;" class="s3" d="m469.9 245.1l-8 4.7c-0.7 0.4-1.9 0.4-2.6 0.1l-8.6-5c-0.7-0.4-0.6-1.1 0.1-1.5l8-4.7c0.8-0.4 2-0.5 2.6-0.1l8.6 5c0.7 0.4 0.7 1.1-0.1 1.5z"/>
										<path id="&lt;Path&gt;" class="s3" d="m483.2 252.8l-8 4.6c-0.8 0.5-1.9 0.5-2.6 0.1l-8.6-5c-0.7-0.3-0.7-1 0.1-1.5l8-4.6c0.8-0.5 1.9-0.5 2.6-0.1l8.6 4.9c0.7 0.4 0.6 1.1-0.1 1.6z"/>
										<path id="&lt;Path&gt;" class="s3" d="m496.4 260.4l-8 4.7c-0.7 0.4-1.9 0.5-2.6 0.1l-8.6-5c-0.6-0.4-0.6-1.1 0.2-1.5l8-4.7c0.7-0.4 1.9-0.5 2.6-0.1l8.6 5c0.6 0.4 0.6 1.1-0.2 1.5z"/>
										<path id="&lt;Path&gt;" class="s3" d="m509.7 268.1l-8 4.6c-0.8 0.5-1.9 0.5-2.6 0.1l-8.6-4.9c-0.7-0.4-0.6-1.1 0.1-1.6l8-4.6c0.8-0.5 1.9-0.5 2.6-0.1l8.6 5c0.7 0.4 0.7 1-0.1 1.5z"/>
										<path id="&lt;Path&gt;" class="s3" d="m523 275.7l-8 4.7c-0.8 0.4-2 0.5-2.6 0.1l-8.6-5c-0.7-0.4-0.7-1.1 0.1-1.5l8-4.7c0.7-0.4 1.9-0.4 2.6 0l8.6 4.9c0.7 0.4 0.6 1.1-0.1 1.5z"/>
										<path id="&lt;Path&gt;" class="s3" d="m536.2 283.4l-8 4.7c-0.7 0.4-1.9 0.4-2.6 0l-8.6-4.9c-0.7-0.4-0.6-1.1 0.1-1.5l8-4.7c0.8-0.5 2-0.5 2.7-0.1l8.5 5c0.7 0.4 0.7 1-0.1 1.5z"/>
										<path id="&lt;Path&gt;" class="s3" d="m549.5 291l-8 4.7c-0.8 0.5-1.9 0.5-2.6 0.1l-8.6-5c-0.7-0.4-0.7-1 0.1-1.5l8-4.7c0.8-0.4 1.9-0.4 2.6 0l8.6 4.9c0.7 0.4 0.6 1.1-0.1 1.5z"/>
										<path id="&lt;Path&gt;" class="s3" d="m562.8 298.7l-8.1 4.7c-0.7 0.4-1.9 0.4-2.6 0l-8.6-4.9c-0.6-0.4-0.6-1.1 0.2-1.5l8-4.7c0.7-0.4 1.9-0.5 2.6-0.1l8.6 5c0.7 0.4 0.6 1.1-0.1 1.5z"/>
										<path id="&lt;Path&gt;" class="s3" d="m576 306.3l-8 4.7c-0.7 0.5-1.9 0.5-2.6 0.1l-8.6-5c-0.7-0.4-0.6-1 0.1-1.5l8-4.7c0.8-0.4 1.9-0.4 2.6 0l8.6 4.9c0.7 0.4 0.7 1.1-0.1 1.5z"/>
										<path id="&lt;Path&gt;" class="s3" d="m451.1 248.4l-8 4.7c-0.7 0.4-1.9 0.4-2.6 0l-8.6-4.9c-0.7-0.4-0.6-1.1 0.1-1.5l8.1-4.7c0.7-0.5 1.9-0.5 2.6-0.1l8.5 5c0.7 0.4 0.7 1-0.1 1.5z"/>
										<path id="&lt;Path&gt;" class="s3" d="m437.7 240.6l-8 4.7c-0.8 0.4-1.9 0.5-2.6 0.1l-8.6-5c-0.7-0.4-0.7-1.1 0.1-1.5l8-4.7c0.7-0.4 1.9-0.5 2.6-0.1l8.6 5c0.7 0.4 0.6 1.1-0.1 1.5z"/>
										<path id="&lt;Path&gt;" class="s3" d="m424.2 232.8l-8 4.7c-0.8 0.4-1.9 0.5-2.6 0.1l-18.5-10.7c-0.7-0.4-0.7-1.1 0.1-1.5l8-4.7c0.8-0.4 1.9-0.5 2.6-0.1l18.5 10.7c0.7 0.4 0.7 1.1-0.1 1.5z"/>
										<path id="&lt;Path&gt;" class="s3" d="m408.6 237.9l-8.1 4.7c-0.7 0.4-1.9 0.5-2.6 0.1l-15-8.7c-0.7-0.4-0.6-1.1 0.1-1.5l8.1-4.7c0.7-0.4 1.9-0.5 2.6-0.1l15 8.7c0.7 0.4 0.6 1.1-0.1 1.5z"/>
										<path id="&lt;Path&gt;" class="s3" d="m464.4 256l-8 4.7c-0.8 0.4-1.9 0.5-2.6 0.1l-8.6-5c-0.7-0.4-0.6-1.1 0.1-1.5l8-4.7c0.8-0.4 1.9-0.4 2.6 0l8.6 4.9c0.7 0.4 0.7 1.1-0.1 1.5z"/>
										<path id="&lt;Path&gt;" class="s3" d="m477.7 263.7l-8 4.7c-0.8 0.4-2 0.4-2.7 0l-8.5-4.9c-0.7-0.4-0.7-1.1 0.1-1.5l8-4.7c0.7-0.5 1.9-0.5 2.6-0.1l8.6 5c0.7 0.4 0.6 1-0.1 1.5z"/>
										<path id="&lt;Path&gt;" class="s3" d="m490.9 271.3l-8 4.7c-0.7 0.5-1.9 0.5-2.6 0.1l-8.6-5c-0.7-0.4-0.6-1 0.1-1.5l8-4.7c0.8-0.4 2-0.4 2.6 0l8.6 4.9c0.7 0.4 0.7 1.1-0.1 1.5z"/>
										<path id="&lt;Path&gt;" class="s3" d="m504.2 279l-8 4.7c-0.8 0.4-1.9 0.4-2.6 0l-8.6-4.9c-0.7-0.4-0.7-1.1 0.1-1.5l8-4.7c0.8-0.4 1.9-0.5 2.6-0.1l8.6 5c0.7 0.4 0.6 1.1-0.1 1.5z"/>
										<path id="&lt;Path&gt;" class="s3" d="m517.4 286.7l-8 4.6c-0.7 0.5-1.9 0.5-2.6 0.1l-8.6-5c-0.6-0.4-0.6-1 0.2-1.5l8-4.6c0.7-0.5 1.9-0.5 2.6-0.1l8.6 4.9c0.6 0.4 0.6 1.1-0.2 1.6z"/>
										<path id="&lt;Path&gt;" class="s3" d="m530.7 294.3l-8 4.7c-0.8 0.4-1.9 0.5-2.6 0.1l-8.6-5c-0.7-0.4-0.6-1.1 0.1-1.5l8-4.7c0.8-0.4 1.9-0.5 2.6-0.1l8.6 5c0.7 0.4 0.7 1.1-0.1 1.5z"/>
										<path id="&lt;Path&gt;" class="s3" d="m544 302l-8 4.6c-0.8 0.5-2 0.5-2.6 0.1l-8.6-4.9c-0.7-0.4-0.7-1.1 0.1-1.6l8-4.6c0.7-0.5 1.9-0.5 2.6-0.1l8.6 5c0.7 0.3 0.6 1-0.1 1.5z"/>
										<path id="&lt;Path&gt;" class="s3" d="m557.2 309.6l-8 4.7c-0.7 0.4-1.9 0.5-2.6 0.1l-8.6-5c-0.7-0.4-0.6-1.1 0.1-1.5l8-4.7c0.8-0.4 2-0.4 2.7 0l8.5 4.9c0.7 0.4 0.7 1.1-0.1 1.5z"/>
										<path id="&lt;Path&gt;" class="s3" d="m570.5 317.3l-8 4.7c-0.8 0.4-1.9 0.4-2.6 0l-8.6-4.9c-0.7-0.4-0.7-1.1 0.1-1.5l8-4.7c0.8-0.5 1.9-0.5 2.6-0.1l8.6 5c0.7 0.4 0.6 1-0.1 1.5z"/>
										<path id="&lt;Path&gt;" class="s3" d="m594.1 330.9l-8 4.7c-0.8 0.4-2 0.4-2.7 0l-18.7-10.8c-0.7-0.4-0.6-1.1 0.1-1.5l8-4.7c0.8-0.4 1.9-0.4 2.6 0l18.8 10.8c0.7 0.4 0.6 1.1-0.1 1.5z"/>
										<path id="&lt;Path&gt;" class="s3" d="m569.8 345.1l-8.1 4.7c-0.7 0.4-1.9 0.4-2.6 0l-15.8-9.1c-0.7-0.4-0.6-1.1 0.1-1.5l8-4.7c0.8-0.4 2-0.5 2.7-0.1l15.8 9.2c0.7 0.4 0.6 1.1-0.1 1.5z"/>
										<path id="&lt;Path&gt;" class="s3" d="m462.6 269.1l-8.1 4.7c-0.7 0.4-1.9 0.4-2.6 0l-8.5-4.9c-0.7-0.4-0.7-1.1 0.1-1.5l8-4.7c0.7-0.5 1.9-0.5 2.6-0.1l8.6 5c0.7 0.4 0.6 1-0.1 1.5z"/>
										<path id="&lt;Path&gt;" class="s3" d="m449 261.2l-8 4.7c-0.8 0.5-2 0.5-2.6 0.1l-8.6-5c-0.7-0.4-0.7-1 0.1-1.5l8-4.7c0.7-0.4 1.9-0.4 2.6 0l8.6 4.9c0.7 0.4 0.6 1.1-0.1 1.5z"/>
										<path id="&lt;Path&gt;" class="s3" d="m435.4 253.4l-8 4.7c-0.8 0.4-1.9 0.4-2.6 0l-8.6-4.9c-0.7-0.4-0.7-1.1 0.1-1.5l8-4.7c0.7-0.4 1.9-0.5 2.6-0.1l8.6 5c0.7 0.4 0.6 1.1-0.1 1.5z"/>
										<path id="&lt;Path&gt;" class="s3" d="m421.8 245.5l-8 4.7c-0.8 0.5-1.9 0.5-2.6 0.1l-8.6-5c-0.7-0.4-0.7-1 0.1-1.5l8-4.7c0.8-0.4 1.9-0.4 2.6 0l8.6 4.9c0.7 0.4 0.6 1.1-0.1 1.5z"/>
										<path id="&lt;Path&gt;" class="s3" d="m475.8 276.7l-8 4.7c-0.7 0.5-1.9 0.5-2.6 0.1l-8.6-5c-0.7-0.4-0.6-1 0.1-1.5l8-4.7c0.8-0.4 2-0.4 2.6 0l8.6 4.9c0.7 0.4 0.7 1.1-0.1 1.5z"/>
										<path id="&lt;Path&gt;" class="s3" d="m489.1 284.4l-8 4.7c-0.8 0.4-1.9 0.4-2.6 0l-8.6-4.9c-0.7-0.4-0.7-1.1 0.1-1.5l8-4.7c0.7-0.4 1.9-0.5 2.6-0.1l8.6 5c0.7 0.4 0.6 1.1-0.1 1.5z"/>
										<path id="&lt;Path&gt;" class="s3" d="m502.3 292.1l-8 4.6c-0.7 0.5-1.9 0.5-2.6 0.1l-8.6-5c-0.6-0.4-0.6-1 0.1-1.5l8.1-4.6c0.7-0.5 1.9-0.5 2.6-0.1l8.6 4.9c0.6 0.4 0.6 1.1-0.2 1.6z"/>
										<path id="&lt;Path&gt;" class="s3" d="m515.6 299.7l-8 4.7c-0.8 0.4-1.9 0.5-2.6 0.1l-8.6-5c-0.7-0.4-0.6-1.1 0.1-1.5l8-4.7c0.8-0.4 1.9-0.5 2.6-0.1l8.6 5c0.7 0.4 0.7 1.1-0.1 1.5z"/>
										<path id="&lt;Path&gt;" class="s3" d="m528.9 307.4l-8 4.6c-0.8 0.5-2 0.5-2.7 0.1l-8.5-4.9c-0.7-0.4-0.7-1.1 0.1-1.6l8-4.6c0.7-0.5 1.9-0.5 2.6-0.1l8.6 5c0.7 0.3 0.6 1-0.1 1.5z"/>
										<path id="&lt;Path&gt;" class="s3" d="m542.1 315l-8 4.7c-0.7 0.4-1.9 0.5-2.6 0.1l-8.6-5c-0.7-0.4-0.6-1.1 0.1-1.5l8-4.7c0.8-0.4 2-0.4 2.6 0l8.6 4.9c0.7 0.4 0.7 1.1-0.1 1.5z"/>
										<path id="&lt;Path&gt;" class="s3" d="m555.4 322.7l-8 4.7c-0.8 0.4-1.9 0.4-2.6 0l-8.6-4.9c-0.7-0.4-0.7-1.1 0.1-1.5l8-4.7c0.8-0.5 1.9-0.5 2.6-0.1l8.6 5c0.7 0.4 0.6 1-0.1 1.5z"/>
										<path id="&lt;Path&gt;" class="s3" d="m568.6 330.3l-8 4.7c-0.7 0.5-1.9 0.5-2.6 0.1l-8.6-5c-0.6-0.4-0.6-1 0.2-1.5l8-4.7c0.7-0.4 1.9-0.4 2.6 0l8.6 4.9c0.6 0.4 0.6 1.1-0.2 1.5z"/>
										<path id="&lt;Path&gt;" class="s3" d="m581.9 338l-8 4.7c-0.8 0.4-1.9 0.4-2.6 0l-8.6-4.9c-0.7-0.4-0.6-1.1 0.1-1.5l8-4.7c0.8-0.4 1.9-0.5 2.6-0.1l8.6 5c0.7 0.4 0.7 1.1-0.1 1.5z"/>
										<path id="&lt;Path&gt;" class="s3" d="m430.5 264.7l-8 4.7c-0.7 0.4-1.9 0.5-2.6 0.1l-8.6-5c-0.7-0.4-0.6-1.1 0.1-1.5l8-4.7c0.8-0.4 1.9-0.5 2.6-0.1l8.6 5c0.7 0.4 0.7 1.1-0.1 1.5z"/>
										<path id="&lt;Path&gt;" class="s3" d="m417.3 257.1l-8 4.7c-0.7 0.4-1.9 0.4-2.6 0l-8.6-4.9c-0.7-0.4-0.6-1.1 0.1-1.5l8-4.7c0.8-0.5 2-0.5 2.6-0.1l8.6 5c0.7 0.4 0.7 1-0.1 1.5z"/>
										<path id="&lt;Path&gt;" class="s3" d="m404.1 249.5l-8 4.6c-0.7 0.5-1.9 0.5-2.6 0.1l-8.6-4.9c-0.7-0.4-0.6-1.1 0.1-1.6l8-4.6c0.8-0.5 2-0.5 2.6-0.1l8.6 5c0.7 0.3 0.7 1-0.1 1.5z"/>
										<path id="&lt;Path&gt;" class="s3" d="m390.9 241.8l-8 4.7c-0.7 0.5-1.9 0.5-2.6 0.1l-8.6-5c-0.7-0.4-0.6-1 0.1-1.5l8-4.7c0.8-0.4 2-0.4 2.7 0l8.5 4.9c0.7 0.4 0.7 1.1-0.1 1.5z"/>
										<path id="&lt;Path&gt;" class="s3" d="m378.2 249.3l-2.7 1.6c-0.7 0.4-1.9 0.4-2.6 0l-8.6-4.9c-0.7-0.4-0.6-1.1 0.1-1.5l2.7-1.6c0.7-0.4 1.9-0.5 2.6-0.1l8.6 5c0.7 0.4 0.6 1.1-0.1 1.5z"/>
										<path id="&lt;Path&gt;" class="s3" d="m395.4 259.3l-2.7 1.5c-0.7 0.4-1.9 0.5-2.6 0.1l-8.6-5c-0.7-0.4-0.6-1.1 0.1-1.5l2.7-1.5c0.7-0.5 1.9-0.5 2.6-0.1l8.6 4.9c0.7 0.4 0.6 1.1-0.1 1.6z"/>
										<path id="&lt;Path&gt;" class="s3" d="m408.5 266.8l-2.6 1.6c-0.8 0.4-2 0.5-2.6 0.1l-8.6-5c-0.7-0.4-0.7-1.1 0.1-1.5l2.6-1.6c0.8-0.4 1.9-0.4 2.6 0l8.6 4.9c0.7 0.4 0.7 1.1-0.1 1.5z"/>
										<path id="&lt;Path&gt;" class="s3" d="m421.7 274.4l-2.7 1.6c-0.7 0.4-1.9 0.4-2.6 0l-8.6-4.9c-0.7-0.4-0.6-1.1 0.1-1.5l2.7-1.6c0.7-0.4 1.9-0.4 2.6 0l8.6 4.9c0.7 0.4 0.6 1.1-0.1 1.5z"/>
										<path id="&lt;Path&gt;" class="s3" d="m434.8 282l-2.7 1.6c-0.7 0.4-1.9 0.4-2.6 0l-8.5-4.9c-0.7-0.4-0.7-1.1 0.1-1.5l2.6-1.6c0.8-0.4 1.9-0.5 2.6-0.1l8.6 5c0.7 0.4 0.6 1.1-0.1 1.5z"/>
										<path id="&lt;Path&gt;" class="s3" d="m508.2 324.4l-2.7 1.5c-0.7 0.5-1.9 0.5-2.6 0.1l-8.6-5c-0.7-0.4-0.6-1 0.1-1.5l2.7-1.5c0.7-0.5 1.9-0.5 2.6-0.1l8.6 5c0.7 0.3 0.6 1-0.1 1.5z"/>
										<path id="&lt;Path&gt;" class="s3" d="m521.3 332l-2.7 1.5c-0.7 0.4-1.9 0.5-2.6 0.1l-8.5-5c-0.7-0.4-0.7-1.1 0.1-1.5l2.6-1.5c0.8-0.5 1.9-0.5 2.6-0.1l8.6 4.9c0.7 0.4 0.6 1.1-0.1 1.6z"/>
										<path id="&lt;Path&gt;" class="s3" d="m534.4 339.5l-2.6 1.6c-0.8 0.4-1.9 0.5-2.6 0.1l-8.6-5c-0.7-0.4-0.6-1.1 0.1-1.5l2.6-1.6c0.8-0.4 2-0.4 2.7 0l8.5 4.9c0.7 0.4 0.7 1.1-0.1 1.5z"/>
										<path id="&lt;Path&gt;" class="s3" d="m547.6 347.1l-2.7 1.6c-0.7 0.4-1.9 0.4-2.6 0l-8.6-4.9c-0.7-0.4-0.6-1.1 0.1-1.5l2.7-1.6c0.7-0.4 1.9-0.4 2.6 0l8.6 4.9c0.7 0.4 0.6 1.1-0.1 1.5z"/>
										<path id="&lt;Path&gt;" class="s3" d="m443.8 272.4l-8 4.6c-0.8 0.5-2 0.5-2.6 0.1l-8.6-4.9c-0.7-0.4-0.7-1.1 0.1-1.6l8-4.6c0.7-0.5 1.9-0.5 2.6-0.1l8.6 4.9c0.7 0.4 0.6 1.1-0.1 1.6z"/>
										<path id="&lt;Path&gt;" class="s3" d="m457 280l-8 4.7c-0.7 0.4-1.9 0.5-2.6 0.1l-8.6-5c-0.7-0.4-0.6-1.1 0.1-1.5l8.1-4.7c0.7-0.4 1.9-0.5 2.6-0.1l8.5 5c0.7 0.4 0.7 1.1-0.1 1.5z"/>
										<path id="&lt;Path&gt;" class="s3" d="m470.3 287.7l-8 4.7c-0.8 0.4-1.9 0.4-2.6 0l-8.6-4.9c-0.7-0.4-0.6-1.1 0.1-1.5l8-4.7c0.8-0.5 1.9-0.5 2.6-0.1l8.6 5c0.7 0.4 0.6 1-0.1 1.5z"/>
										<path id="&lt;Path&gt;" class="s3" d="m483.6 295.3l-8.1 4.7c-0.7 0.4-1.9 0.5-2.6 0.1l-8.5-5c-0.7-0.4-0.7-1.1 0.1-1.5l8-4.7c0.7-0.4 1.9-0.4 2.6 0l8.6 4.9c0.7 0.4 0.6 1.1-0.1 1.5z"/>
										<path id="&lt;Path&gt;" class="s3" d="m496.8 303l-8 4.7c-0.7 0.4-1.9 0.4-2.6 0l-8.6-4.9c-0.7-0.4-0.6-1.1 0.1-1.5l8-4.7c0.8-0.5 2-0.5 2.6-0.1l8.6 5c0.7 0.4 0.7 1-0.1 1.5z"/>
										<path id="&lt;Path&gt;" class="s3" d="m510.1 310.6l-8 4.7c-0.8 0.5-1.9 0.5-2.6 0.1l-8.6-5c-0.7-0.4-0.7-1 0.1-1.5l8-4.7c0.7-0.4 1.9-0.4 2.6 0l8.6 4.9c0.7 0.4 0.6 1.1-0.1 1.5z"/>
										<path id="&lt;Path&gt;" class="s3" d="m523.3 318.3l-8 4.7c-0.7 0.4-1.9 0.4-2.6 0l-8.6-4.9c-0.7-0.4-0.6-1.1 0.1-1.5l8.1-4.7c0.7-0.4 1.9-0.5 2.6-0.1l8.6 5c0.6 0.4 0.6 1.1-0.2 1.5z"/>
										<path id="&lt;Path&gt;" class="s3" d="m536.6 326l-8 4.6c-0.8 0.5-1.9 0.5-2.6 0.1l-8.6-5c-0.7-0.4-0.6-1 0.1-1.5l8-4.6c0.8-0.5 1.9-0.5 2.6-0.1l8.6 4.9c0.7 0.4 0.7 1.1-0.1 1.6z"/>
										<path id="&lt;Path&gt;" class="s3" d="m549.9 333.6l-8 4.7c-0.8 0.4-2 0.5-2.7 0.1l-8.5-5c-0.7-0.4-0.7-1.1 0.1-1.5l8-4.7c0.7-0.4 1.9-0.5 2.6-0.1l8.6 5c0.7 0.4 0.6 1.1-0.1 1.5z"/>
										<path id="&lt;Path&gt;" class="s3" d="m443.2 229.6l-8.1 4.7c-0.7 0.5-1.9 0.5-2.6 0.1l-25.3-14.6c-0.6-0.4-0.6-1.1 0.2-1.5l8-4.7c0.7-0.4 1.9-0.5 2.6-0.1l25.3 14.6c0.6 0.4 0.6 1.1-0.1 1.5z"/>
										<path id="&lt;Path&gt;" class="s3" d="m606.1 323.7l-8 4.7c-0.8 0.4-2 0.4-2.7 0.1l-25.2-14.6c-0.7-0.4-0.7-1.1 0.1-1.6l8-4.6c0.7-0.5 1.9-0.5 2.6-0.1l25.3 14.6c0.7 0.4 0.6 1.1-0.1 1.5z"/>
										<path id="&lt;Path&gt;" class="s3" d="m581.5 293.5l-9.6 5.6c-0.7 0.4-1.9 0.4-2.6 0l-8.6-4.9c-0.7-0.4-0.6-1.1 0.1-1.5l9.6-5.6c0.7-0.5 1.9-0.5 2.6-0.1l8.6 5c0.7 0.4 0.6 1-0.1 1.5z"/>
										<path id="&lt;Path&gt;" class="s3" d="m485.2 237.9l-9.6 5.6c-0.7 0.4-1.9 0.4-2.6 0l-13.7-7.9c-0.7-0.4-0.7-1.1 0.1-1.5l9.5-5.6c0.8-0.4 2-0.5 2.6-0.1l13.8 8c0.7 0.4 0.6 1-0.1 1.5z"/>
										<path id="&lt;Path&gt;" class="s3" d="m568.7 286.1l-9.6 5.6c-0.7 0.4-1.9 0.4-2.6 0.1l-13.7-8c-0.7-0.4-0.6-1.1 0.1-1.5l9.6-5.6c0.7-0.4 1.9-0.4 2.6 0l13.7 7.9c0.7 0.4 0.6 1.1-0.1 1.5z"/>
										<path id="&lt;Path&gt;" class="s3" d="m504.3 248.9l-9.5 5.6c-0.8 0.4-2 0.5-2.6 0.1l-13.8-8c-0.7-0.4-0.6-1 0.1-1.5l9.6-5.5c0.7-0.5 1.9-0.5 2.6-0.1l13.7 7.9c0.7 0.4 0.7 1.1-0.1 1.5z"/>
										<path id="&lt;Path&gt;" class="s3" d="m490.8 239.5l59.7 34.5c0.7 0.4 0.8 1.1 0.1 1.5l-9.8 5.7c-0.7 0.4-1.8 0.4-2.6 0l-59.7-34.5z"/>
										<path id="&lt;Path&gt;" class="s3" d="m606.1 311.9l3.9-2.2c0.6-0.4 1.6-0.4 2.1-0.1l9.6 5.5c0.6 0.4 0.5 0.9-0.1 1.3l-3.9 2.2c-0.6 0.4-1.6 0.4-2.1 0.1l-9.6-5.5c-0.6-0.3-0.5-0.9 0.1-1.3z"/>
										<path id="&lt;Path&gt;" class="s3" d="m592.7 304.2l3.9-2.3c0.6-0.3 1.6-0.3 2.2 0l9.5 5.5c0.6 0.3 0.6 0.9-0.1 1.2l-3.9 2.3c-0.6 0.4-1.5 0.4-2.1 0.1l-9.6-5.5c-0.5-0.4-0.5-0.9 0.1-1.3z"/>
										<path id="&lt;Path&gt;" class="s3" d="m579.5 296.6l3.9-2.3c0.6-0.4 1.5-0.4 2.1-0.1l9.6 5.6c0.5 0.3 0.5 0.8-0.1 1.2l-3.9 2.3c-0.6 0.3-1.6 0.4-2.2 0l-9.5-5.5c-0.6-0.3-0.6-0.9 0.1-1.2z"/>
										<path id="&lt;Path&gt;" class="s3" d="m585.8 308.3l3.9-2.3c0.6-0.4 1.6-0.4 2.2-0.1l9.5 5.5c0.6 0.4 0.6 0.9-0.1 1.3l-3.9 2.3c-0.6 0.3-1.5 0.3-2.1 0l-9.6-5.5c-0.5-0.3-0.5-0.9 0.1-1.2z"/>
									</g>
								</g>
							</g>
						</g>
						<g id="&lt;Group&gt;" style="opacity: .8">
							<path id="&lt;Path&gt;" class="s3" d="m253.5 317.1l-8.5-4.9c-0.7-0.4-0.6-1.1 0.1-1.5l10.1-5.8c0.8-0.5 2-0.5 2.6-0.2l8.6 5c0.6 0.4 0.5 1-0.2 1.5l-10.1 5.8c-0.8 0.4-2 0.5-2.6 0.1z"/>
							<path id="&lt;Path&gt;" class="s3" d="m266.6 324.7l-8.5-4.9c-0.7-0.4-0.6-1.1 0.2-1.6l10-5.8c0.8-0.4 2-0.5 2.7-0.1l8.5 4.9c0.7 0.4 0.6 1.1-0.2 1.6l-10 5.8c-0.8 0.4-2 0.5-2.7 0.1z"/>
							<path id="&lt;Path&gt;" class="s3" d="m279.7 332.3l-8.5-4.9c-0.7-0.4-0.6-1.1 0.2-1.6l10-5.8c0.8-0.4 2-0.5 2.7-0.1l8.5 4.9c0.7 0.4 0.6 1.1-0.2 1.6l-10 5.8c-0.8 0.4-2 0.5-2.7 0.1z"/>
							<path id="&lt;Path&gt;" class="s3" d="m297.9 326l-8.5-4.9c-0.7-0.4-0.6-1.1 0.2-1.5l8.4-4.9c0.8-0.5 2-0.5 2.7-0.1l8.5 4.9c0.7 0.4 0.6 1.1-0.2 1.5l-8.4 4.9c-0.8 0.5-2 0.5-2.7 0.1z"/>
							<path id="&lt;Path&gt;" class="s3" d="m311 333.6l-8.5-4.9c-0.7-0.4-0.6-1.1 0.2-1.6l8.4-4.8c0.8-0.5 2-0.5 2.7-0.1l8.5 4.9c0.7 0.4 0.6 1.1-0.2 1.5l-8.4 4.9c-0.8 0.4-2 0.5-2.7 0.1z"/>
							<path id="&lt;Path&gt;" class="s3" d="m324.2 341.2l-8.5-4.9c-0.7-0.4-0.6-1.1 0.1-1.6l8.5-4.8c0.8-0.5 1.9-0.5 2.6-0.2l8.5 5c0.7 0.4 0.6 1-0.2 1.5l-8.4 4.9c-0.8 0.4-2 0.5-2.6 0.1z"/>
							<path id="&lt;Path&gt;" class="s3" d="m337.3 348.8l-8.5-5c-0.7-0.4-0.6-1 0.2-1.5l8.4-4.9c0.8-0.4 2-0.5 2.7-0.1l8.5 4.9c0.7 0.4 0.6 1.1-0.2 1.6l-8.4 4.8c-0.8 0.5-2 0.5-2.7 0.2z"/>
							<path id="&lt;Path&gt;" class="s3" d="m350.4 356.3l-8.5-4.9c-0.7-0.4-0.6-1.1 0.2-1.5l8.4-4.9c0.8-0.4 2-0.5 2.7-0.1l8.5 4.9c0.7 0.4 0.6 1.1-0.2 1.6l-8.4 4.8c-0.8 0.5-2 0.5-2.7 0.1z"/>
							<path id="&lt;Path&gt;" class="s3" d="m363.6 363.9l-8.5-4.9c-0.7-0.4-0.6-1.1 0.1-1.5l8.5-4.9c0.8-0.5 1.9-0.5 2.6-0.1l8.5 4.9c0.7 0.4 0.6 1.1-0.2 1.5l-8.4 4.9c-0.8 0.5-2 0.5-2.6 0.1z"/>
							<path id="&lt;Path&gt;" class="s3" d="m376.7 371.5l-8.5-4.9c-0.7-0.4-0.6-1.1 0.2-1.5l8.4-4.9c0.8-0.5 2-0.5 2.7-0.1l8.5 4.9c0.7 0.4 0.6 1.1-0.2 1.5l-8.4 4.9c-0.8 0.4-2 0.5-2.7 0.1z"/>
							<path id="&lt;Path&gt;" class="s3" d="m389.8 379.1l-8.5-4.9c-0.7-0.4-0.6-1.1 0.2-1.6l8.4-4.8c0.8-0.5 2-0.5 2.7-0.1l8.5 4.9c0.7 0.4 0.6 1.1-0.2 1.5l-8.4 4.9c-0.8 0.4-2 0.5-2.7 0.1z"/>
							<path id="&lt;Path&gt;" class="s3" d="m403 386.7l-8.6-4.9c-0.6-0.4-0.5-1.1 0.2-1.6l8.5-4.8c0.8-0.5 1.9-0.6 2.6-0.2l8.5 5c0.7 0.3 0.6 1-0.2 1.5l-8.4 4.9c-0.8 0.4-2 0.5-2.6 0.1z"/>
							<path id="&lt;Path&gt;" class="s3" d="m416.1 394.2l-8.5-4.9c-0.7-0.4-0.6-1 0.2-1.5l8.4-4.9c0.8-0.4 2-0.5 2.7-0.1l8.5 4.9c0.7 0.4 0.6 1.1-0.2 1.6l-8.4 4.8c-0.8 0.5-2 0.5-2.7 0.1z"/>
							<path id="&lt;Path&gt;" class="s3" d="m317.2 322.4l-8.5-4.9c-0.6-0.4-0.6-1.1 0.2-1.5l8.5-4.9c0.7-0.5 1.9-0.5 2.6-0.1l8.5 4.9c0.7 0.4 0.6 1.1-0.2 1.5l-8.4 4.9c-0.8 0.5-2 0.5-2.7 0.1z"/>
							<path id="&lt;Path&gt;" class="s3" d="m303.9 314.7l-8.5-4.9c-0.7-0.4-0.6-1.1 0.2-1.5l8.4-4.9c0.8-0.4 2-0.5 2.7-0.1l8.5 4.9c0.7 0.4 0.6 1.1-0.2 1.5l-8.4 4.9c-0.8 0.5-2 0.5-2.7 0.1z"/>
							<path id="&lt;Path&gt;" class="s3" d="m290.6 307l-18.4-10.6c-0.6-0.4-0.6-1 0.2-1.5l8.5-4.9c0.7-0.4 1.9-0.5 2.6-0.1l18.3 10.6c0.7 0.4 0.6 1.1-0.2 1.5l-8.4 4.9c-0.8 0.5-2 0.5-2.6 0.1z"/>
							<path id="&lt;Path&gt;" class="s3" d="m299.9 297.6l-14.9-8.5c-0.7-0.4-0.6-1.1 0.2-1.6l8.4-4.8c0.8-0.5 2-0.6 2.7-0.2l14.9 8.6c0.7 0.4 0.6 1.1-0.2 1.6l-8.4 4.8c-0.8 0.5-2 0.5-2.7 0.1z"/>
							<path id="&lt;Path&gt;" class="s3" d="m330.4 330l-8.5-4.9c-0.7-0.4-0.6-1.1 0.2-1.5l8.4-4.9c0.8-0.5 2-0.5 2.6-0.1l8.6 4.9c0.6 0.4 0.6 1.1-0.2 1.5l-8.5 4.9c-0.8 0.4-1.9 0.5-2.6 0.1z"/>
							<path id="&lt;Path&gt;" class="s3" d="m343.5 337.6l-8.5-4.9c-0.7-0.4-0.6-1.1 0.2-1.6l8.4-4.8c0.8-0.5 2-0.5 2.7-0.1l8.5 4.9c0.7 0.4 0.6 1.1-0.2 1.5l-8.4 4.9c-0.8 0.4-2 0.5-2.7 0.1z"/>
							<path id="&lt;Path&gt;" class="s3" d="m356.6 345.2l-8.5-4.9c-0.6-0.4-0.6-1.1 0.2-1.6l8.5-4.8c0.7-0.5 1.9-0.6 2.6-0.2l8.5 4.9c0.7 0.4 0.6 1.1-0.2 1.6l-8.4 4.9c-0.8 0.4-2 0.5-2.7 0.1z"/>
							<path id="&lt;Path&gt;" class="s3" d="m369.8 352.7l-8.5-4.9c-0.7-0.4-0.6-1 0.2-1.5l8.4-4.9c0.8-0.4 2-0.5 2.6-0.1l8.6 4.9c0.6 0.4 0.6 1.1-0.2 1.6l-8.5 4.8c-0.8 0.5-1.9 0.5-2.6 0.1z"/>
							<path id="&lt;Path&gt;" class="s3" d="m382.9 360.3l-8.5-4.9c-0.7-0.4-0.6-1.1 0.2-1.5l8.4-4.9c0.8-0.4 2-0.5 2.7-0.1l8.5 4.9c0.7 0.4 0.6 1.1-0.2 1.6l-8.4 4.8c-0.8 0.5-2 0.5-2.7 0.1z"/>
							<path id="&lt;Path&gt;" class="s3" d="m396 367.9l-8.5-4.9c-0.6-0.4-0.6-1.1 0.2-1.5l8.5-4.9c0.7-0.5 1.9-0.5 2.6-0.1l8.5 4.9c0.7 0.4 0.6 1.1-0.2 1.5l-8.4 4.9c-0.8 0.5-2 0.5-2.7 0.1z"/>
							<path id="&lt;Path&gt;" class="s3" d="m409.2 375.5l-8.5-4.9c-0.7-0.4-0.6-1.1 0.2-1.6l8.4-4.8c0.8-0.5 2-0.5 2.6-0.1l8.6 4.9c0.6 0.4 0.6 1.1-0.2 1.5l-8.5 4.9c-0.8 0.4-1.9 0.5-2.6 0.1z"/>
							<path id="&lt;Path&gt;" class="s3" d="m422.3 383.1l-8.5-4.9c-0.7-0.4-0.6-1.1 0.2-1.6l8.4-4.8c0.8-0.5 2-0.5 2.7-0.1l8.5 4.9c0.7 0.4 0.6 1-0.2 1.5l-8.4 4.9c-0.8 0.4-2 0.5-2.7 0.1z"/>
							<path id="&lt;Path&gt;" class="s3" d="m435.4 390.7l-8.5-5c-0.6-0.3-0.6-1 0.2-1.5l8.5-4.9c0.7-0.4 1.9-0.5 2.6-0.1l8.5 4.9c0.7 0.4 0.6 1.1-0.2 1.6l-8.4 4.8c-0.8 0.5-2 0.6-2.7 0.2z"/>
							<path id="&lt;Path&gt;" class="s3" d="m458.8 404.1l-18.6-10.7c-0.7-0.4-0.6-1.1 0.2-1.5l8.4-4.9c0.8-0.4 2-0.5 2.7-0.1l18.6 10.7c0.7 0.4 0.6 1.1-0.2 1.6l-8.4 4.8c-0.8 0.5-2 0.5-2.7 0.1z"/>
							<path id="&lt;Path&gt;" class="s3" d="m484.4 389.4l-15.7-9.1c-0.7-0.4-0.6-1 0.2-1.5l8.4-4.9c0.8-0.4 2-0.5 2.7-0.1l15.6 9.1c0.7 0.4 0.6 1-0.2 1.5l-8.4 4.9c-0.8 0.4-2 0.5-2.6 0.1z"/>
							<path id="&lt;Path&gt;" class="s3" d="m353.4 328.5l-8.5-4.9c-0.7-0.4-0.6-1.1 0.2-1.5l8.4-4.9c0.8-0.5 2-0.5 2.6-0.1l8.6 4.9c0.6 0.4 0.6 1.1-0.2 1.5l-8.5 4.9c-0.8 0.5-1.9 0.5-2.6 0.1z"/>
							<path id="&lt;Path&gt;" class="s3" d="m339.9 320.7l-8.5-4.9c-0.7-0.4-0.6-1 0.2-1.5l8.4-4.9c0.8-0.4 2-0.5 2.7-0.1l8.5 4.9c0.7 0.4 0.6 1.1-0.2 1.6l-8.4 4.8c-0.8 0.5-2 0.5-2.7 0.1z"/>
							<path id="&lt;Path&gt;" class="s3" d="m326.5 313l-8.6-4.9c-0.6-0.4-0.5-1.1 0.2-1.6l8.5-4.8c0.8-0.5 1.9-0.5 2.6-0.2l8.5 5c0.7 0.4 0.6 1-0.2 1.5l-8.4 4.9c-0.8 0.4-2 0.5-2.6 0.1z"/>
							<path id="&lt;Path&gt;" class="s3" d="m313 305.2l-8.5-4.9c-0.7-0.4-0.6-1.1 0.2-1.5l8.4-4.9c0.8-0.5 2-0.5 2.7-0.1l8.5 4.9c0.7 0.4 0.6 1.1-0.2 1.5l-8.4 4.9c-0.8 0.4-2 0.5-2.7 0.1z"/>
							<path id="&lt;Path&gt;" class="s3" d="m366.5 336.1l-8.5-4.9c-0.7-0.4-0.6-1.1 0.2-1.6l8.4-4.8c0.8-0.5 2-0.5 2.7-0.1l8.5 4.9c0.7 0.4 0.6 1.1-0.2 1.5l-8.4 4.9c-0.8 0.4-2 0.5-2.7 0.1z"/>
							<path id="&lt;Path&gt;" class="s3" d="m379.6 343.7l-8.5-4.9c-0.6-0.4-0.6-1.1 0.2-1.6l8.5-4.8c0.7-0.5 1.9-0.5 2.6-0.1l8.5 4.9c0.7 0.4 0.6 1-0.2 1.5l-8.4 4.9c-0.8 0.4-2 0.5-2.7 0.1z"/>
							<path id="&lt;Path&gt;" class="s3" d="m392.8 351.3l-8.5-4.9c-0.7-0.4-0.6-1.1 0.2-1.6l8.4-4.9c0.8-0.4 2-0.5 2.6-0.1l8.6 4.9c0.6 0.4 0.6 1.1-0.2 1.6l-8.5 4.9c-0.8 0.4-1.9 0.5-2.6 0.1z"/>
							<path id="&lt;Path&gt;" class="s3" d="m405.9 358.8l-8.5-4.9c-0.7-0.4-0.6-1 0.2-1.5l8.4-4.9c0.8-0.4 2-0.5 2.7-0.1l8.5 4.9c0.7 0.4 0.6 1.1-0.2 1.6l-8.4 4.8c-0.8 0.5-2 0.5-2.7 0.1z"/>
							<path id="&lt;Path&gt;" class="s3" d="m419 366.4l-8.5-4.9c-0.6-0.4-0.6-1.1 0.2-1.5l8.5-4.9c0.7-0.4 1.9-0.5 2.6-0.1l8.5 4.9c0.7 0.4 0.6 1.1-0.2 1.6l-8.4 4.8c-0.8 0.5-2 0.5-2.7 0.1z"/>
							<path id="&lt;Path&gt;" class="s3" d="m432.2 374l-8.5-4.9c-0.7-0.4-0.6-1.1 0.2-1.5l8.4-4.9c0.8-0.5 2-0.5 2.6-0.1l8.6 4.9c0.6 0.4 0.5 1.1-0.2 1.5l-8.5 4.9c-0.8 0.5-1.9 0.5-2.6 0.1z"/>
							<path id="&lt;Path&gt;" class="s3" d="m445.3 381.6l-8.5-4.9c-0.7-0.4-0.6-1.1 0.2-1.6l8.4-4.8c0.8-0.5 2-0.5 2.7-0.1l8.5 4.9c0.7 0.4 0.6 1.1-0.2 1.5l-8.4 4.9c-0.8 0.4-2 0.5-2.7 0.1z"/>
							<path id="&lt;Path&gt;" class="s3" d="m458.4 389.2l-8.5-4.9c-0.6-0.4-0.6-1.1 0.2-1.6l8.5-4.8c0.7-0.5 1.9-0.5 2.6-0.1l8.5 4.9c0.7 0.4 0.6 1-0.2 1.5l-8.4 4.9c-0.8 0.4-2 0.5-2.7 0.1z"/>
							<path id="&lt;Path&gt;" class="s3" d="m471.6 396.8l-8.5-5c-0.7-0.3-0.6-1 0.2-1.5l8.4-4.9c0.8-0.4 2-0.5 2.6-0.1l8.6 4.9c0.6 0.4 0.5 1.1-0.2 1.6l-8.5 4.8c-0.8 0.5-1.9 0.6-2.6 0.2z"/>
							<path id="&lt;Path&gt;" class="s3" d="m346.5 309.8l-8.5-5c-0.7-0.3-0.6-1 0.1-1.5l8.5-4.9c0.8-0.4 2-0.5 2.6-0.1l8.5 4.9c0.7 0.4 0.6 1.1-0.2 1.6l-8.4 4.8c-0.8 0.5-2 0.6-2.6 0.2z"/>
							<path id="&lt;Path&gt;" class="s3" d="m333.4 302.2l-8.5-4.9c-0.7-0.4-0.6-1.1 0.2-1.5l8.4-4.9c0.8-0.5 2-0.5 2.7-0.1l8.5 4.9c0.7 0.4 0.6 1.1-0.2 1.5l-8.4 4.9c-0.8 0.5-2 0.5-2.7 0.1z"/>
							<path id="&lt;Path&gt;" class="s3" d="m320.3 294.7l-8.5-4.9c-0.7-0.4-0.6-1.1 0.2-1.6l8.4-4.8c0.8-0.5 2-0.5 2.7-0.2l8.5 5c0.7 0.4 0.6 1-0.2 1.5l-8.4 4.9c-0.8 0.4-2 0.5-2.7 0.1z"/>
							<path id="&lt;Path&gt;" class="s3" d="m307.3 287.1l-8.6-4.9c-0.6-0.4-0.5-1.1 0.2-1.5l8.5-4.9c0.8-0.4 1.9-0.5 2.6-0.1l8.5 4.9c0.7 0.4 0.6 1.1-0.2 1.6l-8.4 4.8c-0.8 0.5-2 0.5-2.6 0.1z"/>
							<path id="&lt;Path&gt;" class="s3" d="m320.7 279.4l-8.5-4.9c-0.7-0.4-0.6-1.1 0.2-1.6l2.8-1.6c0.8-0.4 1.9-0.5 2.6-0.1l8.5 4.9c0.7 0.4 0.6 1.1-0.2 1.5l-2.7 1.7c-0.8 0.4-2 0.5-2.7 0.1z"/>
							<path id="&lt;Path&gt;" class="s3" d="m337.7 289.2l-8.5-4.9c-0.6-0.4-0.6-1.1 0.2-1.5l2.8-1.6c0.8-0.5 2-0.5 2.7-0.2l8.5 5c0.7 0.4 0.6 1-0.2 1.5l-2.8 1.6c-0.8 0.5-2 0.5-2.7 0.1z"/>
							<path id="&lt;Path&gt;" class="s3" d="m350.8 296.7l-8.5-4.9c-0.7-0.4-0.6-1.1 0.1-1.5l2.8-1.6c0.8-0.5 2-0.5 2.7-0.1l8.5 4.9c0.7 0.4 0.6 1.1-0.2 1.5l-2.8 1.6c-0.8 0.5-2 0.5-2.6 0.1z"/>
							<path id="&lt;Path&gt;" class="s3" d="m363.8 304.2l-8.5-4.9c-0.7-0.4-0.6-1.1 0.2-1.5l2.7-1.6c0.8-0.5 2-0.5 2.7-0.1l8.5 4.9c0.7 0.4 0.6 1.1-0.2 1.5l-2.8 1.6c-0.8 0.5-1.9 0.5-2.6 0.1z"/>
							<path id="&lt;Path&gt;" class="s3" d="m376.8 311.8l-8.5-5c-0.7-0.4-0.6-1 0.2-1.5l2.8-1.6c0.7-0.5 1.9-0.5 2.6-0.1l8.5 4.9c0.7 0.4 0.6 1.1-0.2 1.5l-2.8 1.6c-0.7 0.5-1.9 0.5-2.6 0.2z"/>
							<path id="&lt;Path&gt;" class="s3" d="m449.4 353.7l-8.5-4.9c-0.7-0.4-0.6-1.1 0.2-1.5l2.8-1.7c0.8-0.4 2-0.5 2.7-0.1l8.5 4.9c0.7 0.4 0.6 1.1-0.2 1.6l-2.8 1.6c-0.8 0.4-2 0.5-2.7 0.1z"/>
							<path id="&lt;Path&gt;" class="s3" d="m462.4 361.2l-8.5-4.9c-0.6-0.4-0.6-1.1 0.2-1.5l2.8-1.6c0.8-0.5 2-0.5 2.7-0.2l8.5 5c0.7 0.3 0.6 1-0.2 1.5l-2.8 1.6c-0.8 0.5-2 0.5-2.7 0.1z"/>
							<path id="&lt;Path&gt;" class="s3" d="m475.5 368.7l-8.5-4.9c-0.7-0.4-0.6-1.1 0.2-1.5l2.7-1.6c0.8-0.5 2-0.5 2.7-0.1l8.5 4.9c0.7 0.4 0.6 1.1-0.2 1.5l-2.8 1.6c-0.8 0.5-2 0.5-2.6 0.1z"/>
							<path id="&lt;Path&gt;" class="s3" d="m488.5 376.2l-8.5-4.9c-0.7-0.4-0.6-1.1 0.2-1.5l2.7-1.6c0.8-0.5 2-0.5 2.7-0.1l8.5 4.9c0.7 0.4 0.6 1.1-0.2 1.5l-2.8 1.6c-0.7 0.5-1.9 0.5-2.6 0.1z"/>
							<path id="&lt;Path&gt;" class="s3" d="m359.6 317.3l-8.5-4.9c-0.7-0.4-0.6-1.1 0.2-1.5l8.4-4.9c0.8-0.4 2-0.5 2.7-0.1l8.5 4.9c0.7 0.4 0.6 1.1-0.2 1.6l-8.4 4.8c-0.8 0.5-2 0.5-2.7 0.1z"/>
							<path id="&lt;Path&gt;" class="s3" d="m372.7 324.9l-8.5-4.9c-0.7-0.4-0.6-1.1 0.2-1.5l8.4-4.9c0.8-0.4 2-0.5 2.7-0.1l8.5 4.9c0.7 0.4 0.6 1.1-0.2 1.5l-8.4 4.9c-0.8 0.5-2 0.5-2.7 0.1z"/>
							<path id="&lt;Path&gt;" class="s3" d="m385.9 332.5l-8.5-4.9c-0.7-0.4-0.6-1.1 0.1-1.5l8.5-4.9c0.8-0.5 2-0.5 2.6-0.1l8.5 4.9c0.7 0.4 0.6 1.1-0.2 1.5l-8.4 4.9c-0.8 0.5-2 0.5-2.6 0.1z"/>
							<path id="&lt;Path&gt;" class="s3" d="m399 340.1l-8.5-4.9c-0.7-0.4-0.6-1.1 0.2-1.6l8.4-4.8c0.8-0.5 2-0.5 2.7-0.1l8.5 4.9c0.7 0.4 0.6 1.1-0.2 1.5l-8.4 4.9c-0.8 0.4-2 0.5-2.7 0.1z"/>
							<path id="&lt;Path&gt;" class="s3" d="m412.1 347.7l-8.5-4.9c-0.7-0.4-0.6-1.1 0.2-1.6l8.4-4.8c0.8-0.5 2-0.5 2.7-0.2l8.5 5c0.7 0.4 0.6 1-0.2 1.5l-8.4 4.9c-0.8 0.4-2 0.5-2.7 0.1z"/>
							<path id="&lt;Path&gt;" class="s3" d="m425.3 355.3l-8.5-5c-0.7-0.3-0.6-1 0.1-1.5l8.5-4.9c0.8-0.4 2-0.5 2.6-0.1l8.5 4.9c0.7 0.4 0.6 1.1-0.2 1.6l-8.4 4.8c-0.8 0.5-2 0.5-2.6 0.2z"/>
							<path id="&lt;Path&gt;" class="s3" d="m438.4 362.8l-8.5-4.9c-0.7-0.4-0.6-1.1 0.2-1.5l8.4-4.9c0.8-0.4 2-0.5 2.7-0.1l8.5 4.9c0.7 0.4 0.6 1.1-0.2 1.6l-8.4 4.8c-0.8 0.5-2 0.5-2.7 0.1z"/>
							<path id="&lt;Path&gt;" class="s3" d="m451.5 370.4l-8.5-4.9c-0.7-0.4-0.6-1.1 0.2-1.5l8.4-4.9c0.8-0.4 2-0.5 2.7-0.1l8.5 4.9c0.7 0.4 0.6 1.1-0.2 1.5l-8.4 4.9c-0.8 0.5-2 0.5-2.7 0.1z"/>
							<path id="&lt;Path&gt;" class="s3" d="m464.7 378l-8.5-4.9c-0.7-0.4-0.6-1.1 0.1-1.5l8.5-4.9c0.8-0.5 1.9-0.5 2.6-0.1l8.5 4.9c0.7 0.4 0.6 1.1-0.2 1.5l-8.4 4.9c-0.8 0.4-2 0.5-2.6 0.1z"/>
							<path id="&lt;Path&gt;" class="s3" d="m284.5 318.3l-25-14.5c-0.7-0.4-0.6-1.1 0.1-1.5l8.5-4.9c0.8-0.4 2-0.5 2.6-0.1l25.1 14.5c0.7 0.4 0.6 1-0.2 1.5l-8.4 4.9c-0.8 0.4-2 0.5-2.7 0.1z"/>
							<path id="&lt;Path&gt;" class="s3" d="m445.8 411.4l-25-14.4c-0.7-0.4-0.6-1.1 0.2-1.6l8.4-4.8c0.8-0.5 2-0.5 2.7-0.1l25 14.4c0.7 0.4 0.6 1.1-0.2 1.6l-8.4 4.8c-0.8 0.5-2 0.5-2.7 0.1z"/>
							<path id="&lt;Path&gt;" class="s3" d="m393.3 397.9l-8.5-5c-0.7-0.3-0.6-1 0.2-1.5l10.1-5.8c0.7-0.4 1.9-0.5 2.6-0.1l8.5 4.9c0.7 0.4 0.6 1.1-0.2 1.6l-10 5.7c-0.8 0.5-2 0.6-2.7 0.2z"/>
							<path id="&lt;Path&gt;" class="s3" d="m298 342.8l-13.6-7.9c-0.7-0.4-0.6-1 0.1-1.5l10.1-5.8c0.8-0.4 2-0.5 2.6-0.1l13.6 7.8c0.7 0.4 0.6 1.1-0.1 1.6l-10.1 5.8c-0.8 0.4-2 0.5-2.6 0.1z"/>
							<path id="&lt;Path&gt;" class="s3" d="m380.7 390.6l-13.6-7.9c-0.7-0.4-0.6-1.1 0.2-1.5l10-5.8c0.8-0.5 2-0.5 2.7-0.1l13.6 7.8c0.6 0.4 0.6 1.1-0.2 1.5l-10.1 5.8c-0.8 0.5-1.9 0.5-2.6 0.2z"/>
							<path id="&lt;Path&gt;" class="s3" d="m316.9 353.7l-13.6-7.8c-0.7-0.4-0.6-1.1 0.2-1.6l10-5.8c0.8-0.4 2-0.5 2.7-0.1l13.6 7.9c0.7 0.4 0.6 1.1-0.2 1.5l-10 5.8c-0.8 0.5-2 0.5-2.7 0.1z"/>
							<path id="&lt;Path&gt;" class="s3" d="m316.3 338.5l59.1 34.1c0.8 0.5 0.8 1.1 0 1.6l-10.2 5.9c-0.8 0.4-1.9 0.4-2.7 0l-59.1-34.2z"/>
							<path id="&lt;Path&gt;" class="s3" d="m430 411.6l9.5 5.5c0.6 0.3 0.5 0.9-0.2 1.2l-4.1 2.4c-0.6 0.4-1.6 0.4-2.1 0.1l-9.5-5.5c-0.6-0.3-0.5-0.9 0.1-1.2l4.1-2.4c0.7-0.4 1.7-0.4 2.2-0.1z"/>
							<path id="&lt;Path&gt;" class="s3" d="m416.8 404l9.5 5.4c0.5 0.4 0.5 0.9-0.2 1.3l-4.1 2.4c-0.6 0.3-1.6 0.4-2.2 0.1l-9.5-5.5c-0.5-0.3-0.4-0.9 0.2-1.3l4.1-2.4c0.7-0.3 1.6-0.4 2.2 0z"/>
							<path id="&lt;Path&gt;" class="s3" d="m403.7 396.4l9.4 5.4c0.6 0.4 0.5 0.9-0.1 1.3l-4.1 2.4c-0.7 0.4-1.7 0.4-2.2 0.1l-9.5-5.5c-0.5-0.3-0.5-0.9 0.2-1.3l4.1-2.3c0.6-0.4 1.6-0.4 2.2-0.1z"/>
							<path id="&lt;Path&gt;" class="s3" d="m424 399.8l9.5 5.4c0.6 0.4 0.5 0.9-0.1 1.3l-4.1 2.4c-0.7 0.3-1.7 0.4-2.2 0.1l-9.5-5.5c-0.6-0.3-0.5-0.9 0.2-1.3l4.1-2.3c0.6-0.4 1.6-0.5 2.1-0.1z"/>
						</g>
					</g>
					<g id="&lt;Group&gt;">
						<path id="&lt;Compound Path&gt;" fill-rule="evenodd" class="s0" d="m558 195.4q-1 0-2-0.5c-2-1.2-3.2-3.8-2.7-5.9 0.2-1 0.8-1.7 1.6-2.1 1-0.4 2.1-0.3 3.2 0.3 2 1.2 3.2 3.8 2.8 5.9-0.3 1-0.9 1.7-1.7 2.1q-0.6 0.2-1.2 0.2zm-1.9-7.8q-0.4 0-0.8 0.1c-0.6 0.3-1 0.8-1.1 1.5-0.4 1.7 0.6 3.9 2.3 4.9 0.8 0.4 1.7 0.6 2.3 0.3 0.6-0.3 1-0.8 1.2-1.5 0.4-1.7-0.7-3.9-2.4-4.9q-0.8-0.4-1.5-0.4z"/>
						<path id="&lt;Compound Path&gt;" fill-rule="evenodd" class="s0" d="m568.9 201.7q-1 0-2-0.6c-2-1.1-3.3-3.8-2.8-5.8 0.2-1 0.8-1.8 1.7-2.2 0.9-0.4 2-0.2 3.1 0.4 2 1.1 3.3 3.8 2.8 5.8-0.2 1-0.8 1.8-1.7 2.1q-0.5 0.3-1.1 0.3zm-2-7.9q-0.4 0-0.8 0.2c-0.5 0.2-1 0.8-1.1 1.5-0.4 1.7 0.6 3.9 2.3 4.8 0.8 0.5 1.7 0.6 2.4 0.3 0.5-0.2 0.9-0.8 1.1-1.5 0.4-1.7-0.7-3.9-2.3-4.8q-0.8-0.5-1.6-0.5z"/>
						<path id="&lt;Path&gt;" class="s0" d="m582.1 205.5c-0.5 1.9-2.3 2.5-4.2 1.5-1.8-1.1-3-3.5-2.5-5.4 0.4-1.9 2.3-2.5 4.1-1.5 1.9 1.1 3 3.5 2.6 5.4z"/>
					</g>
					<path id="&lt;Path&gt;" class="s0" d="m374.4 86l-5.7-3.3 0.4-2.7 5.8 3.3z"/>
					<path id="&lt;Path&gt;" class="s0" d="m382.9 90.9l-5.8-3.4 0.4-2.7 5.8 3.4z"/>
					<path id="&lt;Path&gt;" class="s0" d="m366.1 81.2l-12.7-7.3 0.5-2.7 12.7 7.3z"/>
				</g>
				<g id="&lt;Group&gt;">
					<g id="&lt;Group&gt;">
						<path id="&lt;Path&gt;" class="s0" d="m367.7 131.7l-9.7-5.6 0.4-2.2 9.7 5.6z"/>
						<path id="&lt;Path&gt;" class="s0" d="m376 136.5l-4.9-2.8 0.4-2.2 4.9 2.8z"/>
						<path id="&lt;Path&gt;" class="s0" d="m369.7 138.6l-4.1-2.4 0.3-2.2 4.2 2.4z"/>
						<path id="&lt;Path&gt;" class="s0" d="m376.6 142.6l-4.8-2.8 0.3-2.2 4.9 2.8z"/>
						<path id="&lt;Path&gt;" class="s0" d="m383.7 152.5l-19-11 0.4-2.3 19 11z"/>
						<path id="&lt;Path&gt;" class="s0" d="m367.2 196.5l-19-11 0.3-2.3 19.1 11z"/>
						<path id="&lt;Path&gt;" class="s0" d="m374.5 200.7l-4.8-2.8 0.4-2.2 4.8 2.8z"/>
						<path id="&lt;Path&gt;" class="s0" d="m367.9 149.1l-4.1-2.4 0.4-2.2 4.1 2.4z"/>
						<path id="&lt;Path&gt;" class="s0" d="m374.8 153.1l-4.8-2.8 0.4-2.2 4.8 2.8z"/>
						<path id="&lt;Path&gt;" class="s0" d="m373.4 158l-10.5-6 0.4-2.2 10.5 6z"/>
						<path id="&lt;Path&gt;" class="s0" d="m380.4 162.1l-4.8-2.8 0.3-2.2 4.9 2.7z"/>
						<path id="&lt;Path&gt;" class="s0" d="m387.4 166.2l-4.8-2.8 0.4-2.3 4.8 2.8z"/>
						<path id="&lt;Path&gt;" class="s0" d="m398.8 172.7l-9.2-5.3 0.4-2.2 9.2 5.3z"/>
						<path id="&lt;Path&gt;" class="s0" d="m391.6 180.1l-4.9-2.8 0.4-2.3 4.8 2.8z"/>
						<path id="&lt;Path&gt;" class="s0" d="m402.9 186.6l-9.1-5.3 0.3-2.2 9.2 5.3z"/>
						<path id="&lt;Path&gt;" class="s0" d="m366 165.3l-4.8-2.8 0.3-2.2 4.9 2.8z"/>
						<path id="&lt;Path&gt;" class="s0" d="m373 169.4l-4.8-2.8 0.4-2.3 4.8 2.8z"/>
						<path id="&lt;Path&gt;" class="s0" d="m384.4 175.9l-9.2-5.3 0.4-2.2 9.2 5.3z"/>
						<path id="&lt;Path&gt;" class="s0" d="m399.3 178.8l-4.8-2.8 0.3-2.3 4.9 2.8z"/>
						<path id="&lt;Path&gt;" class="s0" d="m406.4 182.8l-4.9-2.8 0.4-2.2 4.8 2.8z"/>
						<path id="&lt;Path&gt;" class="s0" d="m417.7 189.4l-9.1-5.3 0.3-2.2 9.2 5.3z"/>
						<path id="&lt;Path&gt;" class="s0" d="m382.1 205.1l-4.8-2.8 0.4-2.3 4.8 2.8z"/>
						<path id="&lt;Path&gt;" class="s0" d="m393.5 211.6l-9.2-5.3 0.4-2.2 9.2 5.3z"/>
						<path id="&lt;Path&gt;" class="s0" d="m364.2 175.8l-4.8-2.8 0.4-2.2 4.8 2.8z"/>
						<path id="&lt;Path&gt;" class="s0" d="m375.6 182.4l-9.2-5.3 0.4-2.3 9.2 5.3z"/>
						<path id="&lt;Path&gt;" class="s0" d="m387.4 213.9l-4.8-2.8 0.3-2.3 4.9 2.8z"/>
						<path id="&lt;Path&gt;" class="s0" d="m398.8 220.4l-9.2-5.2 0.4-2.3 9.1 5.3z"/>
						<path id="&lt;Path&gt;" class="s0" d="m398.2 160.9l-4.8-2.8 0.3-2.3 4.9 2.8z"/>
						<path id="&lt;Path&gt;" class="s0" d="m390.9 156.6l-4.9-2.8 0.4-2.2 4.9 2.8z"/>
						<path id="&lt;Path&gt;" class="s0" d="m409.6 167.4l-9.2-5.3 0.4-2.2 9.2 5.3z"/>
						<path id="&lt;Path&gt;" class="s0" d="m366.4 159.8l-4.4-2.5 0.4-2.3 4.4 2.5z"/>
						<path id="&lt;Path&gt;" class="s0" d="m379.4 167.3l-10.7-6.2 0.4-2.2 10.7 6.1z"/>
						<path id="&lt;Path&gt;" class="s0" d="m392.3 174.7l-10.6-6.1 0.4-2.2 10.6 6.1z"/>
						<path id="&lt;Path&gt;" class="s0" d="m416.3 171.3l-4.4-2.5 0.4-2.3 4.4 2.6z"/>
						<path id="&lt;Path&gt;" class="s0" d="m429.3 178.8l-10.6-6.1 0.3-2.3 10.7 6.2z"/>
						<path id="&lt;Path&gt;" class="s0" d="m442.3 186.3l-10.7-6.2 0.4-2.2 10.6 6.1z"/>
						<path id="&lt;Path&gt;" class="s0" d="m371 173.9l-10.6-6.1 0.3-2.2 10.7 6.1z"/>
						<path id="&lt;Path&gt;" class="s0" d="m376.6 177.2l-3.3-1.9 0.4-2.2 3.3 1.8z"/>
						<path id="&lt;Path&gt;" class="s0" d="m382.2 180.4l-3.2-1.9 0.3-2.2 3.3 1.9z"/>
						<path id="&lt;Path&gt;" class="s0" d="m392.6 186.4l-8-4.6 0.3-2.3 8.1 4.7z"/>
						<path id="&lt;Path&gt;" class="s0" d="m404.2 175.9l-3.2-1.9 0.3-2.3 3.3 1.9z"/>
						<path id="&lt;Path&gt;" class="s0" d="m414.6 181.8l-8-4.6 0.4-2.2 8 4.6z"/>
						<path id="&lt;Path&gt;" class="s0" d="m416.8 183.1l-8-4.6 0.3-2.3 8.1 4.7z"/>
						<path id="&lt;Path&gt;" class="s0" d="m374 211.9l-10.4-6 0.3-2.3 10.5 6.1z"/>
						<path id="&lt;Path&gt;" class="s0" d="m381.1 216l-4.9-2.8 0.4-2.3 4.8 2.8z"/>
						<path id="&lt;Path&gt;" class="s0" d="m388.1 220l-4.8-2.8 0.3-2.2 4.9 2.8z"/>
						<path id="&lt;Path&gt;" class="s0" d="m399.5 226.6l-9.2-5.3 0.4-2.2 9.1 5.3z"/>
						<path id="&lt;Path&gt;" class="s0" d="m406.7 230.8l-4.8-2.8 0.4-2.2 4.8 2.8z"/>
						<path id="&lt;Path&gt;" class="s0" d="m418.1 237.4l-9.2-5.3 0.4-2.3 9.2 5.3z"/>
						<path id="&lt;Path&gt;" class="s0" d="m383.2 228.8l-4.8-2.8 0.4-2.3 4.8 2.8z"/>
						<path id="&lt;Path&gt;" class="s0" d="m394.6 235.3l-9.2-5.3 0.4-2.2 9.2 5.3z"/>
						<path id="&lt;Path&gt;" class="s0" d="m357.9 214.1l-4.8-2.8 0.3-2.2 4.9 2.8z"/>
						<path id="&lt;Path&gt;" class="s0" d="m365 218.2l-4.9-2.8 0.4-2.2 4.8 2.8z"/>
						<path id="&lt;Path&gt;" class="s0" d="m376.3 224.8l-9.1-5.3 0.3-2.3 9.2 5.3z"/>
						<path id="&lt;Path&gt;" class="s0" d="m367.1 213.7l-4.4-2.6 0.4-2.2 4.3 2.5z"/>
						<path id="&lt;Path&gt;" class="s0" d="m380 221.2l-10.6-6.2 0.4-2.2 10.6 6.1z"/>
						<path id="&lt;Path&gt;" class="s0" d="m393 228.6l-10.6-6.1 0.3-2.2 10.7 6.1z"/>
						<path id="&lt;Path&gt;" class="s0" d="m354.3 217.8l-10.6-6.1 0.4-2.2 10.6 6.1z"/>
						<path id="&lt;Path&gt;" class="s0" d="m359.9 221.1l-3.2-1.9 0.4-2.2 3.2 1.8z"/>
						<path id="&lt;Path&gt;" class="s0" d="m365.6 224.3l-3.3-1.9 0.4-2.2 3.2 1.9z"/>
						<path id="&lt;Path&gt;" class="s0" d="m375.9 230.3l-8-4.6 0.4-2.3 8 4.7z"/>
						<path id="&lt;Path&gt;" class="s0" d="m378.1 231.6l-8-4.7 0.4-2.2 8 4.6z"/>
						<path id="&lt;Path&gt;" class="s0" d="m359.1 197.6l-3.2-1.9 0.3-2.3 3.3 1.9z"/>
						<path id="&lt;Path&gt;" class="s0" d="m369.5 203.6l-8-4.7 0.4-2.2 8 4.6z"/>
						<path id="&lt;Path&gt;" class="s0" d="m380.1 209.7l-8-4.7 0.4-2.2 8 4.6z"/>
						<path id="&lt;Path&gt;" class="s0" d="m421 244.8l-4.9-2.8 0.4-2.2 4.9 2.8z"/>
						<path id="&lt;Path&gt;" class="s0" d="m432.4 251.4l-9.2-5.3 0.4-2.3 9.1 5.3z"/>
						<path id="&lt;Path&gt;" class="s0" d="m403.1 234.5l-8-4.7 0.3-2.2 8.1 4.6z"/>
						<path id="&lt;Path&gt;" class="s0" d="m413.7 240.6l-8-4.6 0.3-2.3 8.1 4.6z"/>
						<path id="&lt;Path&gt;" class="s0" d="m353.4 175.3l-3.2-1.8 0.4-2.3 3.2 1.9z"/>
						<path id="&lt;Path&gt;" class="s0" d="m363.8 181.3l-8-4.6 0.4-2.2 8 4.6z"/>
						<path id="&lt;Path&gt;" class="s0" d="m374.4 187.5l-8-4.7 0.4-2.2 8 4.6z"/>
					</g>
					<path id="&lt;Compound Path&gt;" fill-rule="evenodd" class="s0" d="m534.7 269.1q-1.1 0-2.3-0.6l-64.9-37.5c-2.6-1.5-4.3-5.4-3.8-8.6l4.1-24.8c0.3-1.7 1.2-3 2.4-3.5 1.2-0.6 2.5-0.5 3.8 0.3l64.9 37.4c2.6 1.6 4.4 5.4 3.8 8.7l-4.1 24.7c-0.3 1.7-1.2 3-2.4 3.6q-0.7 0.3-1.5 0.3zm-63-74.5q-0.6 0-1.1 0.3c-0.9 0.4-1.6 1.5-1.9 2.9l-4.1 24.7c-0.5 2.9 1 6.4 3.4 7.7l64.9 37.5c1 0.6 2 0.7 2.9 0.3 0.9-0.5 1.6-1.5 1.9-2.9l4.1-24.8c0.5-2.9-1-6.3-3.4-7.7l-64.9-37.4q-0.9-0.6-1.8-0.6z"/>
					<path id="&lt;Compound Path&gt;" fill-rule="evenodd" class="s0" d="m527.5 311.7q-1.1 0-2.2-0.7l-64.9-37.4c-2.7-1.6-4.4-5.4-3.8-8.7l4.1-24.7c0.3-1.7 1.2-3 2.4-3.6 1.1-0.5 2.5-0.4 3.7 0.3l65 37.5c2.6 1.5 4.3 5.4 3.8 8.6l-4.2 24.8c-0.3 1.7-1.1 3-2.4 3.6q-0.7 0.3-1.5 0.3zm-1.8-1.4c1.1 0.5 2.1 0.6 3 0.2 0.9-0.4 1.6-1.5 1.8-2.9l4.2-24.7c0.5-2.9-1.1-6.4-3.4-7.7l-64.9-37.5c-1-0.6-2.1-0.7-2.9-0.3-1 0.5-1.7 1.5-1.9 2.9l-4.1 24.8c-0.5 2.9 1 6.3 3.3 7.7z"/>
					<path id="&lt;Path&gt;" class="s10" d="m473.3 228.3c1.2 0.7 2.2 0.5 2.6-0.6l7.6-20.7c0.8-2.3 4.4-0.2 5.1 3.1l4.7 20.9c0.3 1.5 1.4 3 2.6 3.7l1.1 0.6c1.1 0.7 2 0.5 2.5-0.4l1.5-3.3c1-2 4.1-0.1 5 3 0.4 1.4 1.4 2.8 2.5 3.5l1 0.5c1.2 0.7 2.2 0.4 2.6-0.7l1.4-4.3c0.8-2.4 4.3-0.4 5.1 3l4.7 19.2c0.4 1.6 1.4 3 2.6 3.7z"/>
					<path id="&lt;Path&gt;" class="s0" d="m517.7 301.9c-1.3-0.7-2.4-2.3-2.8-4l-4.7-19.2c-0.5-2.1-2.2-3.7-3.3-3.7q-0.7 0-1 0.8l-1.4 4.3c-0.2 0.6-0.6 1-1.1 1.2-0.6 0.3-1.4 0.2-2.1-0.3l-1-0.5c-1.2-0.7-2.3-2.2-2.7-3.8-0.6-2-2.1-3.4-3.2-3.5q-0.7 0-1 0.6l-1.5 3.3q-0.4 0.7-1.1 1c-0.6 0.2-1.3 0-2-0.4l-1.2-0.6c-1.3-0.8-2.4-2.4-2.8-4l-4.6-20.9c-0.5-2-2.1-3.6-3.3-3.7q-0.7-0.1-1 0.7l-7.6 20.7q-0.3 0.8-1.1 1.1c-0.6 0.3-1.3 0.1-2.1-0.3l0.5-0.8c0.5 0.3 0.9 0.4 1.3 0.3q0.4-0.2 0.6-0.6l7.5-20.7c0.4-0.9 1.1-1.4 1.9-1.3 1.6 0.1 3.6 1.9 4.2 4.4l4.6 20.9c0.3 1.3 1.3 2.8 2.4 3.4l1.1 0.6c0.5 0.3 1 0.4 1.3 0.3q0.4-0.1 0.6-0.5l1.5-3.3c0.4-0.8 1-1.2 1.9-1.1 1.6 0.2 3.3 2 4 4.2 0.3 1.3 1.3 2.6 2.3 3.2l0.9 0.5c0.6 0.3 1 0.4 1.4 0.3q0.4-0.2 0.6-0.7l1.4-4.3c0.3-0.9 0.9-1.4 1.7-1.4q0.1 0 0.1 0c1.5 0 3.6 1.8 4.2 4.4l4.7 19.2c0.3 1.4 1.3 2.8 2.3 3.4z"/>
				</g>
				<path id="&lt;Compound Path&gt;" fill-rule="evenodd" class="s0" d="m491.7 173.5c-1 0-2-0.2-2.9-0.8l-50.7-29.3c-3.2-1.8-4.9-6.1-3.9-9.7 0.5-1.8 1.6-3.1 3-3.7 1.5-0.6 3.1-0.5 4.7 0.4l50.7 29.3c3.2 1.8 4.9 6.2 3.9 9.8-0.5 1.8-1.5 3.1-3 3.7q-0.9 0.3-1.8 0.3zm-52.7-43q-0.7 0-1.4 0.3c-1.2 0.5-2.1 1.6-2.6 3.1-0.8 3.2 0.7 7.1 3.5 8.7l50.8 29.3c1.3 0.8 2.6 0.9 3.8 0.4 1.2-0.5 2.1-1.6 2.6-3.1 0.8-3.2-0.7-7.1-3.5-8.7l-50.8-29.3q-1.2-0.7-2.4-0.7z"/>
			</g>
		</g>
	</g>
</svg>