<svg version="1.2" xmlns="http://www.w3.org/2000/svg" viewBox="0 0 1200 800" width="1200" height="800">
	<title>banner3guilimpo-ai</title>
	<defs>
		<radialGradient id="g1" cx="600" cy="439.2" r="360.8" gradientUnits="userSpaceOnUse">
			<stop offset="0" stop-color="#fb4fa6"/>
			<stop offset="1" stop-color="#3761b4"/>
		</radialGradient>
	</defs>
	<style>
		.s0 { opacity: .8;fill: url(#g1) } 
	</style>
	<g id="gui">
		<path id="&lt;Compound Path&gt;" fill-rule="evenodd" class="s0" d="m1166.7 84.6c-2.4 1.5-6.5 1.5-8.9 0q-0.2-0.1-0.3-0.2l-138.8 80.1v99.7l181.3-104.6v1.6l-215.1 124.2v110.3l-116.1 67 20.6 11.8 112.9-65.2-0.3-0.6 107.4-62.1v-13.5l21.8-12.6v-38.9l68.8-39.7v1.7l-67.3 38.9v37.1l27.7-16c-1.8-1.4-1.6-3.4 0.7-4.7 2.5-1.5 6.5-1.5 9 0 2.4 1.4 2.4 3.7 0 5.2-2.3 1.2-5.8 1.4-8.2 0.3l-51 29.5v13.5l-106.7 61.6h49.6l146.2-84.4v1.6l-143.4 82.8h143.4v1.4h-196.8l-112.4 64.9 21.2 12.3 81.6-47 0.1-0.1h206.3v1.4h-146.2l44.5 25.6h101.7v1.5h-102.1l-46.9-27.1h-56.9l-80.6 46.5 18.7 10.8 71.3-41.2 0.2-0.1h28.8l58.3 33.7h109.2v1.4h-109.6l-58.3-33.6h-28l-51.8 29.9h25.9l25.3-14.6h19.6l43.6 25.2c2.5-1 5.9-0.8 8.1 0.4 2.5 1.5 2.5 3.8 0 5.2-2.5 1.4-6.5 1.4-9 0-2.3-1.3-2.4-3.4-0.5-4.8l-42.6-24.6h-18.9l-25.2 14.6h-28.8l-16.2 9.4 26.4 15.2h38.8l48.2 27.8c2.4-1.1 5.9-1 8.2 0.3 2.4 1.5 2.4 3.8 0 5.2-2.5 1.4-6.5 1.4-9 0-2.3-1.3-2.5-3.3-0.7-4.7l-47-27.2h-36.1l12.4 7.2-19.2 11.1 52.1 30.1h54.8l57.8-33.4c-1.8-1.4-1.6-3.5 0.6-4.7 2.5-1.5 6.5-1.5 9 0 2.5 1.4 2.5 3.7 0 5.1-2.2 1.3-5.7 1.4-8.2 0.4l-29.8 17.2h108.1v1.6l-0.4-0.2h-110.1l-26.5 15.3-0.1 0.1h-52.8l21.6 12.5h124l32.1 18.4h12.2v1.5h-9.8l9.8 5.6v1.6l-44.6-25.7h-124l-77.3-44.6-35.9 20.8 89.8 51.8h96.7l95.3 55.1v1.6l-95.7-55.2h-93.8l118.6 68.5v54.8l70.9 40.9v1.7l-72.3-41.8v-54.8l-211-121.8-30.9 17.9 126.8 73.2v110.2l71.5 41.3h-2.9l-70.1-40.5v-110.2l-126.8-73.2-19.1 11 94 54.3v129.2l45.1 26v3.4h-1.4v-2.5l-45.1-26.1v-129.2l-94-54.3-25.8 14.9 71.9 41.5v155.7h-1.4v-66.3l-36 20.8v45.5h-1.5v-46.3l37.5-21.6v-38.1l-47.4 27.4c1.6 1.4 1.4 3.3-0.8 4.6-2.5 1.4-6.5 1.4-9 0-2.5-1.4-2.5-3.8 0-5.2 2.3-1.3 5.9-1.4 8.4-0.3l48.8-28.2v-47.1l-71.9-41.6-22.9 13.3 34.9 20.2v29.7l-8.8 5.1v15.1l-63 36.4v25.6l-51.3 29.6c1.8 1.5 1.6 3.5-0.6 4.8-2.5 1.4-6.5 1.4-9 0-2.5-1.5-2.5-3.8 0-5.2 2.2-1.3 5.7-1.4 8.2-0.4l51.3-29.6v-25.6l62.9-36.4v-13.5l-105.8 61.1c1.7 1.4 1.4 3.4-0.8 4.6-2.5 1.5-6.5 1.5-9 0-2.4-1.4-2.4-3.7 0-5.2 2.3-1.3 5.9-1.4 8.4-0.2l84.9-49h-42.6l-48.8 28.2c1.8 1.4 1.6 3.4-0.7 4.7-2.4 1.4-6.5 1.4-8.9 0-2.5-1.4-2.5-3.8 0-5.2 2.2-1.3 5.7-1.4 8.1-0.4l49.7-28.7h0.2 45.3l28.9-16.6v-28.1l-35-20.2-6.9 4-9-5.2-146.7 84.7-0.2 0.1h-40c-0.2 0.7-0.8 1.4-1.7 1.9-2.5 1.4-6.5 1.4-9 0-2.5-1.4-2.5-3.8 0-5.2 2.5-1.4 6.5-1.4 9 0 0.9 0.5 1.5 1.2 1.7 1.9h39.7l145.8-84.2-22.3-12.9-121.9 70.4c1.8 1.4 1.6 3.4-0.7 4.7-2.4 1.5-6.5 1.5-8.9 0-2.5-1.4-2.5-3.7 0-5.1 2.2-1.3 5.7-1.5 8.2-0.4l121.9-70.4-23.1-13.3-172.3 99.4v83.3l49.6 28.6h-2.9l-29.5-17.1-29.6 17.1h-2.8l31-17.9-17.2-9.9v-65.5l-29.1 16.8v40.9l-59.3 34.2q0.8 0.7 1.1 1.4h-12.4c0.3-0.7 0.8-1.3 1.7-1.8 2.3-1.3 5.7-1.4 8.2-0.4l59.2-34.2v-40.9l30.6-17.6v-17.8l172.2-99.4-25.3-14.7-334 192.8v34h-1.4v-34.8l333.9-192.8-20.5-11.9-172.1 99.4-0.2 0.1h-125.2l-55.2 31.9h0.3v33.9l-62.5 36.1c1.8 1.4 1.6 3.4-0.7 4.7-2.5 1.4-6.5 1.4-9 0-2.4-1.4-2.4-3.7 0-5.2 2.3-1.3 5.8-1.4 8.2-0.3l62.6-36.2v-32.4l-94.9 54.8-0.2 0.1h-210.3l-40.1-23.2v-1.6l40.5 23.4h209.5l151.3-87.4h0.1 125.3l171.2-98.9-18.1-10.4-162.9 94-0.1 0.1h-143.7l-70 40.4c1.8 1.4 1.6 3.4-0.7 4.7-2.4 1.5-6.5 1.5-8.9 0-2.5-1.4-2.5-3.7 0-5.2 2.2-1.3 5.7-1.4 8.2-0.3l70.8-40.9 0.2-0.1h143.7l24.1-14h-192.1l-151.8-87.6c-2.5 1-6 0.9-8.2-0.4-2.5-1.4-2.5-3.7 0-5.2 2.5-1.4 6.5-1.4 9 0 2.2 1.3 2.4 3.3 0.6 4.8l150.8 87h194.2l60.7-35-23.9-13.8h-42.3l-39.7-22.9c-2.4 1-5.9 0.9-8.2-0.4-2.4-1.4-2.4-3.7 0-5.2 2.5-1.4 6.5-1.4 9 0 2.3 1.3 2.5 3.3 0.7 4.8l38.6 22.3h39.5l-92.3-53.3h-85.3l-47.6 27.5c1.8 1.4 1.6 3.4-0.7 4.7-2.4 1.4-6.5 1.4-8.9 0-2.5-1.4-2.5-3.8 0-5.2 2.2-1.3 5.7-1.4 8.2-0.4l48.4-27.9 0.2-0.1h86.1l119.6 69 50.9-29.3h-28.1l-22.6-13.1c-2.5 1.1-6 1-8.3-0.3-2.5-1.4-2.5-3.7 0-5.2 2.5-1.4 6.5-1.4 9 0 2.2 1.3 2.4 3.3 0.7 4.7l21.6 12.5h30.1l20-11.6-42.6-24.5 13.3-7.7-73.4-42.5h-24.5l-29.3 16.9c1.8 1.5 1.6 3.5-0.6 4.8-2.5 1.4-6.5 1.4-9 0-2.5-1.5-2.5-3.8 0-5.2 2.2-1.3 5.7-1.4 8.2-0.4l30.1-17.4 0.2-0.1h25.3l53.3 30.8v-28.2l-50-28.9c-2.5 1.1-6 1-8.2-0.3-2.5-1.5-2.5-3.8 0-5.2 2.5-1.5 6.5-1.5 9 0 2.2 1.3 2.4 3.3 0.6 4.7l50.1 28.9v29.9l19.7 11.3 69.2-40-32.1-18.5h-41.7l-65.9-38.1h-50l-69.5 40.2c1.8 1.4 1.6 3.4-0.6 4.7-2.5 1.4-6.5 1.4-9 0-2.5-1.4-2.5-3.8 0-5.2 2.2-1.3 5.7-1.4 8.2-0.4l70.4-40.6 0.1-0.1h50.8l65.9 38.1h38.8l-193-111.5h-136.4l-86-49.6-0.3-0.2v-76.3c-1.8 0.1-3.7-0.3-5.1-1.1-2.5-1.4-2.5-3.7 0-5.1 2.5-1.5 6.5-1.5 9 0 2.4 1.4 2.4 3.7 0 5.1-0.7 0.5-1.6 0.7-2.5 0.9v75.6l85.2 49.3h136.4l228.8 132 25.9-15-230.9-133.3-0.4-0.2v-79.7l-79-45.6c-2.4 1-5.9 0.9-8.2-0.4-2.4-1.4-2.4-3.7 0-5.1 2.5-1.5 6.5-1.5 9 0 2.3 1.2 2.5 3.3 0.7 4.7l78.6 45.4 0.4 0.2v79.7l231.2 133.5 27.3-15.7-135.5-78.2-0.3-0.3v-68.3l232.7-134.4c-1.8-1.4-1.6-3.4 0.6-4.7 2.5-1.4 6.5-1.4 9 0 2.5 1.4 2.5 3.7 0 5.2-2.2 1.3-5.7 1.4-8.2 0.3l-171.1 98.8h51.4l92.3-53.2c-1.8-1.5-1.6-3.5 0.6-4.8 2.5-1.4 6.5-1.4 9 0 2.5 1.5 2.5 3.8 0 5.2-2.2 1.3-5.7 1.4-8.2 0.4l-93.1 53.7-0.2 0.1h-54.2l-59.2 34.2v66.7l109.1 63v-33.9l-67-38.7-0.4-0.2v-34.4c-1.4-0.1-2.7-0.4-3.8-1-2.5-1.4-2.5-3.7 0-5.2 2.5-1.4 6.5-1.4 9 0 2.5 1.5 2.5 3.8 0 5.2-1.1 0.6-2.4 0.9-3.8 1v33.6l67 38.6 0.4 0.2v35.6l25.3 14.6 28-16.1 17 9.8v-74.1l-59.1-34.1c-2.5 1-6 0.9-8.2-0.4-2.5-1.4-2.5-3.7 0-5.1 2.5-1.5 6.5-1.5 9 0 2.2 1.2 2.4 3.3 0.6 4.7l58.8 33.9 0.3 0.2v30.2l44.2-25.5v-28.6l-96.4-55.7c-2.4 1.1-5.9 0.9-8.2-0.4-2.4-1.4-2.4-3.7 0-5.1 2.5-1.5 6.5-1.5 9 0 2.3 1.2 2.5 3.3 0.7 4.7l96 55.4 0.3 0.2v30.3l-45.6 26.4v43.8l24.2 14 20.4-11.8v-26.9l31-17.8c-1.8-1.5-1.6-3.5 0.7-4.8 2.5-1.4 6.5-1.4 9 0 2.4 1.5 2.4 3.8 0 5.2-2.3 1.3-5.8 1.4-8.2 0.4l-31 17.9v25.1l67.6-39v-58.8l-101.8-58.7-0.3-0.2v-22.1l57.5-33.3c-1.8-1.4-1.6-3.4 0.7-4.7 2.4-1.4 6.5-1.4 8.9 0 2.5 1.4 2.5 3.8 0 5.2-2.2 1.3-5.7 1.4-8.2 0.4l-57.5 33.2v20.5l101.7 58.7 0.4 0.2v60.4l-89.5 51.7 18.1 10.4 116-67v-110.2l33.9-19.5v-101.4l139.1-80.3c-1-1.3-0.5-2.9 1.4-3.9 2.4-1.5 6.5-1.5 8.9 0 2.5 1.4 2.5 3.7 0 5.1zm-361.4 343l-166.7 96.3 166.7 96.2 166.7-96.2z"/>
	</g>
</svg>