<svg id="Camada_1" data-name="Camada 1" xmlns="http://www.w3.org/2000/svg" xmlns:xlink="http://www.w3.org/1999/xlink" viewBox="0 0 1200 800"><defs><style>.cls-1{fill:none;}.cls-2{clip-path:url(#clip-path);}.cls-3{fill:#42e8e0;}.cls-4{clip-path:url(#clip-path-3);}.cls-5{fill:url(#Gradiente_sem_nome_6);}.cls-6{clip-path:url(#clip-path-4);}.cls-7{fill:url(#Gradiente_sem_nome_5);}.cls-8{fill:#24126a;}.cls-9{opacity:0.51;}.cls-10{clip-path:url(#clip-path-6);}.cls-11{fill:#453c9e;}.cls-12{clip-path:url(#clip-path-7);}.cls-13{fill:url(#Gradiente_sem_nome_5-2);}.cls-14{clip-path:url(#clip-path-8);}.cls-15{fill:url(#Gradiente_sem_nome_6-2);}.cls-16{fill:#fff;}.cls-17{opacity:0.15;}.cls-18{clip-path:url(#clip-path-10);}.cls-19{clip-path:url(#clip-path-11);}.cls-20{fill:url(#Gradiente_sem_nome_5-3);}.cls-21{clip-path:url(#clip-path-12);}.cls-22{fill:url(#Gradiente_sem_nome_6-3);}.cls-23{clip-path:url(#clip-path-13);}.cls-24{opacity:0.5;}.cls-25{clip-path:url(#clip-path-14);}.cls-26{opacity:0.8;}.cls-27{clip-path:url(#clip-path-15);}.cls-28{clip-path:url(#clip-path-16);}.cls-29{clip-path:url(#clip-path-17);}.cls-30{fill:url(#Gradiente_sem_nome_7);}</style><clipPath id="clip-path"><rect class="cls-1" x="273" y="62.46" width="1126.84" height="753.45"/></clipPath><clipPath id="clip-path-3"><path class="cls-1" d="M763.18,168.17h0l-3.76,2.2,2.55,1.08L730.12,360.66a7.28,7.28,0,0,0,3.31,6.48L986,513.4h-.21l.64,3.52,3.76-2.18h0a2.43,2.43,0,0,0,1.33-1.88l32.06-190.74a7.16,7.16,0,0,0-3.31-6.46L766.16,168.38a3.51,3.51,0,0,0-1.78-.55,2,2,0,0,0-1.17.34"/></clipPath><linearGradient id="Gradiente_sem_nome_6" x1="-3.85" y1="400.93" x2="-1.97" y2="400.93" gradientTransform="matrix(-156.32, 0, 0, 156.32, 421.76, -62331.22)" gradientUnits="userSpaceOnUse"><stop offset="0" stop-color="#c0bff6"/><stop offset="0.29" stop-color="#c5c4f7"/><stop offset="0.64" stop-color="#d3d2f9"/><stop offset="1" stop-color="#e9e9fd"/></linearGradient><clipPath id="clip-path-4"><path class="cls-1" d="M1018.89,320.71,973.26,506,986,513.4h-.21l.64,3.52,3.76-2.18h0a2.43,2.43,0,0,0,1.33-1.88l32.06-190.74a5.89,5.89,0,0,0-.53-3.15Z"/></clipPath><linearGradient id="Gradiente_sem_nome_5" x1="-22.43" y1="406.77" x2="-20.55" y2="406.77" gradientTransform="matrix(-26.84, 0, 0, 26.84, 421.76, -10499.92)" gradientUnits="userSpaceOnUse"><stop offset="0" stop-color="#5761d7"/><stop offset="0.18" stop-color="#5c66d9"/><stop offset="0.39" stop-color="#6a73df"/><stop offset="0.61" stop-color="#8289e8"/><stop offset="0.85" stop-color="#a3a7f5"/><stop offset="1" stop-color="#bcbeff"/></linearGradient><clipPath id="clip-path-6"><rect class="cls-1" x="729.24" y="174.22" width="287.42" height="339"/></clipPath><clipPath id="clip-path-7"><path class="cls-1" d="M722.63,386.45,583.65,467l-13.92-7.25,5.06,9.62h0a4.43,4.43,0,0,0,2.06,2.19L822.3,613.67a10,10,0,0,0,9.07.38l146.49-84.77a2.92,2.92,0,0,0,1.29-1.56h0l5.09-8.27s-10.48,5-12.77,6.33L731.7,386.84a10.36,10.36,0,0,0-5.13-1.3,7.94,7.94,0,0,0-3.94.92"/></clipPath><linearGradient id="Gradiente_sem_nome_5-2" x1="-2.64" y1="401" x2="-0.76" y2="401" gradientTransform="matrix(-220.78, 0, 0, 220.78, 400.82, -88032.64)" xlink:href="#Gradiente_sem_nome_5"/><clipPath id="clip-path-8"><path class="cls-1" d="M721.28,369.7,571.16,456.63c-2.38,1.37-2.08,3.77.68,5.39L823.39,607.68a10.28,10.28,0,0,0,9.29.38L982.8,521.14c2.38-1.39,2.08-3.76-.66-5.38L730.57,370.08a10.73,10.73,0,0,0-5.26-1.32,8,8,0,0,0-4,.94"/></clipPath><linearGradient id="Gradiente_sem_nome_6-2" x1="-2.06" y1="400.67" x2="-0.18" y2="400.67" gradientTransform="matrix(-325.33, 0, 0, 325.33, 498.91, -129859.66)" xlink:href="#Gradiente_sem_nome_6"/><clipPath id="clip-path-10"><rect class="cls-1" x="729" y="174.22" width="414.87" height="349.21"/></clipPath><clipPath id="clip-path-11"><path class="cls-1" d="M882.08,294.94,744.71,374.47l239.7,138.74,25.19-149.37-118.45-68.6A10.47,10.47,0,0,0,886,294a7.94,7.94,0,0,0-3.94.92"/></clipPath><linearGradient id="Gradiente_sem_nome_5-3" x1="-2.98" y1="400.78" x2="-1.1" y2="400.78" gradientTransform="matrix(-220.78, 0, 0, 220.78, 485.72, -88081.27)" xlink:href="#Gradiente_sem_nome_5"/><clipPath id="clip-path-12"><path class="cls-1" d="M880.72,278.17,730.61,365.1a3.74,3.74,0,0,0-.9.68l254.7,147.43,27.67-164L890,278.55a10.84,10.84,0,0,0-5.26-1.32,8.3,8.3,0,0,0-4,.94"/></clipPath><linearGradient id="Gradiente_sem_nome_6-3" x1="-2.68" y1="400.78" x2="-0.81" y2="400.78" gradientTransform="matrix(-220.9, 0, 0, 220.9, 411.53, -88136.21)" xlink:href="#Gradiente_sem_nome_6"/><clipPath id="clip-path-13"><polygon class="cls-1" points="1016.66 322.01 761.32 174.22 729.24 365.52 984.41 513.21 1016.66 322.01"/></clipPath><clipPath id="clip-path-14"><rect class="cls-1" x="791.18" y="340.48" width="242.53" height="136.51"/></clipPath><clipPath id="clip-path-15"><rect class="cls-1" x="679.13" y="402.4" width="236.26" height="141.35"/></clipPath><clipPath id="clip-path-16"><rect class="cls-1" x="894.02" y="341.28" width="49.37" height="50.37"/></clipPath><clipPath id="clip-path-17"><path class="cls-1" d="M894,362.28c1.09.62,2.05.39,2.4-.59l7.1-19.47c.83-2.23,4.14-.23,4.83,2.92l4.4,19.61a5.66,5.66,0,0,0,2.42,3.5l1.05.62c1,.59,1.88.42,2.33-.43l1.44-3.09c.91-1.88,3.89-.1,4.72,2.82a5.75,5.75,0,0,0,2.37,3.28l.9.53c1.1.64,2.08.38,2.42-.66l1.31-4.07c.76-2.3,4.08-.38,4.85,2.79l4.38,18.14a5.65,5.65,0,0,0,2.46,3.45Z"/></clipPath><linearGradient id="Gradiente_sem_nome_7" x1="11.04" y1="398.6" x2="12.92" y2="398.6" gradientTransform="translate(8334.47 -18450.96) rotate(23.16) scale(50.72)" gradientUnits="userSpaceOnUse"><stop offset="0" stop-color="#42e8e0"/><stop offset="0.11" stop-color="#37b6bf"/><stop offset="0.22" stop-color="#2c87a1"/><stop offset="0.34" stop-color="#235f87"/><stop offset="0.46" stop-color="#1c3f72"/><stop offset="0.58" stop-color="#162561"/><stop offset="0.71" stop-color="#121355"/><stop offset="0.85" stop-color="#10084e"/><stop offset="1" stop-color="#0f054c"/></linearGradient></defs><title>Prancheta 1</title><g class="cls-2"><g class="cls-2"><path class="cls-3" d="M827.84,645.88a11.59,11.59,0,0,1-5.64-1.43L570.58,498.77a4.69,4.69,0,0,1-2.74-3.77,3.59,3.59,0,0,1,2.06-3.11l150.08-87a11.23,11.23,0,0,1,10.2.37L981.84,551a4.7,4.7,0,0,1,2.72,3.77,3.65,3.65,0,0,1-2.06,3.13L832.38,644.77a9,9,0,0,1-4.49,1.05M571.46,497.22,823.12,642.88a9.35,9.35,0,0,0,8.4.38l150.13-86.91a1.9,1.9,0,0,0,1.15-1.56c0-.76-.68-1.61-1.88-2.26L729.37,406.85a9.46,9.46,0,0,0-8.39-.38L570.86,493.38a2,2,0,0,0-1.16,1.56c0,.76.67,1.6,1.88,2.28"/></g><g class="cls-4"><rect class="cls-5" x="729.75" y="167.83" width="294.22" height="349.04"/></g><g class="cls-6"><rect class="cls-7" x="973.24" y="318.86" width="50.52" height="198.01"/></g><g class="cls-2"><path class="cls-8" d="M729.37,369.49,983.51,516.66c1.88,1.13,3.64.49,4-1.56l32.14-190.81a7.25,7.25,0,0,0-3.31-6.48L762.18,170.67c-2-1.14-3.64-.48-4,1.55L726.14,363a7.16,7.16,0,0,0,3.23,6.53"/><g class="cls-9"><g class="cls-10"><polygon class="cls-11" points="761.32 174.22 1016.66 322.01 984.41 513.21 729.24 365.52 761.32 174.22"/></g></g></g><g class="cls-12"><rect class="cls-13" x="569.68" y="385.54" width="414.64" height="229.84"/></g><g class="cls-14"><rect class="cls-15" x="568.78" y="368.76" width="416.41" height="240.67"/></g><g class="cls-2"><path class="cls-16" d="M571.84,460.89,823.39,606.55a10.19,10.19,0,0,0,9.29.37L982.8,520a3.06,3.06,0,0,0,1.52-1.77,2.6,2.6,0,0,1-1.52,2.9L832.66,608.06a10.22,10.22,0,0,1-9.29-.38L571.84,462c-1.88-1-2.54-2.41-2.2-3.64a4.33,4.33,0,0,0,2.2,2.51"/><g class="cls-17"><g class="cls-18"><g class="cls-19"><rect class="cls-20" x="744.7" y="294.02" width="264.88" height="219.2"/></g><g class="cls-21"><rect class="cls-22" x="729.69" y="277.23" width="282.37" height="235.98"/></g><g class="cls-23"><path class="cls-16" d="M1141.59,424.23,890,278.55a11,11,0,0,0-6.22-1.26,10.56,10.56,0,0,1,4.36,1.26l251.66,145.68c2.76,1.58,3.06,4,.68,5.39L990.38,516.53a7.15,7.15,0,0,1-3.09.88,8.72,8.72,0,0,0,4.94-.88l150.11-86.91c2.38-1.4,2.08-3.77-.66-5.39"/><g class="cls-24"><g class="cls-25"><path class="cls-8" d="M863,345.4l-8-4.67a2.65,2.65,0,0,0-2.45,0L843.58,346c-.72.42-.76,1.06-.12,1.42l8.06,4.67a2.73,2.73,0,0,0,2.46,0l9-5.26c.69-.41.75-1.05.09-1.43"/><path class="cls-8" d="M875.48,352.54l-8.05-4.67a2.63,2.63,0,0,0-2.44,0l-9,5.25c-.72.42-.75,1-.11,1.42l8.07,4.67a2.69,2.69,0,0,0,2.44,0l9-5.26c.7-.41.75-1.05.09-1.43"/><path class="cls-8" d="M887.94,359.83l-8.06-4.67a2.63,2.63,0,0,0-2.44,0l-9,5.23c-.71.42-.75,1.06-.11,1.44l8.07,4.67a2.69,2.69,0,0,0,2.44,0l9-5.24c.7-.41.75-1.05.1-1.43"/><path class="cls-8" d="M878.47,369.49l-8.08-4.65a2.63,2.63,0,0,0-2.44,0l-7.51,4.41c-.69.41-.73,1.05,0,1.43l7.91,4.65a2.67,2.67,0,0,0,2.46,0l7.51-4.41c.71-.41.75-1.05.11-1.43"/><path class="cls-8" d="M890.88,376.63,882.81,372a2.63,2.63,0,0,0-2.44,0l-7.51,4.41c-.72.41-.76,1.05-.12,1.43l8.06,4.67a2.8,2.8,0,0,0,2.46,0l7.51-4.41c.72-.41.75-1.05.11-1.43"/><path class="cls-8" d="M903.37,383.85l-8.07-4.68a2.69,2.69,0,0,0-2.44,0l-7.52,4.41c-.71.42-.75,1.06-.11,1.41l8.06,4.68a2.73,2.73,0,0,0,2.46,0l7.51-4.41c.71-.42.75-1.06.11-1.43"/><path class="cls-8" d="M915.83,391.06l-8-4.61a2.63,2.63,0,0,0-2.44,0l-7.52,4.4c-.71.42-.75,1-.11,1.42l8.08,4.67a2.75,2.75,0,0,0,2.44,0l7.51-4.41c.71-.41.75-1.06.11-1.43"/><path class="cls-8" d="M928.28,398.27l-8.08-4.67a2.69,2.69,0,0,0-2.44,0L910.25,398c-.72.42-.75,1.06-.12,1.43l8.08,4.67a2.63,2.63,0,0,0,2.44,0l7.51-4.4c.72-.42.76-1,.12-1.42"/><path class="cls-8" d="M940.73,405.47l-8.06-4.65a2.67,2.67,0,0,0-2.46,0l-7.51,4.41c-.71.41-.75,1-.11,1.43l8.07,4.67a2.69,2.69,0,0,0,2.44,0l7.52-4.41c.71-.41.75-1.05.11-1.43"/><path class="cls-8" d="M953.18,412.68,945.12,408a2.8,2.8,0,0,0-2.46,0l-7.51,4.41c-.71.42-.75,1.06-.11,1.43l8.07,4.67a2.71,2.71,0,0,0,2.45,0l7.51-4.4c.71-.42.75-1.06.11-1.44"/><path class="cls-8" d="M965.63,419.9l-8.06-4.67a2.67,2.67,0,0,0-2.46,0l-7.51,4.41c-.71.41-.75,1.05-.11,1.43l8.08,4.65a2.69,2.69,0,0,0,2.44,0l7.51-4.41c.69-.41.75-1.05.09-1.43"/><path class="cls-8" d="M978.08,427.11,970,422.44a2.71,2.71,0,0,0-2.45,0l-7.51,4.41c-.71.41-.75,1-.11,1.41l8.08,4.67a2.63,2.63,0,0,0,2.44,0l7.51-4.4c.69-.42.75-1.06.09-1.44"/><path class="cls-8" d="M990.53,434.33l-8-4.67a2.69,2.69,0,0,0-2.44,0l-7.52,4.4c-.71.42-.75,1.06-.11,1.44l8.08,4.67a2.69,2.69,0,0,0,2.44,0l7.51-4.41c.7-.4.75-1,.09-1.41"/><path class="cls-8" d="M873.27,379.72l-8.06-4.58a2.69,2.69,0,0,0-2.44,0l-7.51,4.41c-.7.4-.75,1,0,1.41l8,4.68a2.78,2.78,0,0,0,2.45,0l7.51-4.41c.69-.42.75-1.06.09-1.43"/><path class="cls-8" d="M860.65,372.39l-8.08-4.67a2.75,2.75,0,0,0-2.44,0l-7.51,4.41c-.7.41-.75,1.05-.1,1.43l8.06,4.67a2.67,2.67,0,0,0,2.46,0l7.51-4.41c.72-.41.76-1.05.12-1.43"/><path class="cls-8" d="M848,365.07,830.62,355a2.67,2.67,0,0,0-2.46,0l-7.52,4.41c-.71.41-.75,1.05-.11,1.43l17.37,10.06a2.78,2.78,0,0,0,2.45,0l7.51-4.41c.69-.42.75-1.06,0-1.43"/><path class="cls-8" d="M833.28,369.87l-14.08-8.18a2.69,2.69,0,0,0-2.44,0l-7.52,4.41c-.69.42-.75,1.06,0,1.43l14.09,8.16a2.63,2.63,0,0,0,2.44,0l7.51-4.41c.7-.41.76-1,.1-1.41"/><path class="cls-8" d="M885.74,386.94l-8.08-4.68a2.75,2.75,0,0,0-2.44,0l-7.51,4.41c-.7.42-.75,1.06,0,1.43l8.06,4.67a2.67,2.67,0,0,0,2.46,0l7.51-4.4c.71-.4.75-1,.11-1.42"/><path class="cls-8" d="M898.19,394.15l-8.08-4.67a2.63,2.63,0,0,0-2.44,0l-7.51,4.41c-.69.41-.75,1.05,0,1.43l8.06,4.67a2.73,2.73,0,0,0,2.46,0l7.51-4.41c.71-.41.75-1.05.11-1.41"/><path class="cls-8" d="M910.64,401.34l-8.07-4.67a2.78,2.78,0,0,0-2.45,0l-7.51,4.41c-.69.42-.73,1.06-.09,1.43l8.06,4.67a2.67,2.67,0,0,0,2.46,0l7.51-4.4c.71-.42.75-1.06.11-1.44"/><path class="cls-8" d="M923.09,408.56,915,403.89a2.63,2.63,0,0,0-2.44,0l-7.52,4.41c-.69.41-.73,1.05-.09,1.43l8.06,4.65a2.67,2.67,0,0,0,2.46,0L923,410c.71-.41.75-1.05.11-1.43"/><path class="cls-8" d="M935.55,415.77l-8.08-4.67a2.69,2.69,0,0,0-2.44,0l-7.51,4.41c-.72.41-.76,1-.12,1.41l8.06,4.67a2.67,2.67,0,0,0,2.46,0l7.51-4.4c.72-.42.75-1.06.12-1.44"/><path class="cls-8" d="M948,423l-8.08-4.67a2.69,2.69,0,0,0-2.44,0l-7.51,4.4c-.72.42-.75,1.06-.12,1.44l8.06,4.67a2.73,2.73,0,0,0,2.46,0l7.51-4.41c.72-.4.76-1,.12-1.41"/><path class="cls-8" d="M960.37,430.2l-8.07-4.67a2.69,2.69,0,0,0-2.44,0l-7.52,4.41c-.71.41-.75,1.05-.11,1.43l8.08,4.67a2.63,2.63,0,0,0,2.44,0l7.51-4.41c.71-.41.75-1.05.11-1.41"/><path class="cls-8" d="M972.9,437.4l-8.08-4.65a2.63,2.63,0,0,0-2.44,0l-7.51,4.4c-.71.42-.75,1.06-.11,1.43l8.07,4.68a2.69,2.69,0,0,0,2.44,0l7.52-4.41c.71-.42.75-1.06.11-1.43"/><path class="cls-8" d="M985.35,444.61l-8.07-4.67a2.67,2.67,0,0,0-2.46,0l-7.52,4.41c-.71.41-.75,1-.11,1.43l8.08,4.67a2.75,2.75,0,0,0,2.44,0l7.51-4.41c.71-.41.75-1.05.11-1.43"/><path class="cls-8" d="M1007.49,457.44,989.9,447.25a2.71,2.71,0,0,0-2.45,0l-7.51,4.43c-.69.39-.75,1-.09,1.41l17.58,10.19a2.73,2.73,0,0,0,2.46,0l7.51-4.41c.71-.39.75-1,.11-1.41"/><path class="cls-8" d="M984.66,470.81l-14.84-8.6a2.73,2.73,0,0,0-2.46,0l-7.51,4.4c-.72.42-.75,1.06-.12,1.43l14.86,8.59a2.63,2.63,0,0,0,2.44,0l7.51-4.4c.7-.42.76-1.06.1-1.44"/><path class="cls-8" d="M884,399.24l-8.13-4.68a2.69,2.69,0,0,0-2.44,0L865.91,399c-.7.42-.75,1.06-.1,1.43l8.06,4.67a2.63,2.63,0,0,0,2.44,0l7.51-4.4c.7-.42.75-1.06.1-1.42"/><path class="cls-8" d="M871.24,391.83l-8.06-4.67a2.73,2.73,0,0,0-2.46,0l-7.51,4.41c-.71.41-.75,1.05-.11,1.43l8.07,4.65a2.65,2.65,0,0,0,2.45,0l7.51-4.4c.69-.42.73-1.06.09-1.44"/><path class="cls-8" d="M858.47,384.45l-8.06-4.67a2.63,2.63,0,0,0-2.44,0l-7.51,4.41c-.7.41-.75,1-.1,1.41l8.06,4.67a2.69,2.69,0,0,0,2.44,0l7.52-4.41c.69-.41.75-1.05.09-1.43"/><path class="cls-8" d="M845.81,377l-8.06-4.66a2.73,2.73,0,0,0-2.46,0l-7.51,4.41c-.71.42-.75,1.06-.11,1.43l8.07,4.68a2.71,2.71,0,0,0,2.45,0l7.51-4.41c.71-.42.75-1.06.11-1.43"/><path class="cls-8" d="M896.52,406.43l-8.08-4.67a2.69,2.69,0,0,0-2.44,0l-7.51,4.41c-.7.41-.75,1.05-.09,1.43l8.05,4.67a2.67,2.67,0,0,0,2.46,0l7.52-4.41c.71-.41.75-1.05.11-1.43"/><path class="cls-8" d="M908.91,413.65l-8.07-4.6a2.63,2.63,0,0,0-2.44,0l-7.52,4.41c-.69.41-.75,1.05-.09,1.43l8.06,4.65a2.67,2.67,0,0,0,2.46,0l7.51-4.41c.71-.41.75-1.05.11-1.43"/><path class="cls-8" d="M921.37,420.86l-8.08-4.67a2.63,2.63,0,0,0-2.44,0l-7.51,4.41c-.7.41-.74,1-.1,1.41l8.06,4.67a2.67,2.67,0,0,0,2.46,0l7.51-4.41c.72-.41.75-1,.11-1.43"/><path class="cls-8" d="M933.82,428.07l-8.08-4.67a2.75,2.75,0,0,0-2.44,0l-7.51,4.43c-.7.39-.73,1-.1,1.41l8.06,4.67a2.67,2.67,0,0,0,2.46,0l7.51-4.4c.72-.4.75-1,.12-1.42"/><path class="cls-8" d="M946.27,435.29l-8.08-4.67a2.63,2.63,0,0,0-2.44,0l-7.51,4.4c-.71.42-.75,1.06-.11,1.44l8,4.67a2.73,2.73,0,0,0,2.46,0l7.52-4.41c.71-.41.75-1.06.11-1.41"/><path class="cls-8" d="M958.72,442.48l-8.08-4.67a2.75,2.75,0,0,0-2.44,0l-7.51,4.41c-.71.41-.75,1-.11,1.43l8.07,4.67a2.65,2.65,0,0,0,2.45,0l7.51-4.4c.71-.42.75-1.06.11-1.44"/><path class="cls-8" d="M971.17,449.7,963.1,445a2.65,2.65,0,0,0-2.45,0l-7.51,4.4c-.71.42-.75,1.06-.11,1.44l8.08,4.67a2.75,2.75,0,0,0,2.44,0l7.51-4.41c.71-.41.75-1.06.11-1.43"/><path class="cls-8" d="M983.62,456.91l-8-4.67a2.73,2.73,0,0,0-2.46,0l-7.52,4.41c-.71.41-.75,1.05-.11,1.41l8.08,4.67a2.63,2.63,0,0,0,2.44,0l7.51-4.41c.71-.41.75-1.05.11-1.43"/><path class="cls-8" d="M996.06,464.13,988,459.46a2.67,2.67,0,0,0-2.46,0l-7.51,4.4c-.72.42-.75,1-.12,1.42L986,470a2.75,2.75,0,0,0,2.44,0l7.51-4.41c.72-.42.75-1.06.12-1.43"/><path class="cls-8" d="M853.91,395.09l-8.1-4.67a2.69,2.69,0,0,0-2.44,0l-7.51,4.41c-.72.41-.75,1.05-.12,1.43l8.08,4.67a2.63,2.63,0,0,0,2.44,0l7.51-4.41c.7-.41.76-1,.1-1.43"/><path class="cls-8" d="M841.51,387.91l-8.06-4.65a2.69,2.69,0,0,0-2.44,0l-7.51,4.41c-.7.41-.75,1.05-.09,1.43l8.05,4.67a2.63,2.63,0,0,0,2.44,0l7.52-4.41c.69-.41.75-1.05,0-1.43"/><path class="cls-8" d="M829.13,380.79l-8.07-4.67a2.69,2.69,0,0,0-2.44,0l-7.52,4.41c-.69.42-.73,1.06-.09,1.43l8.06,4.67a2.67,2.67,0,0,0,2.46,0l7.51-4.4c.71-.42.75-1.06.11-1.42"/><path class="cls-8" d="M816.74,373.58l-8.06-4.67a2.67,2.67,0,0,0-2.46,0l-7.51,4.41c-.71.41-.75,1.05-.11,1.43l8.07,4.67a2.69,2.69,0,0,0,2.44,0l7.52-4.41c.71-.41.75-1,.11-1.41"/><path class="cls-8" d="M804.74,380.61l-8.06-4.68a2.73,2.73,0,0,0-2.46,0l-2.48,1.46c-.69.41-.75,1.05,0,1.43l8.06,4.67a2.75,2.75,0,0,0,2.44,0l2.5-1.45c.69-.42.75-1.06.09-1.43"/><path class="cls-8" d="M820.91,390l-8.06-4.67a2.67,2.67,0,0,0-2.46,0l-2.48,1.45c-.69.41-.75,1.05-.09,1.43l8,4.67a2.65,2.65,0,0,0,2.45,0l2.49-1.45c.7-.42.76-1.06.1-1.43"/><path class="cls-8" d="M833.25,397.11l-8.1-4.67a2.67,2.67,0,0,0-2.46,0l-2.48,1.45c-.69.41-.75,1.05-.09,1.43l8.06,4.67a2.69,2.69,0,0,0,2.44,0l2.5-1.45c.69-.42.75-1.06.09-1.43"/><path class="cls-8" d="M845.59,404.26l-8.06-4.63a2.73,2.73,0,0,0-2.46,0l-2.48,1.47c-.7.41-.75,1,0,1.41l8,4.66a2.69,2.69,0,0,0,2.44,0l2.5-1.47c.7-.42.75-1.06.1-1.42"/><path class="cls-8" d="M857.92,411.4l-8-4.67a2.73,2.73,0,0,0-2.46,0l-2.48,1.45c-.72.42-.75,1.06,0,1.43l8.06,4.68a2.75,2.75,0,0,0,2.44,0l2.49-1.45c.7-.42.76-1.06.1-1.44"/><path class="cls-8" d="M926.81,451.3l-8-4.58a2.75,2.75,0,0,0-2.47,0l-2.47,1.47c-.7.42-.76,1,0,1.41l8,4.68a2.69,2.69,0,0,0,2.44,0l2.5-1.47c.7-.42.75-1.06.1-1.42"/><path class="cls-8" d="M939.15,458.44l-8.06-4.67a2.67,2.67,0,0,0-2.46,0l-2.48,1.45c-.69.41-.75,1,0,1.43l8.06,4.67a2.63,2.63,0,0,0,2.44,0l2.5-1.45c.7-.41.75-1.06.09-1.43"/><path class="cls-8" d="M951.49,465.56l-8-4.65a2.67,2.67,0,0,0-2.46,0l-2.48,1.45c-.69.41-.75,1.05-.09,1.43l8,4.67a2.71,2.71,0,0,0,2.45,0l2.49-1.45c.7-.42.75-1.06,0-1.43"/><path class="cls-8" d="M963.83,472.73l-8.06-4.67a2.73,2.73,0,0,0-2.46,0l-2.48,1.47c-.69.42-.75,1-.09,1.42l8.06,4.67a2.69,2.69,0,0,0,2.44,0l2.49-1.47c.7-.42.76-1.06,0-1.42"/><path class="cls-8" d="M866.36,402.31l-8.06-4.68a2.69,2.69,0,0,0-2.44,0L848.35,402c-.7.42-.75,1.06,0,1.43l8,4.66a2.69,2.69,0,0,0,2.44,0l7.52-4.41c.69-.42.75-1.06.09-1.43"/><path class="cls-8" d="M878.81,409.52l-8.06-4.67a2.63,2.63,0,0,0-2.44,0l-7.51,4.41c-.7.41-.75,1-.1,1.41l8.06,4.67a2.63,2.63,0,0,0,2.44,0l7.51-4.41c.7-.41.76-1.05.1-1.43"/><path class="cls-8" d="M891.26,416.73l-8.06-4.67a2.75,2.75,0,0,0-2.44,0l-7.51,4.43c-.7.39-.75,1-.09,1.41l8.05,4.67a2.63,2.63,0,0,0,2.44,0l7.52-4.4c.69-.4.75-1,.09-1.42"/><path class="cls-8" d="M903.71,424l-8.06-4.67a2.63,2.63,0,0,0-2.44,0l-7.51,4.4c-.69.42-.75,1.06-.09,1.44l8,4.67a2.71,2.71,0,0,0,2.45,0l7.51-4.41c.69-.41.75-1,.09-1.41"/><path class="cls-8" d="M916.16,431.14l-8-4.65a2.69,2.69,0,0,0-2.44,0l-7.52,4.41c-.69.41-.75,1.05-.09,1.43l8.06,4.67a2.63,2.63,0,0,0,2.44,0l7.51-4.41c.69-.41.75-1,0-1.43"/><path class="cls-8" d="M928.62,438.36l-8.06-4.67a2.63,2.63,0,0,0-2.44,0l-7.52,4.4c-.69.42-.75,1.06-.09,1.44l8.06,4.67a2.75,2.75,0,0,0,2.44,0l7.51-4.41c.7-.41.75-1.05,0-1.43"/><path class="cls-8" d="M941.09,445.57,933,440.9a2.69,2.69,0,0,0-2.44,0l-7.51,4.41c-.7.41-.76,1.05-.1,1.41l8.06,4.67a2.67,2.67,0,0,0,2.46,0L941,447c.72-.42.75-1.06.11-1.44"/><path class="cls-8" d="M953.54,452.79l-8.08-4.67a2.63,2.63,0,0,0-2.44,0l-7.51,4.4c-.7.42-.75,1-.1,1.42l8.06,4.67a2.8,2.8,0,0,0,2.46,0l7.51-4.41c.72-.41.75-1.06.12-1.43"/><path class="cls-8" d="M966,460l-8.08-4.67a2.63,2.63,0,0,0-2.44,0L948,459.74c-.7.41-.73,1.05-.1,1.43l8.06,4.67a2.67,2.67,0,0,0,2.46,0l7.51-4.41c.72-.41.75-1,.12-1.41"/><path class="cls-8" d="M865.77,362.07l-23.72-13.75a2.69,2.69,0,0,0-2.44,0l-7.51,4.41c-.71.41-.75,1-.11,1.43l23.76,13.75a2.63,2.63,0,0,0,2.44,0l7.51-4.41c.69-.41.73-1.05.09-1.43"/><path class="cls-8" d="M1018.76,450.66,995,436.91a2.63,2.63,0,0,0-2.44,0l-7.51,4.41c-.69.41-.75,1.05-.09,1.43l23.74,13.75a2.8,2.8,0,0,0,2.46,0l7.51-4.41c.71-.41.75-1,.11-1.43"/><path class="cls-8" d="M995.66,422.23l-8-4.67a2.75,2.75,0,0,0-2.47,0l-8.95,5.26c-.7.41-.75,1.05-.1,1.41l8.06,4.67a2.63,2.63,0,0,0,2.44,0l9-5.25c.71-.42.75-1.06.11-1.43"/><path class="cls-8" d="M905.23,369.83l-12.9-7.53a2.69,2.69,0,0,0-2.44,0l-9,5.31c-.71.41-.75,1.05-.11,1.43l12.9,7.54a2.69,2.69,0,0,0,2.44,0l9-5.26c.71-.41.75-1.06.11-1.43"/><path class="cls-8" d="M983.66,415.25l-12.9-7.54a2.69,2.69,0,0,0-2.44,0l-9,5.24c-.71.41-.75,1.05-.11,1.43l12.9,7.53a2.69,2.69,0,0,0,2.44,0l9-5.25c.69-.42.75-1.06,0-1.43"/><path class="cls-8" d="M923.19,380.25l-12.89-7.54a2.69,2.69,0,0,0-2.44,0l-9,5.26c-.7.39-.76,1-.1,1.41l12.9,7.54a2.71,2.71,0,0,0,2.45,0l9-5.26c.7-.41.75-1.05.1-1.41"/><path class="cls-8" d="M898.89,379.57,955,412a2.63,2.63,0,0,0,2.44,0l9.14-5.35c.66-.37.62-1,0-1.43l-56.08-32.45Z"/><path class="cls-8" d="M1018.59,442.18l9,5.2a2.22,2.22,0,0,0,2,0l3.66-2.17c.58-.32.62-.84.1-1.16l-9-5.2a2.22,2.22,0,0,0-2,0l-3.66,2.22c-.58.34-.62.87-.1,1.17"/><path class="cls-8" d="M1006.05,434.91l9,5.2a2.2,2.2,0,0,0,2,0l3.67-2.17c.58-.32.62-.84,0-1.16l-9-5.2a2.22,2.22,0,0,0-2,0l-3.66,2.14c-.58.34-.62.87,0,1.17"/><path class="cls-8" d="M993.6,427.72l9,5.19a2.22,2.22,0,0,0,2,0l3.67-2.14c.58-.34.61-.87,0-1.17l-9-5.2a2.22,2.22,0,0,0-2,0l-3.66,2.17c-.59.32-.62.84,0,1.16"/><path class="cls-8" d="M999.57,438.72l9,5.2a2.29,2.29,0,0,0,2,0l3.66-2.15c.58-.34.62-.87.09-1.17l-9-5.18a2.14,2.14,0,0,0-2,0l-3.75,2.15c-.56.34-.6.84,0,1.17"/></g></g></g></g></g><g class="cls-26"><g class="cls-27"><path class="cls-8" d="M687.55,445.87l-8-4.61c-.63-.38-.56-1,.17-1.45l9.39-5.46a2.82,2.82,0,0,1,2.5-.12l8,4.64c.64.37.55,1-.19,1.45L690,445.78a2.77,2.77,0,0,1-2.49.09"/><path class="cls-8" d="M699.89,453l-8.08-4.61c-.64-.38-.56-1,.19-1.45l9.39-5.46a2.73,2.73,0,0,1,2.5-.1l8,4.62c.64.37.56,1-.17,1.45l-9.39,5.46a2.79,2.79,0,0,1-2.5.09"/><path class="cls-8" d="M712.21,460.15l-8-4.61c-.64-.38-.56-1,.19-1.45l9.39-5.47a2.8,2.8,0,0,1,2.52,0l8,4.62c.64.38.56,1-.19,1.45l-9.39,5.46a2.75,2.75,0,0,1-2.5,0"/><path class="cls-8" d="M729.26,454.26l-8-4.62c-.64-.38-.57-1,.18-1.45l7.91-4.58a2.76,2.76,0,0,1,2.5-.11l8,4.63c.64.36.54,1-.19,1.44l-7.91,4.69a2.84,2.84,0,0,1-2.51.09"/><path class="cls-8" d="M741.6,461.4l-8-4.62c-.64-.38-.57-1,.16-1.45l7.93-4.58a2.79,2.79,0,0,1,2.5-.11l8,4.63c.64.36.56,1-.17,1.45l-7.93,4.58a2.73,2.73,0,0,1-2.49,0"/><path class="cls-8" d="M753.94,468.55l-8-4.63c-.65-.38-.56-1,.17-1.45l7.91-4.58a2.83,2.83,0,0,1,2.52-.11l8,4.63c.64.38.56,1-.19,1.45l-7.91,4.58a2.77,2.77,0,0,1-2.49.11"/><path class="cls-8" d="M766.26,475.69l-8-4.63c-.63-.38-.56-1,.19-1.45l7.91-4.58a2.79,2.79,0,0,1,2.5-.11l8,4.63c.64.38.54,1-.19,1.45l-7.87,4.58a2.83,2.83,0,0,1-2.52.11"/><path class="cls-8" d="M778.59,482.83l-7.9-4.63c-.64-.36-.57-1,.17-1.45l7.92-4.58a2.75,2.75,0,0,1,2.5,0l8,4.61c.64.38.57,1-.17,1.45l-7.92,4.58a2.82,2.82,0,0,1-2.5.12"/><path class="cls-8" d="M790.93,490.05l-8-4.64c-.66-.36-.56-1,.17-1.45l7.91-4.58a2.78,2.78,0,0,1,2.51-.09l8,4.61c.63.38.56,1-.19,1.46l-7.91,4.57a2.76,2.76,0,0,1-2.5.12"/><path class="cls-8" d="M803.25,497.11l-8-4.62c-.64-.37-.56-1,.19-1.45l7.91-4.59a2.77,2.77,0,0,1,2.49-.1l8,4.62c.65.38.56,1-.17,1.45L805.77,497a2.83,2.83,0,0,1-2.52.1"/><path class="cls-8" d="M815.59,504.25l-8-4.62c-.64-.37-.56-1,.17-1.45l7.93-4.57a2.74,2.74,0,0,1,2.49-.12l8,4.62c.63.37.56,1-.17,1.45l-7.93,4.59a2.75,2.75,0,0,1-2.5,0"/><path class="cls-8" d="M827.93,511.39l-8-4.62c-.64-.37-.54-1,.19-1.45l7.91-4.58a2.78,2.78,0,0,1,2.51-.11l8,4.64c.64.35.57,1-.18,1.43l-7.91,4.59a2.79,2.79,0,0,1-2.5.1"/><path class="cls-8" d="M840.18,518.53l-8-4.62c-.64-.38-.57-1,.18-1.45l7.91-4.58a2.76,2.76,0,0,1,2.5-.11l8,4.63c.66.36.56,1-.17,1.45l-7.91,4.58a2.78,2.78,0,0,1-2.51.1"/><path class="cls-8" d="M747.44,450.88l-8-4.63c-.64-.36-.57-1,.16-1.45l7.93-4.58a2.76,2.76,0,0,1,2.5-.09l8,4.61c.64.38.56,1-.19,1.45L750,450.77a2.79,2.79,0,0,1-2.5.11"/><path class="cls-8" d="M735,443.63,727,439c-.63-.38-.56-1,.19-1.45L735,433a2.82,2.82,0,0,1,2.5,0l8,4.62c.64.37.55,1-.18,1.45l-7.91,4.59a2.79,2.79,0,0,1-2.5.1"/><path class="cls-8" d="M722.38,436.38l-17.2-10c-.64-.38-.56-1,.19-1.45l7.91-4.58a2.71,2.71,0,0,1,2.49-.11l17.21,10c.64.38.56,1-.19,1.45l-7.91,4.58a2.79,2.79,0,0,1-2.5.11"/><path class="cls-8" d="M731.25,427.55l-14-8.08c-.64-.38-.57-1,.18-1.45l7.91-4.58a2.76,2.76,0,0,1,2.5-.12l14,8.09c.64.37.55,1-.19,1.45l-7.9,4.57a2.76,2.76,0,0,1-2.5.12"/><path class="cls-8" d="M759.78,458l-8-4.63c-.64-.36-.55-1,.18-1.43l7.91-4.6a2.83,2.83,0,0,1,2.52-.09l8,4.61c.64.38.56,1-.19,1.45l-7.91,4.58a2.71,2.71,0,0,1-2.49.11"/><path class="cls-8" d="M772.1,465.16l-8-4.61c-.64-.38-.57-1,.18-1.45l7.91-4.6a2.82,2.82,0,0,1,2.5,0l8,4.62c.64.37.56,1-.17,1.45l-7.93,4.59a2.73,2.73,0,0,1-2.49,0"/><path class="cls-8" d="M784.44,472.3l-8-4.61c-.63-.38-.56-1,.17-1.45l7.93-4.58a2.72,2.72,0,0,1,2.5-.11l8,4.61c.64.38.56,1-.19,1.45l-7.91,4.6a2.77,2.77,0,0,1-2.49.09"/><path class="cls-8" d="M796.77,479.44l-8-4.61c-.63-.38-.54-1,.19-1.45l7.91-4.58a2.8,2.8,0,0,1,2.52-.12l8,4.64c.64.36.56,1-.19,1.43l-7.91,4.6a2.82,2.82,0,0,1-2.5.09"/><path class="cls-8" d="M809.09,486.58l-8-4.62c-.64-.37-.56-1,.19-1.45l7.91-4.57a2.82,2.82,0,0,1,2.5-.12l8,4.64c.64.36.56,1-.17,1.45l-7.93,4.58a2.75,2.75,0,0,1-2.5,0"/><path class="cls-8" d="M821.4,493.81l-8-4.63c-.63-.38-.56-1,.17-1.45l7.93-4.58A2.79,2.79,0,0,1,824,483l8,4.63c.64.38.56,1-.19,1.45l-7.91,4.58a2.77,2.77,0,0,1-2.49.11"/><path class="cls-8" d="M833.77,500.88l-8-4.64c-.64-.37-.56-1,.19-1.45l7.91-4.58a2.8,2.8,0,0,1,2.55-.16l8,4.63c.64.38.55,1-.19,1.45l-7.9,4.58a2.79,2.79,0,0,1-2.5.11"/><path class="cls-8" d="M846.09,508l-8-4.64c-.64-.36-.56-1,.19-1.45l7.91-4.58a2.73,2.73,0,0,1,2.49,0l8,4.62c.64.38.57,1-.16,1.45L848.59,508a2.79,2.79,0,0,1-2.5.11"/><path class="cls-8" d="M858.43,515.15l-8-4.63c-.64-.36-.56-1,.17-1.45l7.92-4.58a2.82,2.82,0,0,1,2.5,0l8,4.62c.64.37.57,1-.18,1.45l-7.91,4.58a2.76,2.76,0,0,1-2.5.11"/><path class="cls-8" d="M880.35,527.85l-17.41-10.1c-.66-.37-.56-1,.17-1.45l7.9-4.57a2.74,2.74,0,0,1,2.52,0l17.41,10.07c.66.38.56,1-.17,1.45l-7.9,4.47a2.77,2.77,0,0,1-2.52.11"/><path class="cls-8" d="M904.37,514l-14.71-8.52c-.63-.37-.56-1,.17-1.45l7.93-4.59a2.79,2.79,0,0,1,2.5-.1l14.7,8.52c.64.37.56,1-.19,1.45l-7.9,4.58a2.79,2.79,0,0,1-2.5.11"/><path class="cls-8" d="M781.37,456.63l-8-4.63c-.63-.36-.56-1,.19-1.45l7.91-4.58a2.75,2.75,0,0,1,2.5,0l8,4.61c.64.38.54,1-.19,1.45l-7.95,4.49a2.77,2.77,0,0,1-2.49.11"/><path class="cls-8" d="M768.81,449.3l-8-4.61c-.64-.38-.56-1,.19-1.45l7.9-4.58a2.73,2.73,0,0,1,2.5-.11l8,4.61c.64.38.55,1-.19,1.45l-7.9,4.6a2.79,2.79,0,0,1-2.5.09"/><path class="cls-8" d="M756.1,442l-8-4.69c-.64-.37-.56-1,.19-1.45l7.91-4.57a2.77,2.77,0,0,1,2.49-.12l8,4.64c.64.37.55,1-.18,1.45l-7.91,4.57a2.79,2.79,0,0,1-2.5.12"/><path class="cls-8" d="M743.46,434.67l-8-4.62c-.64-.38-.57-1,.18-1.45l7.91-4.59a2.79,2.79,0,0,1,2.5-.1l8,4.62c.64.37.54,1-.19,1.45L746,434.57a2.73,2.73,0,0,1-2.49,0"/><path class="cls-8" d="M793.69,463.77l-8-4.64c-.64-.35-.56-1,.19-1.45l7.91-4.57a2.69,2.69,0,0,1,2.5,0l8,4.61c.64.38.56,1-.17,1.45l-7.93,4.5a2.76,2.76,0,0,1-2.5.12"/><path class="cls-8" d="M806,470.91l-8-4.64c-.66-.35-.56-1,.17-1.43l7.93-4.59a2.77,2.77,0,0,1,2.49-.1l8,4.62c.63.37.56,1-.19,1.45l-7.91,4.57a2.76,2.76,0,0,1-2.5.12"/><path class="cls-8" d="M818.37,478.05l-8-4.62c-.64-.38-.56-1,.19-1.45l7.91-4.58a2.74,2.74,0,0,1,2.49-.11l8,4.62c.64.37.55,1-.18,1.45L820.87,478a2.75,2.75,0,0,1-2.5,0"/><path class="cls-8" d="M830.79,485.19l-8.08-4.56c-.64-.38-.56-1,.19-1.45l7.91-4.58a2.71,2.71,0,0,1,2.49-.11l8,4.63c.64.36.57,1-.16,1.43l-7.93,4.6a2.82,2.82,0,0,1-2.5,0"/><path class="cls-8" d="M843,492.32l-8-4.61c-.66-.38-.56-1,.17-1.45l7.92-4.58a2.73,2.73,0,0,1,2.5-.11l8,4.63c.64.36.57,1-.18,1.45l-7.91,4.58a2.73,2.73,0,0,1-2.5.09"/><path class="cls-8" d="M855.37,499.46l-8-4.61c-.64-.38-.56-1,.19-1.45l7.9-4.58a2.79,2.79,0,0,1,2.5-.11l8,4.63c.64.36.55,1-.19,1.45l-7.9,4.67a2.73,2.73,0,0,1-2.5.1"/><path class="cls-8" d="M867.69,506.62l-8-4.63c-.64-.38-.56-1,.19-1.45l7.9-4.58a2.79,2.79,0,0,1,2.5-.11l8,4.63c.64.38.57,1-.17,1.45l-7.88,4.58a2.79,2.79,0,0,1-2.5.11"/><path class="cls-8" d="M880,513.76l-7.93-4.63c-.65-.36-.56-1,.17-1.45l7.93-4.58a2.76,2.76,0,0,1,2.5-.1l8,4.62c.64.38.56,1-.19,1.45l-7.91,4.58a2.77,2.77,0,0,1-2.49.11"/><path class="cls-8" d="M892.37,520.9l-8-4.63c-.64-.36-.57-1,.19-1.45l7.9-4.58a2.76,2.76,0,0,1,2.5-.1l8,4.62c.64.38.55,1-.19,1.45l-7.9,4.58a2.76,2.76,0,0,1-2.5.11"/><path class="cls-8" d="M774.88,439l-8-4.63c-.66-.36-.56-1,.17-1.43l7.93-4.6a2.77,2.77,0,0,1,2.49-.09l8,4.61c.63.38.56,1-.19,1.45l-7.91,4.58a2.72,2.72,0,0,1-2.5.11"/><path class="cls-8" d="M762.59,431.86l-8-4.63c-.64-.36-.56-1,.19-1.45l7.91-4.58a2.73,2.73,0,0,1,2.49,0l8,4.61c.64.38.55,1-.18,1.45l-8,4.49a2.81,2.81,0,0,1-2.51.11"/><path class="cls-8" d="M750.33,424.76l-8-4.64c-.64-.37-.57-1,.17-1.45l7.92-4.57a2.82,2.82,0,0,1,2.5-.12l8,4.64c.64.37.57,1-.17,1.45l-7.92,4.58a2.82,2.82,0,0,1-2.5.11"/><path class="cls-8" d="M738.07,417.64l-8-4.62c-.64-.37-.55-1,.18-1.45l7.91-4.57a2.8,2.8,0,0,1,2.52-.12l8,4.64c.64.35.56,1-.19,1.43l-7.83,4.59a2.79,2.79,0,0,1-2.5.1"/><path class="cls-8" d="M750.69,410.33l-8-4.62c-.64-.37-.57-1,.18-1.45l2.61-1.5a2.76,2.76,0,0,1,2.5-.12l8,4.64c.64.36.55,1-.18,1.43l-2.62,1.53a2.73,2.73,0,0,1-2.49.09"/><path class="cls-8" d="M766.69,419.62l-8-4.64c-.64-.37-.57-1,.18-1.45l2.61-1.5a2.79,2.79,0,0,1,2.5-.12l8,4.64c.64.37.57,1-.16,1.45l-2.63,1.5a2.82,2.82,0,0,1-2.5.12"/><path class="cls-8" d="M778.91,426.68l-8-4.62c-.65-.37-.56-1,.17-1.45l2.61-1.5a2.8,2.8,0,0,1,2.52-.12l8,4.64c.64.36.56,1-.19,1.43l-2.61,1.53a2.76,2.76,0,0,1-2.5.09"/><path class="cls-8" d="M791.14,433.76l-8-4.63c-.64-.36-.56-1,.19-1.43l2.61-1.53a2.73,2.73,0,0,1,2.5-.09l8,4.61c.64.38.54,1-.19,1.45l-2.61,1.51a2.73,2.73,0,0,1-2.5.11"/><path class="cls-8" d="M803.35,440.84l-8-4.63c-.64-.38-.57-1,.18-1.45l2.61-1.51a2.79,2.79,0,0,1,2.5-.11l8,4.63c.64.38.57,1-.16,1.45l-2.63,1.51a2.79,2.79,0,0,1-2.5.11"/><path class="cls-8" d="M871.58,480.34l-8-4.63c-.66-.36-.57-1,.17-1.43l2.61-1.53a2.78,2.78,0,0,1,2.51,0l8,4.62c.64.38.57,1-.18,1.45l-2.61,1.51a2.76,2.76,0,0,1-2.5.11"/><path class="cls-8" d="M883.79,487.43l-7.93-4.64c-.64-.37-.56-1,.19-1.45l2.61-1.5a2.79,2.79,0,0,1,2.5-.12l7.85,4.67c.65.38.56,1-.17,1.45l-2.61,1.51a2.83,2.83,0,0,1-2.52.11"/><path class="cls-8" d="M896,494.49l-8-4.61c-.64-.38-.56-1,.19-1.45l2.61-1.53a2.79,2.79,0,0,1,2.5-.09l8,4.61c.64.38.56,1-.17,1.45l-2.63,1.53a2.82,2.82,0,0,1-2.5.09"/><path class="cls-8" d="M908.24,501.57l-8-4.63c-.63-.36-.56-1,.17-1.43l2.61-1.53a2.77,2.77,0,0,1,2.52-.09l8,4.61c.64.38.57,1-.18,1.45l-2.62,1.51a2.71,2.71,0,0,1-2.49.11"/><path class="cls-8" d="M787.2,446.1l-8-4.61c-.63-.38-.56-1,.19-1.46l7.91-4.57a2.76,2.76,0,0,1,2.5-.12l8,4.62c.64.38.54,1-.19,1.45l-7.91,4.6a2.84,2.84,0,0,1-2.51,0"/><path class="cls-8" d="M799.54,453.24l-8-4.63c-.63-.38-.56-1,.19-1.46l7.91-4.57a2.76,2.76,0,0,1,2.5-.12l8,4.64c.64.36.56,1-.17,1.43l-7.93,4.6a2.8,2.8,0,0,1-2.49.09"/><path class="cls-8" d="M811.87,460.38l-8-4.62c-.65-.37-.56-1,.17-1.45l8-4.57a2.75,2.75,0,0,1,2.51-.12l8,4.64c.64.35.57,1-.18,1.45l-7.91,4.57a2.73,2.73,0,0,1-2.5.1"/><path class="cls-8" d="M824.19,467.44l-8-4.61c-.64-.38-.56-1,.19-1.45l7.91-4.58a2.77,2.77,0,0,1,2.49-.11l8,4.63c.63.36.54,1-.19,1.45l-7.91,4.67a2.8,2.8,0,0,1-2.52,0"/><path class="cls-8" d="M836.53,474.67l-8-4.63c-.64-.38-.56-1,.19-1.45l7.91-4.58a2.77,2.77,0,0,1,2.49-.11l8,4.63c.63.38.56,1-.17,1.45L839,474.56a2.79,2.79,0,0,1-2.5.11"/><path class="cls-8" d="M848.87,481.81l-8-4.63c-.66-.36-.56-1,.17-1.45l7.91-4.58a2.75,2.75,0,0,1,2.51-.09l8,4.61c.64.38.57,1-.18,1.45l-7.83,4.58a2.79,2.79,0,0,1-2.5.11"/><path class="cls-8" d="M861.19,489l-8-4.56c-.64-.35-.56-1,.19-1.45l7.91-4.57a2.67,2.67,0,0,1,2.49,0l8,4.61c.64.38.55,1-.18,1.45L863.71,489a2.77,2.77,0,0,1-2.52.11"/><path class="cls-8" d="M873.53,496.09l-8-4.63c-.64-.36-.56-1,.17-1.43l7.92-4.6a2.79,2.79,0,0,1,2.5-.09l8,4.71c.64.37.57,1-.17,1.45L876,496.07a2.76,2.76,0,0,1-2.5.12"/><path class="cls-8" d="M885.87,503.23l-8-4.61c-.66-.38-.57-1,.17-1.45l7.9-4.6a2.83,2.83,0,0,1,2.52-.09l8,4.61c.64.38.57,1-.19,1.45l-7.9,4.69a2.79,2.79,0,0,1-2.5.09"/><path class="cls-8" d="M716.69,447l-23.51-13.62c-.64-.38-.56-1,.19-1.45l7.9-4.58a2.79,2.79,0,0,1,2.5-.11l23.52,13.61c.63.38.56,1-.17,1.46l-7.93,4.57a2.76,2.76,0,0,1-2.5.12"/><path class="cls-8" d="M868.2,534.73l-23.52-13.62c-.63-.38-.56-1,.19-1.45l7.91-4.6a2.79,2.79,0,0,1,2.5-.09l23.53,13.61c.64.38.54,1-.19,1.45l-7.91,4.58a2.84,2.84,0,0,1-2.51.12"/><path class="cls-8" d="M818.88,521.94l-8-4.64c-.64-.36-.57-1,.19-1.45l9.39-5.44a2.74,2.74,0,0,1,2.49-.12l8,4.64c.63.36.56,1-.19,1.45l-9.39,5.44a2.8,2.8,0,0,1-2.52.12"/><path class="cls-8" d="M729.37,470.08l-12.77-7.4c-.66-.38-.56-1,.17-1.45l9.39-5.47a2.79,2.79,0,0,1,2.5-.09l12.77,7.38c.64.38.56,1-.17,1.45L731.87,470a2.79,2.79,0,0,1-2.5.11"/><path class="cls-8" d="M807,515.06l-12.77-7.4c-.66-.38-.56-1,.17-1.45l9.39-5.47a2.76,2.76,0,0,1,2.5-.09L819.07,508c.64.38.56,1-.17,1.45L809.51,515a2.79,2.79,0,0,1-2.5.11"/><path class="cls-8" d="M747.12,480.38,734.35,473c-.64-.38-.57-1,.19-1.45l9.39-5.46a2.77,2.77,0,0,1,2.49-.1l12.77,7.39c.64.37.57,1-.18,1.45l-9.39,5.46a2.79,2.79,0,0,1-2.5.11"/><path class="cls-8" d="M746.54,466l55.53,32.15c.7.42.7,1.06,0,1.45l-9.61,5.66a2.82,2.82,0,0,1-2.5,0l-55.52-32.18Z"/><path class="cls-8" d="M853.32,534.88l8.89,5.16c.52.3.47.83-.15,1.18l-3.85,2.23a2.25,2.25,0,0,1-2.05.09l-8.9-5.16c-.53-.3-.45-.83.15-1.19l3.85-2.22a2.27,2.27,0,0,1,2.06,0"/><path class="cls-8" d="M840.93,527.72l8.88,5.14c.53.32.47.85-.15,1.19l-3.85,2.2a2.19,2.19,0,0,1-2,0l-8.9-5.14c-.52-.3-.45-.83.15-1.19l3.85-2.2a2.35,2.35,0,0,1,2.07,0"/><path class="cls-8" d="M828.59,520.54l8.88,5.14c.53.31.47.85-.13,1.19l-3.87,2.24a2.19,2.19,0,0,1-2.05,0L822.54,524c-.52-.3-.47-.83.13-1.19l3.87-2.24a2.31,2.31,0,0,1,2.05,0"/><path class="cls-8" d="M847.69,523.74l8.9,5.15c.53.3.45.82-.15,1.18l-3.85,2.24a2.35,2.35,0,0,1-2.07,0l-8.88-5.14c-.52-.32-.47-.85.15-1.18l3.85-2.25a2.25,2.25,0,0,1,2.05,0"/></g></g><path class="cls-3" d="M973.52,331.29a3.79,3.79,0,0,1-1.88-.54,5.47,5.47,0,0,1-2.59-5.52,2.68,2.68,0,0,1,1.56-2,3.25,3.25,0,0,1,2.95.3,5.47,5.47,0,0,1,2.61,5.52,2.67,2.67,0,0,1-2.67,2.22m-1.88-7.42a2,2,0,0,0-.75.15,1.88,1.88,0,0,0-1.07,1.41A4.57,4.57,0,0,0,972,330a2.48,2.48,0,0,0,2.2.27,1.92,1.92,0,0,0,1.07-1.4,4.58,4.58,0,0,0-2.2-4.58,3,3,0,0,0-1.45-.43"/><path class="cls-3" d="M983.72,337.17a3.78,3.78,0,0,1-1.88-.53,5.45,5.45,0,0,1-2.61-5.52,2.76,2.76,0,0,1,1.56-2,3.33,3.33,0,0,1,3,.32,5.51,5.51,0,0,1,2.61,5.52,2.72,2.72,0,0,1-2.67,2.2m-1.88-7.4a1.71,1.71,0,0,0-.77.15,1.91,1.91,0,0,0-1.07,1.39,4.54,4.54,0,0,0,2.22,4.58,2.43,2.43,0,0,0,2.17.28,1.89,1.89,0,0,0,1.08-1.41,4.58,4.58,0,0,0-2.2-4.58,2.89,2.89,0,0,0-1.43-.41"/><path class="cls-3" d="M996.06,340.75a2.45,2.45,0,0,1-2.91,1.87,2.27,2.27,0,0,1-1-.46,5,5,0,0,1-2.41-5.05,2.43,2.43,0,0,1,2.86-1.89,2.33,2.33,0,0,1,1,.48,5,5,0,0,1,2.41,5.05"/><polygon class="cls-3" points="801.15 228.22 795.7 225.07 796.14 222.55 801.56 225.7 801.15 228.22"/><polygon class="cls-3" points="809.06 232.8 803.61 229.65 804.04 227.13 809.47 230.27 809.06 232.8"/><polygon class="cls-3" points="793.32 223.7 781.39 216.79 781.83 214.26 793.75 221.18 793.32 223.7"/><polygon class="cls-3" points="794.82 271.28 785.71 266.01 786.07 263.9 795.18 269.17 794.82 271.28"/><polygon class="cls-3" points="802.6 275.78 798.03 273.14 798.39 271.04 802.95 273.67 802.6 275.78"/><polygon class="cls-3" points="796.68 277.78 792.81 275.54 793.15 273.43 797.04 275.67 796.68 277.78"/><polygon class="cls-3" points="803.18 281.55 798.63 278.91 798.97 276.8 803.54 279.44 803.18 281.55"/><polygon class="cls-3" points="809.87 290.85 791.99 280.49 792.32 278.38 810.22 288.74 809.87 290.85"/><polygon class="cls-3" points="794.35 332.27 776.47 321.91 776.83 319.8 794.71 330.16 794.35 332.27"/><polygon class="cls-3" points="801.24 336.25 796.68 333.61 797.04 331.5 801.58 334.14 801.24 336.25"/><polygon class="cls-3" points="795.03 287.69 791.16 285.43 791.5 283.32 795.38 285.58 795.03 287.69"/><polygon class="cls-3" points="801.53 291.44 796.98 288.8 797.32 286.69 801.88 289.32 801.53 291.44"/><polygon class="cls-3" points="800.15 296.07 790.33 290.38 790.67 288.27 800.51 293.96 800.15 296.07"/><polygon class="cls-3" points="806.73 299.89 802.18 297.25 802.54 295.15 807.09 297.78 806.73 299.89"/><polygon class="cls-3" points="813.36 303.72 808.79 301.08 809.15 298.97 813.7 301.61 813.36 303.72"/><polygon class="cls-3" points="824.02 309.89 815.42 304.92 815.76 302.81 824.38 307.79 824.02 309.89"/><polygon class="cls-3" points="817.21 316.81 812.66 314.17 813.02 312.06 817.57 314.7 817.21 316.81"/><polygon class="cls-3" points="827.89 322.99 819.27 317.99 819.63 315.88 828.25 320.88 827.89 322.99"/><polygon class="cls-3" points="793.23 302.91 788.66 300.27 789.02 298.16 793.56 300.8 793.23 302.91"/><polygon class="cls-3" points="799.84 306.75 795.29 304.11 795.65 302 800.19 304.64 799.84 306.75"/><polygon class="cls-3" points="810.52 312.93 801.9 307.94 802.26 305.83 810.86 310.82 810.52 312.93"/><polygon class="cls-3" points="824.5 315.6 819.95 312.96 820.31 310.86 824.85 313.49 824.5 315.6"/><polygon class="cls-3" points="831.13 319.43 826.56 316.79 826.92 314.68 831.48 317.32 831.13 319.43"/><polygon class="cls-3" points="841.79 325.62 833.17 320.63 833.53 318.52 842.15 323.49 841.79 325.62"/><polygon class="cls-3" points="808.36 340.37 803.8 337.74 804.15 335.63 808.7 338.26 808.36 340.37"/><polygon class="cls-3" points="819.03 346.55 810.43 341.56 810.77 339.45 819.39 344.44 819.03 346.55"/><polygon class="cls-3" points="791.57 312.81 787.01 310.18 787.37 308.07 791.91 310.7 791.57 312.81"/><polygon class="cls-3" points="802.24 318.99 793.62 314 793.98 311.89 802.6 316.88 802.24 318.99"/><polygon class="cls-3" points="813.32 348.66 808.76 346.04 809.11 343.91 813.68 346.55 813.32 348.66"/><polygon class="cls-3" points="823.99 354.86 815.39 349.87 815.72 347.75 824.35 352.75 823.99 354.86"/><polygon class="cls-3" points="823.46 298.72 818.92 296.09 819.27 293.98 823.82 296.62 823.46 298.72"/><polygon class="cls-3" points="816.59 294.73 812.04 292.09 812.38 289.98 816.95 292.62 816.59 294.73"/><polygon class="cls-3" points="834.15 304.9 825.53 299.91 825.88 297.8 834.5 302.79 834.15 304.9"/><polygon class="cls-3" points="793.6 297.71 789.51 295.33 789.85 293.22 793.96 295.6 793.6 297.71"/><polygon class="cls-3" points="805.77 304.75 795.8 298.99 796.15 296.86 806.13 302.64 805.77 304.75"/><polygon class="cls-3" points="817.96 311.82 807.97 306.03 808.33 303.92 818.32 309.71 817.96 311.82"/><polygon class="cls-3" points="840.48 308.56 836.36 306.18 836.72 304.07 840.82 306.45 840.48 308.56"/><polygon class="cls-3" points="852.65 315.62 842.67 309.84 843.01 307.73 853 313.51 852.65 315.62"/><polygon class="cls-3" points="864.82 322.67 854.85 316.88 855.2 314.77 865.17 320.56 864.82 322.67"/><polygon class="cls-3" points="797.9 311.06 787.93 305.28 788.29 303.17 798.26 308.95 797.9 311.06"/><polygon class="cls-3" points="803.18 314.1 800.1 312.32 800.46 310.21 803.52 311.99 803.18 314.1"/><polygon class="cls-3" points="808.44 317.17 805.38 315.38 805.73 313.27 808.79 315.06 808.44 317.17"/><polygon class="cls-3" points="818.18 322.8 810.65 318.43 811.01 316.32 818.54 320.69 818.18 322.8"/><polygon class="cls-3" points="829.12 312.85 826.05 311.08 826.41 308.95 829.47 310.74 829.12 312.85"/><polygon class="cls-3" points="838.86 318.48 831.33 314.13 831.69 312.02 839.22 316.37 838.86 318.48"/><polygon class="cls-3" points="840.91 319.67 833.38 315.32 833.74 313.19 841.27 317.56 840.91 319.67"/><polygon class="cls-3" points="800.77 346.83 790.93 341.14 791.29 339.03 801.13 344.72 800.77 346.83"/><polygon class="cls-3" points="807.35 350.64 802.8 348 803.16 345.89 807.71 348.53 807.35 350.64"/><polygon class="cls-3" points="813.96 354.48 809.41 351.84 809.77 349.73 814.32 352.37 813.96 354.48"/><polygon class="cls-3" points="824.64 360.66 816.02 355.67 816.38 353.56 825 358.55 824.64 360.66"/><polygon class="cls-3" points="831.48 364.61 826.92 361.98 827.27 359.87 831.82 362.5 831.48 364.61"/><polygon class="cls-3" points="842.15 370.79 833.53 365.8 833.88 363.69 842.51 368.68 842.15 370.79"/><polygon class="cls-3" points="809.39 362.67 804.85 360.04 805.21 357.93 809.75 360.56 809.39 362.67"/><polygon class="cls-3" points="820.08 368.85 811.46 363.88 811.82 361.77 820.42 366.76 820.08 368.85"/><polygon class="cls-3" points="785.62 348.92 781.07 346.29 781.43 344.18 785.98 346.81 785.62 348.92"/><polygon class="cls-3" points="792.25 352.75 787.68 350.11 788.04 348 792.59 350.64 792.25 352.75"/><polygon class="cls-3" points="802.92 358.93 794.31 353.95 794.65 351.82 803.27 356.82 802.92 358.93"/><polygon class="cls-3" points="794.22 348.45 790.11 346.08 790.46 343.97 794.58 346.36 794.22 348.45"/><polygon class="cls-3" points="806.39 355.52 796.42 349.73 796.76 347.62 806.75 353.41 806.39 355.52"/><polygon class="cls-3" points="818.56 362.56 808.59 356.78 808.95 354.67 818.92 360.45 818.56 362.56"/><polygon class="cls-3" points="782.26 352.39 772.28 346.63 772.64 344.52 782.61 350.28 782.26 352.39"/><polygon class="cls-3" points="787.53 355.44 784.45 353.67 784.81 351.56 787.89 353.33 787.53 355.44"/><polygon class="cls-3" points="792.79 358.49 789.73 356.72 790.09 354.61 793.15 356.38 792.79 358.49"/><polygon class="cls-3" points="802.54 364.14 795.01 359.77 795.37 357.66 802.9 362.03 802.54 364.14"/><polygon class="cls-3" points="804.61 365.33 797.06 360.96 797.41 358.85 804.94 363.22 804.61 365.33"/><polygon class="cls-3" points="786.76 333.29 783.7 331.52 784.06 329.41 787.12 331.18 786.76 333.29"/><polygon class="cls-3" points="796.51 338.94 788.96 334.57 789.32 332.46 796.87 336.83 796.51 338.94"/><polygon class="cls-3" points="806.47 344.7 798.93 340.33 799.27 338.22 806.82 342.59 806.47 344.7"/><polygon class="cls-3" points="844.85 377.78 840.29 375.14 840.65 373.03 845.21 375.67 844.85 377.78"/><polygon class="cls-3" points="855.52 383.96 846.92 378.97 847.26 376.86 855.88 381.85 855.52 383.96"/><polygon class="cls-3" points="828.04 368.04 820.5 363.69 820.85 361.58 828.4 365.93 828.04 368.04"/><polygon class="cls-3" points="838 373.82 830.47 369.45 830.82 367.35 838.36 371.71 838 373.82"/><polygon class="cls-3" points="781.43 312.36 778.37 310.59 778.73 308.48 781.79 310.25 781.43 312.36"/><polygon class="cls-3" points="791.18 318.01 783.65 313.64 783.99 311.53 791.53 315.9 791.18 318.01"/><polygon class="cls-3" points="801.13 323.78 793.6 319.41 793.96 317.3 801.49 321.67 801.13 323.78"/><path class="cls-3" d="M951.6,400.7a4.11,4.11,0,0,1-2.1-.62l-60.94-35.3a8.36,8.36,0,0,1-3.59-8.11l3.89-23.32a4.34,4.34,0,0,1,2.23-3.36,3.75,3.75,0,0,1,3.53.29l61,35.29a8.38,8.38,0,0,1,3.57,8.12L955.26,397a4.32,4.32,0,0,1-2.23,3.35,3.36,3.36,0,0,1-1.43.32m-59.08-70.18a2.39,2.39,0,0,0-1,.25,3.49,3.49,0,0,0-1.77,2.71l-3.89,23.32a7.54,7.54,0,0,0,3.16,7.25l61,35.3a2.92,2.92,0,0,0,2.72.26,3.56,3.56,0,0,0,1.77-2.73l3.91-23.32a7.54,7.54,0,0,0-3.18-7.23l-61-35.3a3.3,3.3,0,0,0-1.67-.51"/><path class="cls-3" d="M944.92,440.77a4.33,4.33,0,0,1-2.13-.6l-60.94-35.3a8.39,8.39,0,0,1-3.59-8.12l3.89-23.34a4.36,4.36,0,0,1,2.24-3.33,3.73,3.73,0,0,1,3.53.28l61,35.3a8.43,8.43,0,0,1,3.59,8.12l-3.91,23.34a4.34,4.34,0,0,1-2.23,3.35,3.47,3.47,0,0,1-1.41.3m-1.69-1.34a3,3,0,0,0,2.74.27,3.59,3.59,0,0,0,1.74-2.74l3.91-23.31a7.55,7.55,0,0,0-3.17-7.26l-61-35.28a2.89,2.89,0,0,0-2.73-.26,3.5,3.5,0,0,0-1.76,2.71l-3.89,23.32a7.53,7.53,0,0,0,3.17,7.25Z"/><g class="cls-24"><g class="cls-28"><g class="cls-29"><polygon class="cls-30" points="875.37 383.62 901.63 322.06 961.98 347.95 935.72 409.51 875.37 383.62"/></g></g></g><path class="cls-3" d="M935.68,431.65a6.07,6.07,0,0,1-2.67-3.76l-4.38-18.14c-.47-1.89-2-3.43-3.11-3.47a.89.89,0,0,0-.91.72l-1.31,4.06a1.76,1.76,0,0,1-1,1.17,2.3,2.3,0,0,1-2-.28l-.9-.53a6,6,0,0,1-2.58-3.52,4.43,4.43,0,0,0-3-3.3.84.84,0,0,0-.9.55l-1.45,3.07a1.72,1.72,0,0,1-1,.94,2.24,2.24,0,0,1-1.88-.32l-1-.6a6,6,0,0,1-2.63-3.77l-4.39-19.61a4.46,4.46,0,0,0-3.08-3.54.9.9,0,0,0-.93.66l-7.11,19.48a1.72,1.72,0,0,1-1,1.11,2.4,2.4,0,0,1-2-.3l.43-.74a1.48,1.48,0,0,0,1.24.23.88.88,0,0,0,.55-.58l7.1-19.5a1.71,1.71,0,0,1,1.76-1.21,5.23,5.23,0,0,1,3.89,4.2l4.38,19.61a5.31,5.31,0,0,0,2.23,3.22l1,.61a1.65,1.65,0,0,0,1.22.26.91.91,0,0,0,.53-.49l1.45-3.09a1.65,1.65,0,0,1,1.74-1,5.21,5.21,0,0,1,3.76,3.92,5.37,5.37,0,0,0,2.16,3l.92.52a1.61,1.61,0,0,0,1.26.23,1,1,0,0,0,.54-.64l1.32-4.07a1.74,1.74,0,0,1,1.67-1.32h0a5.17,5.17,0,0,1,3.91,4.13l4.39,18.14a5.23,5.23,0,0,0,2.23,3.18Z"/><path class="cls-3" d="M911.22,310.67a5.46,5.46,0,0,1-2.66-.76l-47.72-27.59a8.57,8.57,0,0,1-3.67-9.18,5.14,5.14,0,0,1,2.9-3.5,4.82,4.82,0,0,1,4.35.43l47.67,27.6a8.47,8.47,0,0,1,3.66,9.15,5.09,5.09,0,0,1-2.89,3.51,4.47,4.47,0,0,1-1.69.34m-49.41-40.5a3.45,3.45,0,0,0-1.38.26,4.31,4.31,0,0,0-2.38,2.94,7.53,7.53,0,0,0,3.27,8.19L909,309.22a4,4,0,0,0,3.63.37,4.22,4.22,0,0,0,2.38-2.94,7.53,7.53,0,0,0-3.27-8.19l-47.64-27.59a4.32,4.32,0,0,0-2.26-.64"/></g></g></svg>