<svg id="Camada_1" data-name="Camada 1" xmlns="http://www.w3.org/2000/svg" xmlns:xlink="http://www.w3.org/1999/xlink" viewBox="0 0 1200 800"><defs><style>.cls-1{fill-rule:evenodd;opacity:0.8;isolation:isolate;fill:url(#Gradiente_sem_nome);}</style><radialGradient id="Gradiente_sem_nome" cx="600" cy="360.81" r="360.8" gradientTransform="matrix(1, 0, 0, -1, 0, 800)" gradientUnits="userSpaceOnUse"><stop offset="0" stop-color="#fb4fa6"/><stop offset="1" stop-color="#3761b4"/></radialGradient></defs><title>Prancheta 1</title><g id="gui"><path class="cls-1" d="M1166.7,84.6a9.36,9.36,0,0,1-8.9,0,1.29,1.29,0,0,1-.3-.2l-138.8,80.1v99.7L1200,159.6v1.6L984.9,285.4V395.7l-116.1,67,20.6,11.8,112.9-65.2-.3-.6,107.4-62.1V333.1l21.8-12.6V281.6l68.8-39.7v1.7l-67.3,38.9v37.1l27.7-16c-1.8-1.4-1.6-3.4.7-4.7a9.56,9.56,0,0,1,9,0c2.4,1.4,2.4,3.7,0,5.2a10.18,10.18,0,0,1-8.2.3l-51,29.5v13.5L1004.2,409h49.6L1200,324.6v1.6L1056.6,409H1200v1.4H1003.2L890.8,475.3,912,487.6l81.6-47,.1-.1H1200v1.4H1053.8l44.5,25.6H1200V469H1097.9L1051,441.9H994.1l-80.6,46.5,18.7,10.8,71.3-41.2.2-.1h28.8l58.3,33.7H1200V493H1090.4l-58.3-33.6h-28l-51.8,29.9h25.9l25.3-14.6h19.6l43.6,25.2a10.32,10.32,0,0,1,8.1.4c2.5,1.5,2.5,3.8,0,5.2a10.17,10.17,0,0,1-9,0c-2.3-1.3-2.4-3.4-.5-4.8l-42.6-24.6h-18.9l-25.2,14.6H949.8l-16.2,9.4L960,515.3h38.8l48.2,27.8a9.79,9.79,0,0,1,8.2.3c2.4,1.5,2.4,3.8,0,5.2a10.17,10.17,0,0,1-9,0c-2.3-1.3-2.5-3.3-.7-4.7l-47-27.2H962.4l12.4,7.2L955.6,535l52.1,30.1h54.8l57.8-33.4c-1.8-1.4-1.6-3.5.6-4.7a9.56,9.56,0,0,1,9,0c2.5,1.4,2.5,3.7,0,5.1a10.15,10.15,0,0,1-8.2.4l-29.8,17.2H1200v1.6l-.4-.2H1089.5L1063,566.4l-.1.1h-52.8l21.6,12.5h124l32.1,18.4H1200v1.5h-9.8l9.8,5.6v1.6l-44.6-25.7h-124l-77.3-44.6-35.9,20.8,89.8,51.8h96.7l95.3,55.1v1.6l-95.7-55.2h-93.8l118.6,68.5v54.8l70.9,40.9v1.7L1127.7,734V679.2l-211-121.8-30.9,17.9,126.8,73.2V758.7l71.5,41.3h-2.9l-70.1-40.5V649.3L884.3,576.1l-19.1,11,94,54.3V770.6l45.1,26V800h-1.4v-2.5l-45.1-26.1V642.2l-94-54.3L838,602.8l71.9,41.5V800h-1.4V733.7l-36,20.8V800H871V753.7l37.5-21.6V694l-47.4,27.4c1.6,1.4,1.4,3.3-.8,4.6a10.17,10.17,0,0,1-9,0c-2.5-1.4-2.5-3.8,0-5.2a10.24,10.24,0,0,1,8.4-.3l48.8-28.2V645.2l-71.9-41.6-22.9,13.3,34.9,20.2v29.7l-8.8,5.1V687l-63,36.4V749l-51.3,29.6c1.8,1.5,1.6,3.5-.6,4.8a10.17,10.17,0,0,1-9,0c-2.5-1.5-2.5-3.8,0-5.2a10.15,10.15,0,0,1,8.2-.4l51.3-29.6V722.6l62.9-36.4V672.7L732.5,733.8c1.7,1.4,1.4,3.4-.8,4.6a9.56,9.56,0,0,1-9,0c-2.4-1.4-2.4-3.7,0-5.2a9.87,9.87,0,0,1,8.4-.2L816,684H773.4l-48.8,28.2c1.8,1.4,1.6,3.4-.7,4.7a10,10,0,0,1-8.9,0c-2.5-1.4-2.5-3.8,0-5.2a9.93,9.93,0,0,1,8.1-.4l49.7-28.7h45.5L847.2,666V637.9l-35-20.2-6.9,4-9-5.2L649.6,701.2l-.2.1h-40a3.4,3.4,0,0,1-1.7,1.9,10.17,10.17,0,0,1-9,0c-2.5-1.4-2.5-3.8,0-5.2a10.17,10.17,0,0,1,9,0,3.4,3.4,0,0,1,1.7,1.9h39.7l145.8-84.2-22.3-12.9L650.7,673.2c1.8,1.4,1.6,3.4-.7,4.7a9.36,9.36,0,0,1-8.9,0c-2.5-1.4-2.5-3.7,0-5.1a9.77,9.77,0,0,1,8.2-.4L771.2,602l-23.1-13.3L575.8,688.1v83.3L625.4,800h-2.9L593,782.9,563.4,800h-2.8l31-17.9-17.2-9.9V706.7l-29.1,16.8v40.9L486,798.6a4.09,4.09,0,0,1,1.1,1.4H474.7a3.65,3.65,0,0,1,1.7-1.8,10.17,10.17,0,0,1,8.2-.4l59.2-34.2V722.7l30.6-17.6V687.3l172.2-99.4-25.3-14.7L387.3,766v34h-1.4V765.2L719.8,572.4l-20.5-11.9L527.2,659.9l-.2.1H401.8l-55.2,31.9h.3v33.9l-62.5,36.1c1.8,1.4,1.6,3.4-.7,4.7a10.17,10.17,0,0,1-9,0c-2.4-1.4-2.4-3.7,0-5.2a9.79,9.79,0,0,1,8.2-.3l62.6-36.2V692.5l-94.9,54.8-.2.1H40.1L0,724.2v-1.6L40.5,746H250l151.3-87.4H526.7l171.2-98.9-18.1-10.4-162.9,94-.1.1H373.1l-70,40.4c1.8,1.4,1.6,3.4-.7,4.7a9.36,9.36,0,0,1-8.9,0c-2.5-1.4-2.5-3.7,0-5.2a9.76,9.76,0,0,1,8.2-.3l70.8-40.9.2-.1H516.4l24.1-14H348.4L196.6,540.4a10.15,10.15,0,0,1-8.2-.4c-2.5-1.4-2.5-3.7,0-5.2a10.17,10.17,0,0,1,9,0c2.2,1.3,2.4,3.3.6,4.8l150.8,87H543l60.7-35-23.9-13.8H537.5l-39.7-22.9a10.19,10.19,0,0,1-8.2-.4c-2.4-1.4-2.4-3.7,0-5.2a10.17,10.17,0,0,1,9,0c2.3,1.3,2.5,3.3.7,4.8l38.6,22.3h39.5l-92.3-53.3H399.8l-47.6,27.5c1.8,1.4,1.6,3.4-.7,4.7a10,10,0,0,1-8.9,0c-2.5-1.4-2.5-3.8,0-5.2a10.15,10.15,0,0,1,8.2-.4l48.4-27.9.2-.1h86.1l119.6,69L656,561.4H627.9l-22.6-13.1a10,10,0,0,1-8.3-.3c-2.5-1.4-2.5-3.7,0-5.2a10.17,10.17,0,0,1,9,0c2.2,1.3,2.4,3.3.7,4.7L628.3,560h30.1l20-11.6-42.6-24.5,13.3-7.7-73.4-42.5H551.2l-29.3,16.9c1.8,1.5,1.6,3.5-.6,4.8a10.17,10.17,0,0,1-9,0c-2.5-1.5-2.5-3.8,0-5.2a10.15,10.15,0,0,1,8.2-.4l30.1-17.4.2-.1h25.3l53.3,30.8V474.9l-50-28.9a9.76,9.76,0,0,1-8.2-.3c-2.5-1.5-2.5-3.8,0-5.2a9.56,9.56,0,0,1,9,0c2.2,1.3,2.4,3.3.6,4.7l50.1,28.9V504l19.7,11.3,69.2-40-32.1-18.5H646l-65.9-38.1h-50l-69.5,40.2c1.8,1.4,1.6,3.4-.6,4.7a10.17,10.17,0,0,1-9,0c-2.5-1.4-2.5-3.8,0-5.2a10.15,10.15,0,0,1,8.2-.4l70.4-40.6.1-.1h50.8l65.9,38.1h38.8l-193-111.5H355.8l-86-49.6-.3-.2V217.8a9.58,9.58,0,0,1-5.1-1.1c-2.5-1.4-2.5-3.7,0-5.1a9.56,9.56,0,0,1,9,0c2.4,1.4,2.4,3.7,0,5.1a6.79,6.79,0,0,1-2.5.9v75.6l85.2,49.3H492.5l228.8,132,25.9-15L516.3,326.2l-.4-.2V246.3l-79-45.6a10.19,10.19,0,0,1-8.2-.4c-2.4-1.4-2.4-3.7,0-5.1a9.56,9.56,0,0,1,9,0c2.3,1.2,2.5,3.3.7,4.7L517,245.3l.4.2v79.7L748.6,458.7,775.9,443,640.4,364.8l-.3-.3V296.2L872.8,161.8c-1.8-1.4-1.6-3.4.6-4.7a10.17,10.17,0,0,1,9,0c2.5,1.4,2.5,3.7,0,5.2a9.76,9.76,0,0,1-8.2.3L703.1,261.4h51.4l92.3-53.2c-1.8-1.5-1.6-3.5.6-4.8a10.17,10.17,0,0,1,9,0c2.5,1.5,2.5,3.8,0,5.2a10.15,10.15,0,0,1-8.2.4l-93.1,53.7-.2.1H700.7L641.5,297v66.7l109.1,63V392.8l-67-38.7-.4-.2V319.5a9.29,9.29,0,0,1-3.8-1c-2.5-1.4-2.5-3.7,0-5.2a10.17,10.17,0,0,1,9,0c2.5,1.5,2.5,3.8,0,5.2a9.29,9.29,0,0,1-3.8,1v33.6l67,38.6.4.2v35.6l25.3,14.6,28-16.1,17,9.8V361.7l-59.1-34.1a10.15,10.15,0,0,1-8.2-.4c-2.5-1.4-2.5-3.7,0-5.1a9.56,9.56,0,0,1,9,0c2.2,1.2,2.4,3.3.6,4.7l58.8,33.9.3.2v30.2l44.2-25.5V337l-96.4-55.7a9.8,9.8,0,0,1-8.2-.4c-2.4-1.4-2.4-3.7,0-5.1a9.56,9.56,0,0,1,9,0c2.3,1.2,2.5,3.3.7,4.7l96,55.4.3.2v30.3l-45.6,26.4v43.8l24.2,14,20.4-11.8V411.9l31-17.8c-1.8-1.5-1.6-3.5.7-4.8a10.17,10.17,0,0,1,9,0c2.4,1.5,2.4,3.8,0,5.2a10.19,10.19,0,0,1-8.2.4l-31,17.9v25.1l67.6-39V340.1L835.6,281.4l-.3-.2V259.1l57.5-33.3c-1.8-1.4-1.6-3.4.7-4.7a10,10,0,0,1,8.9,0c2.5,1.4,2.5,3.8,0,5.2a10.15,10.15,0,0,1-8.2.4l-57.5,33.2v20.5l101.7,58.7.4.2v60.4l-89.5,51.7,18.1,10.4,116-67V284.6l33.9-19.5V163.7l139.1-80.3c-1-1.3-.5-2.9,1.4-3.9a9.36,9.36,0,0,1,8.9,0c2.5,1.4,2.5,3.7,0,5.1Zm-361.4,343L638.6,523.9l166.7,96.2L972,523.9Z"/></g></svg>