<svg id="Camada_1" data-name="Camada 1" xmlns="http://www.w3.org/2000/svg" viewBox="0 0 1200 800"><defs><style>.cls-1{fill:#42e8e0;fill-rule:evenodd;opacity:0.1;isolation:isolate;}</style></defs><title>Prancheta 1</title><g id="gui"><path class="cls-1" d="M1164,260l-28.5,16.4v55.2l-263.2,151.9,16.2,9.4,135.6-78.4h98.8l41.1-23.7v1.3l-40.6,23.4-.1.1h-98.7l-135,77.9,14.3,8.2,128.3-74.1.1-.1h113.3l18.4-10.6v1.3l-18,10.4-.1.1h-113.3l-18.9,10.9H1164v1.2h-152.3l-47.9,27.6,18.8,10.9H1016l31.3,18a7.91,7.91,0,0,1,6.4.3c2,1.1,2,2.9,0,4.1a7.84,7.84,0,0,1-7,0c-1.8-1-2-2.6-.6-3.8l-30.4-17.5h-31.1l72.7,42h67.3l37.5-21.7c-1.4-1.1-1.3-2.7.5-3.7a4.7,4.7,0,0,1,1.4-.6v5.2c-.3-.1-.5-.1-.8-.2l-38.2,22-.1.1H1057L962.69,469l-40.1,23.2h22.2l17.8,10.3a7.77,7.77,0,0,1,6.5.2c2,1.1,2,3,0,4.1a8,8,0,0,1-7.1,0c-1.7-1-1.9-2.6-.5-3.7l-17-9.8h-23.8l-15.7,9.1,32.7,18.9.8.5-10.5,6,57.9,33.5h19.3l23.1-13.4c-1.4-1.1-1.3-2.7.5-3.7a8.05,8.05,0,0,1,7.1,0c1.9,1.1,1.9,3,0,4.1a8.15,8.15,0,0,1-6.5.3l-23.7,13.7-.2.1h-19.9l-42-24.3v22.2l39.4,22.8a8.15,8.15,0,0,1,6.5.3c1.9,1.1,1.9,2.9,0,4.1a8,8,0,0,1-7.1,0c-1.8-1-1.9-2.6-.5-3.8L942.39,561v-23.6l-15.5-8.9L872.29,560l25.3,14.6h32.9l51.9,30h39.4l54.8-31.6c-1.4-1.2-1.2-2.7.5-3.8a8.05,8.05,0,0,1,7.1,0c2,1.2,2,3,0,4.1a7.76,7.76,0,0,1-6.5.3l-55.4,32.1h-40.2l-51.9-30h-30.6l152.1,87.9h107.6l4.7,2.7v1.3l-5-2.9h-107.6l-180.2-104-20.5,11.8,182,105,.3.2v62.8l62.3,36a7.53,7.53,0,0,1,6.4.2c2,1.2,2,3,0,4.1a7.26,7.26,0,0,1-7,0c-1.8-1-2-2.6-.5-3.7l-62.3-35.9v-62.8l-182.3-105.3-21.5,12.4,106.8,61.7.3.1v53.9l-182.9,105.6h-8.1a7.19,7.19,0,0,1,6.4-.3l134.9-77.9h-40.6l-72.7,42c1.4,1.1,1.3,2.7-.5,3.7a8,8,0,0,1-7.1,0c-1.9-1.1-1.9-2.9,0-4.1a8.15,8.15,0,0,1,6.5-.3l73.4-42.3.1-.1h42.8l46.6-26.9V648l-85.9-49.7v26.8l53.1,30.6v27.1a7.41,7.41,0,0,1,3,.8c1.9,1.1,1.9,3,0,4.1a8,8,0,0,1-7.1,0c-2-1.1-2-3,0-4.1a7,7,0,0,1,3-.8v-26.4L847,625.72v-28l-20-11.5-21.8,12.5-.3.2-13.4-7.7v58.3l46.6,26.9a8.15,8.15,0,0,1,6.5.3c1.9,1.2,1.9,3,0,4.1a8.05,8.05,0,0,1-7.1,0c-1.8-1-1.9-2.6-.5-3.7l-46.6-26.9v-23.8l-34.8,20.1v22.6l76,43.8a7.91,7.91,0,0,1,6.4.3c2,1.1,2,3,0,4.1a8,8,0,0,1-7.1,0c-1.7-1-1.9-2.6-.5-3.7l-75.6-43.7-.3-.2v-23.9l35.9-20.7v-34.6l-19-11-16.2,9.3V610l-24.4,14.1c1.4,1.1,1.3,2.7-.5,3.7a8,8,0,0,1-7.1,0c-1.9-1.1-1.9-3,0-4.1a8.15,8.15,0,0,1,6.5-.3l24.4-14.1v-19.8l-53.3,30.7v46.4l80.2,46.3.3.1v17.5L736,756.72c1.4,1.1,1.2,2.7-.5,3.7a8,8,0,0,1-7.1,0c-2-1.1-2-3,0-4.1a7.91,7.91,0,0,1,6.4-.3l45.4-26.2v-16.1L700,667.42l-.3-.2v-47.6l70.5-40.7-14.2-8.3-91.5,52.8v86.9l-26.7,15.4v79.9l-2,1.2h-2.3l3.2-1.8v-78.6l-139.3,80.4h-2.2l168.2-97.1v-86.9l91.5-52.8-16.2-9.3-89,51.4.2.4-84.7,49v10.6l-17.2,10v30.6l-126.4,73c1.4,1.1,1.2,2.7-.5,3.7a8,8,0,0,1-7.1,0c-2-1.1-2-2.9,0-4.1a7.91,7.91,0,0,1,6.4-.3l126.5-73v-29.3L525,695.42c1.4,1.1,1.3,2.7-.5,3.7a8,8,0,0,1-7.1,0c-1.9-1.1-1.9-3,0-4.1a8.15,8.15,0,0,1,6.5-.3l40.2-23.2v-10.7l84-48.5h-39l-168,97v25.4l-66.6,38.4c1.4,1.1,1.3,2.7-.5,3.7a7.45,7.45,0,0,1-7.1,0c-1.9-1.1-1.9-2.9,0-4a7.41,7.41,0,0,1,6.5-.3L440,734v-25.3l166.9-96.4H493.19l-136.7,78.9-.1.1H196.59l-93.7-54.1a7.91,7.91,0,0,1-6.4-.3c-2-1.1-2-3,0-4.1a7.84,7.84,0,0,1,7,0c1.8,1,2,2.6.5,3.7l92.9,53.6h159.2l136.7-78.9h156.1l88.7-51.2-16.8-9.7-64.2,37.1-.2.1H475.59l-126.7,73.2c1.4,1.1,1.2,2.7-.5,3.7a8,8,0,0,1-7.1,0c-2-1.1-2-2.9,0-4.1a7.91,7.91,0,0,1,6.4-.3l127.5-73.6h133.9L574,566.12h-94.6a2.53,2.53,0,0,1-1.4,1.5,7.26,7.26,0,0,1-7,0c-2-1.1-2-2.9,0-4.1a7.84,7.84,0,0,1,7,0,3.21,3.21,0,0,1,1.4,1.5h94.9l37,21.4h44.8l63.6-36.7-14.8-8.5-56.2,32.4-.1.1h-22.7l-46-26.5H441.29l-86.8-50.1a8.37,8.37,0,0,1-6.4-.4c-1.9-1.1-1.9-2.9,0-4.1a8,8,0,0,1,7.1,0c1.8,1.1,1.9,2.7.5,3.8l85.9,49.6h138.6l46,26.6h22.1l40.8-23.6h-20.4l-19.8,11.4-.1.1h-15.5l-34.4-19.9a7.89,7.89,0,0,1-6.4-.3c-1.9-1.1-1.9-3,0-4.1a8.05,8.05,0,0,1,7.1,0c1.8,1,1.9,2.7.4,3.8l33.6,19.4h14.8l19.8-11.4.2-.1H691l12.8-7.4-20.8-12h-30.6l-37.9-21.9a8.15,8.15,0,0,1-6.5-.3c-2-1.1-2-2.9,0-4.1a8.05,8.05,0,0,1,7.1,0c1.7,1.1,1.9,2.6.5,3.8l37.1,21.4h28.4l-8.9-5.2-.9-.4,15.2-8.8-41.1-23.7h-43.2l-45.5,26.3c1.4,1.1,1.2,2.7-.5,3.7a8,8,0,0,1-7.1,0c-2-1.1-2-2.9,0-4.1a8.15,8.15,0,0,1,6.5-.3l23.4-13.5h-85.2l-24.5-14.2h-48.8a2.53,2.53,0,0,1-1.4,1.5,7.26,7.26,0,0,1-7,0c-2-1.1-2-2.9,0-4.1a7.84,7.84,0,0,1,7,0,3.21,3.21,0,0,1,1.4,1.5h49.1l24.5,14.2H581l20.8-12.1h41.7l-17-9.9h-97.8l-25.2-14.5h-74.8l-35.8-20.7a7.91,7.91,0,0,1-6.4-.3c-2-1.1-2-2.9,0-4.1a8,8,0,0,1,7.1,0c1.7,1.1,1.9,2.6.5,3.8l34.9,20.1h72.6l-84-48.5h-61.7l-26-14.9a7.91,7.91,0,0,1-6.4-.3c-2-1.2-2-3,0-4.1a7.84,7.84,0,0,1,7,0c1.8,1,2,2.6.5,3.7l25.2,14.5h61.7L529,477.22h97.8l60.8,35.1L716,496l-70.8-40.9H569l-86.5-49.9a7.91,7.91,0,0,1-6.4-.3c-2-1.1-2-3,0-4.1a7.84,7.84,0,0,1,7,0c1.8,1,2,2.6.5,3.7l85.7,49.5h73.9L550,400.12l-.3-.1v-43.3l-139.5-80.5a7.91,7.91,0,0,1-6.4-.3c-2-1.1-2-3,0-4.1a7.84,7.84,0,0,1,7,0c1.8,1,2,2.6.5,3.8l139.2,80.3.3.2v43.2l166.3,96,24.4-14.1-99.6-57.5-.3-.2v-86.9l-88.8-51.2a7.91,7.91,0,0,1-6.4-.3c-2-1.1-2-2.9,0-4.1a7.84,7.84,0,0,1,7,0c1.8,1.1,2,2.6.5,3.8l88.5,51,.3.2v86.9l99.9,57.7,15.1-8.7-74.1-42.8V327.32L648,306.82v-38.3l-31.4-18.2a7.91,7.91,0,0,1-6.4-.3c-2-1.1-2-2.9,0-4.1a7.84,7.84,0,0,1,7,0c1.8,1,2,2.6.5,3.8l31.5,18.1v38.3l35.6,20.6v101.8l74,42.7,20.3-11.7-56.6-32.7V256.72h1.1v99.6l28.4-16.4v-55.8a7.5,7.5,0,0,1-3-.9c-1.9-1.1-1.9-2.9,0-4a7.45,7.45,0,0,1,7.1,0c2,1.1,2,2.9,0,4a7,7,0,0,1-3,.9v56.5l-29.5,17v30.1l37.4-21.6c-1.3-1.1-1.1-2.7.6-3.7a8.05,8.05,0,0,1,7.1,0c1.9,1.2,1.9,3,0,4.1a7.63,7.63,0,0,1-6.6.2L723.59,389v37.1l56.7,32.8,18.1-10.5-27.6-15.9v-23.4l7-4v-12l49.6-28.6v-20.2l40.4-23.4c-1.4-1.1-1.2-2.7.5-3.7a8.05,8.05,0,0,1,7.1,0c1.9,1.1,1.9,3,0,4.1a8.15,8.15,0,0,1-6.5.3l-40.4,23.3v20.2l-49.6,28.7v10.6l83.4-48.1c-1.3-1.1-1.1-2.7.6-3.7a8,8,0,0,1,7.1,0c2,1.2,2,3,0,4.1a7.62,7.62,0,0,1-6.6.2l-66.9,38.7h33.6l38.5-22.3c-1.4-1.1-1.3-2.7.5-3.7a8,8,0,0,1,7.1,0c1.9,1.1,1.9,3,0,4.1a8.17,8.17,0,0,1-6.5.3l-39.3,22.7h-35.7v-.1l-22.8,13.1v22.2l27.6,15.9,5.2-3,.2-.2,7.1,4.1L927.59,382l.2-.1h31.5a2.88,2.88,0,0,1,1.4-1.5,8,8,0,0,1,7.1,0c1.9,1.1,1.9,3,0,4.1a8,8,0,0,1-7.1,0,2.88,2.88,0,0,1-1.4-1.5h-31.2l-114.9,66.4,17.5,10.1,96.1-55.5c-1.4-1.1-1.3-2.7.5-3.7a8.05,8.05,0,0,1,7.1,0c1.9,1.1,1.9,3,0,4.1a8.15,8.15,0,0,1-6.5.3l-96,55.5,18.2,10.5,135.7-78.4v-65.6l-64-37h-58.9l-46.7-26.9a8.15,8.15,0,0,1-6.5-.3c-1.9-1.2-1.9-3,0-4.1a7.45,7.45,0,0,1,7.1,0c1.8,1,1.9,2.6.5,3.7l45.9,26.5h56.7L842,243.72l-.2-.2V185a5.83,5.83,0,0,1-3-.8c-2-1.1-2-2.9,0-4.1a8,8,0,0,1,7.1,0c1.9,1.2,1.9,3,0,4.1a6.11,6.11,0,0,1-3,.8v57.8l129.4,74.7,79.6-45.9v-51.7l56.5-32.6c-1.4-1.1-1.3-2.7.5-3.8a8.05,8.05,0,0,1,7.1,0c1.9,1.2,1.9,3,0,4.1a7.76,7.76,0,0,1-6.5.3l-56.5,32.7v51.6l-79.6,46,13.3,7.7.2.1v51.6l23-13.2v-32.3l46.7-26.9c-1.4-1.1-1.3-2.7.5-3.7a7.45,7.45,0,0,1,7.1,0c1.9,1.1,1.9,2.9,0,4.1a7.77,7.77,0,0,1-6.5.2l-46.7,27V365l-24.1,13.9v14l-135.7,78.4,20,11.6,263.2-152v-55.1l29.6-17.1Zm-359.1,185.9-131.3,75.9,131.3,75.8,131.4-75.8Z"/></g></svg>