<svg version="1.2" xmlns="http://www.w3.org/2000/svg" viewBox="0 0 1200 800" width="1200" height="800">
	<title>banner3guilimpo-ai</title>
	<style>
		.s0 { opacity: .1;fill: #42e8e0 } 
	</style>
	<g id="gui">
		<path id="&lt;Compound Path&gt;" fill-rule="evenodd" class="s0" d="m1200 253.2l-28.5 16.4v55.2l-263.2 151.9 16.2 9.4 135.6-78.4h0.2 98.6l41.1-23.7v1.3l-40.6 23.4-0.1 0.1h-98.7l-135 77.9 14.3 8.2 128.3-74.1 0.1-0.1h113.3l18.4-10.6v1.3l-18 10.4-0.1 0.1h-113.3l-18.9 10.9h150.3v1.2h-152.3l-47.9 27.6 18.8 10.9h33.4l31.3 18c1.9-0.8 4.7-0.7 6.4 0.3 2 1.1 2 2.9 0 4.1-1.9 1.1-5.1 1.1-7 0-1.8-1-2-2.6-0.6-3.8l-30.4-17.5h-31.1l72.7 42h67.3l37.5-21.7c-1.4-1.1-1.3-2.7 0.5-3.7q0.6-0.4 1.4-0.6v5.2c-0.3-0.1-0.5-0.1-0.8-0.2l-38.2 22-0.1 0.1h-67.9l-94.3-54.5-40.1 23.2h22.2l17.8 10.3c1.9-0.9 4.7-0.8 6.5 0.2 2 1.1 2 3 0 4.1-1.9 1.1-5.1 1.1-7.1 0-1.7-1-1.9-2.6-0.5-3.7l-17-9.8h-23.8l-15.7 9.1 32.7 18.9 0.8 0.5-10.5 6 57.9 33.5h19.3l23.1-13.4c-1.4-1.1-1.3-2.7 0.5-3.7 2-1.1 5.1-1.1 7.1 0 1.9 1.1 1.9 3 0 4.1-1.8 1-4.5 1.1-6.5 0.3l-23.7 13.7-0.2 0.1h-19.9l-42-24.3v22.2l39.4 22.8c2-0.8 4.7-0.7 6.5 0.3 1.9 1.1 1.9 2.9 0 4.1-2 1.1-5.2 1.1-7.1 0-1.8-1-1.9-2.6-0.5-3.8l-39.5-22.7v-23.6l-15.5-8.9-54.6 31.5 25.3 14.6h32.9l51.9 30h39.4l54.8-31.6c-1.4-1.2-1.2-2.7 0.5-3.8 2-1.1 5.1-1.1 7.1 0 2 1.2 2 3 0 4.1-1.8 1.1-4.5 1.1-6.5 0.3l-55.4 32.1h-0.2-40l-51.9-30h-30.6l152.1 87.9h107.6l4.7 2.7v1.3l-5-2.9h-107.6l-180.2-104-20.5 11.8 182 105 0.3 0.2v62.8l62.3 36c1.9-0.9 4.7-0.8 6.4 0.2 2 1.2 2 3 0 4.1-1.9 1.2-5.1 1.2-7 0-1.8-1-2-2.6-0.5-3.7l-62.3-35.9v-62.8l-182.3-105.3-21.5 12.4 106.8 61.7 0.3 0.1v53.9l-182.9 105.6h-8.2q0 0 0.1 0c1.7-1.1 4.5-1.2 6.4-0.3l134.9-77.9h-40.6l-72.7 42c1.4 1.1 1.3 2.7-0.5 3.7-1.9 1.1-5.1 1.1-7.1 0-1.9-1.1-1.9-2.9 0-4.1 1.8-1 4.5-1.1 6.5-0.3l73.4-42.3 0.1-0.1h42.8l46.6-26.9v-52.6l-85.9-49.7v26.8l53.1 30.6v27.1c1.1 0.1 2.1 0.3 3 0.8 1.9 1.1 1.9 3 0 4.1-2 1.1-5.2 1.1-7.1 0-2-1.1-2-3 0-4.1 0.8-0.5 1.9-0.7 3-0.8v-26.4l-53.1-30.7v-28l-20-11.5-21.8 12.5-0.3 0.2-13.4-7.7v58.3l46.6 26.9c2-0.8 4.7-0.7 6.5 0.3 1.9 1.2 1.9 3 0 4.1-2 1.1-5.1 1.1-7.1 0-1.8-1-1.9-2.6-0.5-3.7l-46.6-26.9v-23.8l-34.8 20.1v22.6l76 43.8c1.9-0.8 4.7-0.7 6.4 0.3 2 1.1 2 3 0 4.1-1.9 1.1-5.1 1.1-7.1 0-1.7-1-1.9-2.6-0.5-3.7l-75.6-43.7-0.3-0.2v-23.9l35.9-20.7v-34.6l-19-11-16.2 9.3v21.2l-24.4 14.1c1.4 1.1 1.3 2.7-0.5 3.7-1.9 1.1-5.1 1.1-7.1 0-1.9-1.1-1.9-3 0-4.1 1.8-1 4.5-1.1 6.5-0.3l24.4-14.1v-19.8l-53.3 30.7v46.4l80.2 46.3 0.3 0.1v17.5l-45.3 26.2c1.4 1.1 1.2 2.7-0.5 3.7-2 1.1-5.2 1.1-7.1 0-2-1.1-2-3 0-4.1 1.7-1 4.5-1.1 6.4-0.3l45.4-26.2v-16.1l-80.2-46.3-0.3-0.2v-47.6l70.5-40.7-14.2-8.3-91.5 52.8v86.9l-26.7 15.4v79.9l-2 1.2h-2.3l3.2-1.8v-78.6l-139.3 80.4h-2.2l168.2-97.1v-86.9l91.5-52.8-16.2-9.3-89 51.4 0.2 0.4-84.7 49v10.6l-17.2 10v30.6l-126.4 73c1.4 1.1 1.2 2.7-0.5 3.7-2 1.1-5.2 1.1-7.1 0-2-1.1-2-2.9 0-4.1 1.7-1 4.5-1.1 6.4-0.3l126.5-73v-29.3l-21.9 12.7c1.4 1.1 1.3 2.7-0.5 3.7-1.9 1.1-5.1 1.1-7.1 0-1.9-1.1-1.9-3 0-4.1 1.8-1 4.5-1.1 6.5-0.3l40.2-23.2v-10.7l84-48.5h-39l-168 97v25.4l-66.6 38.4c1.4 1.1 1.3 2.7-0.5 3.7-2 1.2-5.1 1.2-7.1 0-1.9-1.1-1.9-2.9 0-4 1.8-1.1 4.5-1.2 6.5-0.3l66.6-38.5v-25.3l166.9-96.4h-113.7l-136.7 78.9-0.1 0.1h-159.8l-93.7-54.1c-1.9 0.8-4.7 0.7-6.4-0.3-2-1.1-2-3 0-4.1 1.9-1.1 5.1-1.1 7 0 1.8 1 2 2.6 0.5 3.7l92.9 53.6h159.2l136.7-78.9h0.1 156l88.7-51.2-16.8-9.7-64.2 37.1-0.2 0.1h-180.8l-126.7 73.2c1.4 1.1 1.2 2.7-0.5 3.7-2 1.1-5.2 1.1-7.1 0-2-1.1-2-2.9 0-4.1 1.7-1 4.5-1.1 6.4-0.3l127.5-73.6h0.1 133.8l-35.1-20.3h-94.6c-0.2 0.6-0.6 1.1-1.4 1.5-1.9 1.2-5.1 1.2-7 0-2-1.1-2-2.9 0-4.1 1.9-1.1 5.1-1.1 7 0 0.8 0.5 1.2 1 1.4 1.5h94.9l37 21.4h44.8l63.6-36.7-14.8-8.5-56.2 32.4-0.1 0.1h-22.7l-46-26.5h-138.6l-86.8-50.1c-1.9 0.7-4.6 0.6-6.4-0.4-1.9-1.1-1.9-2.9 0-4.1 2-1.1 5.2-1.1 7.1 0 1.8 1.1 1.9 2.7 0.5 3.8l85.9 49.6h138.6l46 26.6h22.1l40.8-23.6h-20.4l-19.8 11.4-0.1 0.1h-15.5l-34.4-19.9c-2 0.8-4.7 0.7-6.4-0.3-1.9-1.1-1.9-3 0-4.1 2-1.1 5.1-1.1 7.1 0 1.8 1 1.9 2.7 0.4 3.8l33.6 19.4h14.8l19.8-11.4 0.2-0.1h22.6l12.8-7.4-20.8-12h-30.6l-37.9-21.9c-2 0.8-4.7 0.7-6.5-0.3-2-1.1-2-2.9 0-4.1 2-1.1 5.1-1.1 7.1 0 1.7 1.1 1.9 2.6 0.5 3.8l37.1 21.4h28.4l-8.9-5.2-0.9-0.4 15.2-8.8-41.1-23.7h-43.2l-45.5 26.3c1.4 1.1 1.2 2.7-0.5 3.7-2 1.1-5.2 1.1-7.1 0-2-1.1-2-2.9 0-4.1 1.8-1 4.5-1.1 6.5-0.3l23.4-13.5h-85.2l-24.5-14.2h-48.8c-0.2 0.6-0.6 1.1-1.4 1.5-1.9 1.2-5.1 1.2-7 0-2-1.1-2-2.9 0-4.1 1.9-1.1 5.1-1.1 7 0 0.8 0.5 1.2 1 1.4 1.5h49.1l24.5 14.2h86.9l20.8-12.1h0.1 41.6l-17-9.9h-97.8l-25.2-14.5h-74.8l-35.8-20.7c-1.9 0.8-4.7 0.7-6.4-0.3-2-1.1-2-2.9 0-4.1 1.9-1.1 5.1-1.1 7.1 0 1.7 1.1 1.9 2.6 0.5 3.8l34.9 20.1h72.6l-84-48.5h-61.7l-26-14.9c-1.9 0.8-4.7 0.7-6.4-0.3-2-1.2-2-3 0-4.1 1.9-1.1 5.1-1.1 7 0 1.8 1 2 2.6 0.5 3.7l25.2 14.5h61.7l111.1 64.2h97.8l60.8 35.1 28.4-16.3-70.8-40.9h-76.2l-86.5-49.9c-1.9 0.8-4.7 0.7-6.4-0.3-2-1.1-2-3 0-4.1 1.9-1.1 5.1-1.1 7 0 1.8 1 2 2.6 0.5 3.7l85.7 49.5h73.9l-93.2-53.9-0.3-0.1v-43.3l-139.5-80.5c-1.9 0.8-4.7 0.7-6.4-0.3-2-1.1-2-3 0-4.1 1.9-1.1 5.1-1.1 7 0 1.8 1 2 2.6 0.5 3.8l139.2 80.3 0.3 0.2v43.2l166.3 96 24.4-14.1-99.6-57.5-0.3-0.2v-86.9l-88.8-51.2c-1.9 0.8-4.7 0.7-6.4-0.3-2-1.1-2-2.9 0-4.1 1.9-1.1 5.1-1.1 7 0 1.8 1.1 2 2.6 0.5 3.8l88.5 51 0.3 0.2v86.9l99.9 57.7 15.1-8.7-74.1-42.8v-101.8l-35.6-20.5v-38.3l-31.4-18.2c-1.9 0.8-4.7 0.7-6.4-0.3-2-1.1-2-2.9 0-4.1 1.9-1.1 5.1-1.1 7 0 1.8 1 2 2.6 0.5 3.8l31.5 18.1v38.3l35.6 20.6v101.8l74 42.7 20.3-11.7-56.6-32.7v-170.1h1.1v99.6l28.4-16.4v-55.8c-1.1-0.1-2.1-0.4-3-0.9-1.9-1.1-1.9-2.9 0-4 2-1.2 5.2-1.2 7.1 0 2 1.1 2 2.9 0 4-0.8 0.5-1.9 0.8-3 0.9v56.5l-29.5 17v30.1l37.4-21.6c-1.3-1.1-1.1-2.7 0.6-3.7 2-1.1 5.1-1.1 7.1 0 1.9 1.2 1.9 3 0 4.1-1.8 1.1-4.7 1.1-6.6 0.2l-38.5 22.3v37.1l56.7 32.8 18.1-10.5-27.6-15.9v-23.4l7-4v-12l49.6-28.6v-20.2l40.4-23.4c-1.4-1.1-1.2-2.7 0.5-3.7 2-1.1 5.1-1.1 7.1 0 1.9 1.1 1.9 3 0 4.1-1.8 1-4.5 1.1-6.5 0.3l-40.4 23.3v20.2l-49.6 28.7v10.6l83.4-48.1c-1.3-1.1-1.1-2.7 0.6-3.7 2-1.1 5.2-1.1 7.1 0 2 1.2 2 3 0 4.1-1.8 1.1-4.6 1.1-6.6 0.2l-66.9 38.7h33.6l38.5-22.3c-1.4-1.1-1.3-2.7 0.5-3.7 1.9-1.1 5.1-1.1 7.1 0 1.9 1.1 1.9 3 0 4.1-1.8 1-4.6 1.1-6.5 0.3l-39.3 22.7h-35.7v-0.1l-22.8 13.1v22.2l27.6 15.9 5.2-3 0.2-0.2 7.1 4.1 115.6-66.7 0.2-0.1h31.5c0.2-0.6 0.7-1.1 1.4-1.5 1.9-1.1 5.1-1.1 7.1 0 1.9 1.1 1.9 3 0 4.1-2 1.1-5.2 1.1-7.1 0-0.7-0.4-1.2-0.9-1.4-1.5h-31.2l-114.9 66.4 17.5 10.1 96.1-55.5c-1.4-1.1-1.3-2.7 0.5-3.7 2-1.1 5.1-1.1 7.1 0 1.9 1.1 1.9 3 0 4.1-1.8 1-4.5 1.1-6.5 0.3l-96 55.5 18.2 10.5 135.7-78.4v-65.6l-64-37h-58.9l-46.7-26.9c-2 0.8-4.7 0.7-6.5-0.3-1.9-1.2-1.9-3 0-4.1 2-1.2 5.1-1.2 7.1 0 1.8 1 1.9 2.6 0.5 3.7l45.9 26.5h56.7l-77.9-44.9-0.2-0.2v-58.5c-1.1 0-2.2-0.3-3-0.8-2-1.1-2-2.9 0-4.1 1.9-1.1 5.1-1.1 7.1 0 1.9 1.2 1.9 3 0 4.1-0.9 0.5-1.9 0.8-3 0.8v57.8l129.4 74.7 79.6-45.9v-51.7l56.5-32.6c-1.4-1.1-1.3-2.7 0.5-3.8 2-1.1 5.1-1.1 7.1 0 1.9 1.2 1.9 3 0 4.1-1.8 1.1-4.5 1.1-6.5 0.3l-56.5 32.7v51.6l-79.6 46 13.3 7.7 0.2 0.1v51.6l23-13.2v-32.3l46.7-26.9c-1.4-1.1-1.3-2.7 0.5-3.7 1.9-1.2 5.1-1.2 7.1 0 1.9 1.1 1.9 2.9 0 4.1-1.8 1-4.6 1.1-6.5 0.2l-46.7 27v32.2l-24.1 13.9v14l-135.7 78.4 20 11.6 263.2-152v-55.1l29.6-17.1zm-359.1 185.9l-131.3 75.9 131.3 75.8 131.4-75.8z"/>
	</g>
</svg>