<?xml version="1.0" standalone="no"?>
<svg xmlns:xlink="http://www.w3.org/1999/xlink" id="wave" style="transform:rotate(0deg); transition: 0.3s" viewBox="0 0 1440 200" version="1.1" xmlns="http://www.w3.org/2000/svg"><defs><linearGradient id="sw-gradient-0" x1="0" x2="0" y1="1" y2="0"><stop stop-color="rgba(243, 244, 245, 1)" offset="0%"/><stop stop-color="rgba(243, 244, 245, 1)" offset="100%"/></linearGradient></defs><path style="transform:translate(0, 0px); opacity:1" fill="url(#sw-gradient-0)" d="M0,140L60,123.3C120,107,240,73,360,80C480,87,600,133,720,153.3C840,173,960,167,1080,153.3C1200,140,1320,120,1440,100C1560,80,1680,60,1800,63.3C1920,67,2040,93,2160,100C2280,107,2400,93,2520,103.3C2640,113,2760,147,2880,160C3000,173,3120,167,3240,136.7C3360,107,3480,53,3600,56.7C3720,60,3840,120,3960,133.3C4080,147,4200,113,4320,83.3C4440,53,4560,27,4680,20C4800,13,4920,27,5040,36.7C5160,47,5280,53,5400,53.3C5520,53,5640,47,5760,60C5880,73,6000,107,6120,113.3C6240,120,6360,100,6480,96.7C6600,93,6720,107,6840,110C6960,113,7080,107,7200,100C7320,93,7440,87,7560,100C7680,113,7800,147,7920,146.7C8040,147,8160,113,8280,110C8400,107,8520,133,8580,146.7L8640,160L8640,200L8580,200C8520,200,8400,200,8280,200C8160,200,8040,200,7920,200C7800,200,7680,200,7560,200C7440,200,7320,200,7200,200C7080,200,6960,200,6840,200C6720,200,6600,200,6480,200C6360,200,6240,200,6120,200C6000,200,5880,200,5760,200C5640,200,5520,200,5400,200C5280,200,5160,200,5040,200C4920,200,4800,200,4680,200C4560,200,4440,200,4320,200C4200,200,4080,200,3960,200C3840,200,3720,200,3600,200C3480,200,3360,200,3240,200C3120,200,3000,200,2880,200C2760,200,2640,200,2520,200C2400,200,2280,200,2160,200C2040,200,1920,200,1800,200C1680,200,1560,200,1440,200C1320,200,1200,200,1080,200C960,200,840,200,720,200C600,200,480,200,360,200C240,200,120,200,60,200L0,200Z"/></svg>