<?xml version="1.0" encoding="UTF-8"?> <svg xmlns="http://www.w3.org/2000/svg" id="Layer_1" data-name="Layer 1" viewBox="0 0 120 135"><defs><style>.cls-1{fill:#e73135;}.cls-2{fill:#fff;}</style></defs><title>01_INSTANA_IconSet</title><path class="cls-1" d="M52,4.64,9.56,29.15A16,16,0,0,0,1.57,43V92a16,16,0,0,0,8,13.84L52,130.36a16,16,0,0,0,16,0l42.45-24.51a16,16,0,0,0,8-13.84V43a16,16,0,0,0-8-13.84L68,4.64A16,16,0,0,0,52,4.64Z"></path><path class="cls-2" d="M43.09,67.53v-.2h0a1.8,1.8,0,0,0-1.81-1.61H37.84a2.45,2.45,0,0,0-.38,0A1.79,1.79,0,0,0,36,67.55v.2a1.79,1.79,0,0,0,1.78,1.56h3.47a1.37,1.37,0,0,0,.34,0A1.77,1.77,0,0,0,43.09,67.53Z"></path><path class="cls-2" d="M88.87,79H31.09V91.33a.89.89,0,0,0,.89.89H88a.89.89,0,0,0,.89-.89Zm-4.18,7.36a.64.64,0,0,1-.64.64H75.56a.63.63,0,0,1-.63-.64V84.63h0a.64.64,0,0,1,.59-.4h8.48a.64.64,0,0,1,.64.64Z"></path><path class="cls-2" d="M88,42.78H32a.89.89,0,0,0-.89.89V56h57.8V43.68A.92.92,0,0,0,88,42.78Zm-3.31,7.35a.64.64,0,0,1-.64.64H75.57a.64.64,0,0,1-.64-.64V48.66a.64.64,0,0,1,.64-.64h8.48a.64.64,0,0,1,.64.64Z"></path><path class="cls-2" d="M56.76,68.18h2.49l-1.23-2ZM31.09,60.49v14h57.8v-14ZM42.55,70.74a3.7,3.7,0,0,1-.66.07H38.36a3.3,3.3,0,0,1-3.26-2.72h0a3,3,0,0,1,0-.52,3.34,3.34,0,0,1,2.7-3.27h0a5.8,5.8,0,0,1,.65-.07H42a3.29,3.29,0,0,1,3.19,2.88c0,.14,0,.27,0,.4A3.3,3.3,0,0,1,42.55,70.74Zm18.5.06-.06,0-.15-.11,0,0c-.17-.27-.34-.56-.52-.84l-.07,0H57.4l-.26-.07L57,69.48h0c-.18-.27-.34-.54-.51-.79h0l-1.19,1.9h0l-.16.16-.24,0H53.54l0,0H51.3l0,0-.19-.07,0,0-3.38-2.95,0,0v0l-.2-.28V70.8H45.78v-.24c0-2,0-4,0-6.08v-.24h5.31A2.29,2.29,0,0,1,53.35,66a2.48,2.48,0,0,1,.06.54,2.3,2.3,0,0,1-2.19,2.28l.68.57h0l1.18,1,.2.18.15-.18.08-.1c1.19-1.86,2.38-3.7,3.55-5.58a1.15,1.15,0,0,1,1.95,0c1.16,1.87,2.37,3.71,3.55,5.57l.32.51Zm8.76-1.16c-.22.36-.44.69-.67,1l0,.06-.07,0-.15.06H65.16A3.24,3.24,0,0,1,62,67.88c0-.11,0-.22,0-.33a3.31,3.31,0,0,1,2.77-3.28h0a3.26,3.26,0,0,1,.52,0h4.61l-.23.37-.07.11h0c-.18.27-.35.53-.5.8h0a.5.5,0,0,1-.21.22.62.62,0,0,1-.25.05H65.41a1.73,1.73,0,0,0-1.76,1.77v0h0a1.72,1.72,0,0,0,1.49,1.65h0l.32,0h4.58Zm15,0-.06.09h0c-.18.3-.38.6-.56.89l0,.05,0,0-.2.12H80.23a3.23,3.23,0,0,1-2.65-1.52l-.18.3-.07.12h0l-.56.86,0,0,0,0-.23.13H71.2a.93.93,0,0,1-.64-.24.89.89,0,0,1-.24-.64V64.57h0l0-.12,0-.2H72v5h5.57a3.24,3.24,0,0,1-.46-1.34h0a2.44,2.44,0,0,1,0-.27,3.36,3.36,0,0,1,2.8-3.36l0,.24,0-.24a3.09,3.09,0,0,1,.51,0H85l-.19.36-.06.12h0c-.18.29-.36.57-.55.85h0l-.15.17-.24.05H80.43a1.69,1.69,0,0,0-1.52,1h5.72l-.19.36-.07.12h0l-.55.86h0l-.16.18-.23,0H78.87l.06.1a1.69,1.69,0,0,0,1.5.86h4.64ZM51.74,66.82a.74.74,0,0,0,0-.29.76.76,0,0,0-.73-.75H47.41v1.49h.51l3,0A.79.79,0,0,0,51.74,66.82Z"></path></svg> 